<?xml version="1.0" encoding="utf-8"?>
<!-- Generator: Adobe Illustrator 22.1.0, SVG Export Plug-In . SVG Version: 6.00 Build 0)  -->
<svg version="1.1" id="Layer_1" xmlns="http://www.w3.org/2000/svg" xmlns:xlink="http://www.w3.org/1999/xlink" x="0px" y="0px"
	 viewBox="0 0 325.8 325.8" style="enable-background:new 0 0 325.8 325.8;" xml:space="preserve">
<style type="text/css">
	.st0{fill:#B2B2B2;}
	.st1{fill:#B3B3B3;}
	.st2{fill:#B7B7B7;}
	.st3{fill:#DEDEDE;}
	.st4{fill:#E6E8E8;}
	.st5{fill:#666666;}
	.st6{fill:#E5E7E8;}
	.st7{fill:#D2D5D5;}
	.st8{fill:#E6E7E7;}
	.st9{fill:#D1D4D4;}
	.st10{fill:#B81B21;}
	.st11{fill:#E5E7E7;}
	.st12{fill:#D3D5D5;}
	.st13{fill:#D3D6D6;}
	.st14{fill:#E5E6E6;}
	.st15{fill:#D4D7D7;}
	.st16{fill:#DBDDDD;}
	.st17{fill:#D7DADA;}
	.st18{fill:#696969;}
	.st19{fill:#E1E3E3;}
	.st20{fill:#E3E5E5;}
	.st21{fill:#5EB2D3;}
	.st22{fill:#E3D9D9;}
	.st23{fill:#C66565;}
	.st24{fill:#BED4DD;}
	.st25{fill:#CA6363;}
	.st26{fill:#CA6565;}
	.st27{fill:#38A1CB;}
	.st28{fill:#D1D3D3;}
	.st29{fill:#64B6D6;}
	.st30{fill:#DECECE;}
	.st31{fill:#F6F6F6;}
	.st32{fill:#D5D8D8;}
	.st33{fill:#D5D7D7;}
	.st34{fill:#222222;}
	.st35{fill:#BC3535;}
	.st36{fill:#F5F5F5;}
	.st37{fill:#389FC9;}
	.st38{fill:#2B9AC7;}
	.st39{fill:#2A9AC7;}
	.st40{fill:#39A0CB;}
	.st41{fill:#349DC8;}
	.st42{fill:#974A55;}
	.st43{fill:#A5A5A5;}
	.st44{fill:#C8C8C8;}
	.st45{fill:#E2E4E4;}
	.st46{fill:#D6D9D9;}
	.st47{fill:#E4E6E6;}
	.st48{fill:#5AADCE;}
	.st49{fill:#78AEC4;}
	.st50{fill:#E1CECE;}
	.st51{fill:#339ECA;}
	.st52{fill:#DADCDC;}
	.st53{fill:#DDDFDF;}
	.st54{fill:#A7A7A7;}
	.st55{fill:#DADDDD;}
	.st56{fill:#42A6CE;}
	.st57{fill:#AFB0B0;}
	.st58{fill:#B62A2A;}
	.st59{fill:#CC6969;}
	.st60{fill:#C25A5B;}
	.st61{fill:#CD6F6F;}
	.st62{fill:#CA6364;}
	.st63{fill:#7C1E1E;}
	.st64{fill:#AEB7C7;}
	.st65{fill:#A9AAB9;}
	.st66{fill:#B7A7B3;}
	.st67{fill:#6199B8;}
	.st68{fill:#A3C7DA;}
	.st69{fill:#C1DEEB;}
	.st70{fill:#ADAEAE;}
	.st71{fill:#BABBBB;}
	.st72{fill:#2798C6;}
	.st73{fill:#61B2D5;}
	.st74{fill:#67B5D7;}
	.st75{fill:#6CB8D9;}
	.st76{fill:#1D6885;}
	.st77{fill:#1E6B8A;}
	.st78{fill:#B4B4B4;}
	.st79{fill:#B9B9B9;}
	.st80{fill:#DCDCDC;}
	.st81{fill:#E6E6E6;}
	.st82{fill:#FEFEFE;}
	.st83{fill:#F4F4F4;}
	.st84{fill:#EF3B37;}
	.st85{fill:#E7E9E9;}
	.st86{fill:#56AED1;}
	.st87{fill:#C7D6DE;}
	.st88{fill:#E2DBDB;}
	.st89{fill:#C76666;}
	.st90{fill:#CA6666;}
	.st91{fill:#CE7E7E;}
	.st92{fill:#E2D5D5;}
	.st93{fill:#63ACC9;}
	.st94{fill:#5EB2D4;}
	.st95{fill:#195F7B;}
	.st96{fill:#EBCF52;}
	.st97{fill:#E6CF68;}
	.st98{fill:#E8EAEA;}
	.st99{fill:#EAECEC;}
	.st100{fill:#E9EBEB;}
	.st101{fill:#3FA5CD;}
	.st102{fill:#51A2C3;}
	.st103{fill:#E9EAEA;}
	.st104{fill:#F1F3F3;}
	.st105{fill:#F7D548;}
	.st106{fill:#E7F3F8;}
	.st107{fill:#BA2E2E;}
	.st108{fill:#1B607E;}
	.st109{fill:#D7A7A7;}
	.st110{fill:#E0CBCB;}
	.st111{fill:#DFC9C9;}
	.st112{fill:#DCBFBF;}
	.st113{fill:#DBB8B8;}
	.st114{fill:#D8AEAE;}
	.st115{fill:#D9B1B1;}
</style>
<g id="wVlFMK_1_">
	
		<image style="overflow:visible;" width="616" height="462" id="wVlFMK" xlink:href="9F0EAFC96128A80E.jpg"  transform="matrix(0.75 0 0 0.75 713.3177 -172.2924)">
	</image>
</g>
<g id="tnWC4D_1_">
	<g>
		<g>
			<path class="st0" d="M189.6,110.7c0,8.9-0.2,17.7,0.2,26.6c0.4,9.7,1.5,19.3,3.2,28.9c0.1,0.7,0.4,1.5,0.4,2.2
				c-0.4,10.3,1.6,20.4,2,30.5c0.5,10.7,2.2,21.3,2.5,32c0.3,9.7-1.8,19-4.2,28.4c-1.3,5.4-3.2,10.7-2,16.5c0.7,3.4,3,6.2,3.4,9.8
				c1.2,11,1.2,11.3-10,13.2c-5,0.8-10.2,0.5-14.9-2.4c-1.4-0.9-2.9-1.5-3.2-3.4c-0.3-0.8,0.2-1,0.8-1.1c6.5,4.7,13.6,5.6,21.2,3.4
				c1.6-0.5,3.5-0.9,3.8-3c0.2-2.1,0.4-4.2-0.3-6.2c-0.5-2.2-1.1-4.3-2.2-6.2c-1.6-3.1-2.2-6.5-1.6-10c0.5-1.3,0.5-2.7,0.7-4.1
				c0.9-4.3,1.8-8.5,3.1-12.7c1-2.9,1.5-5.9,2-8.9c0.8-5.1,0.8-10.1,0.8-15.2c0-1.5,0-3-0.6-4.4c-1.5-18-3.9-36-4.2-54.1
				c-0.1-4-1.2-7.9-1.6-11.9c-0.8-2.3,0-4.8-1.1-7c-0.4-1.5-0.3-3-0.3-4.5c0.8-3.6-1.1-7-0.9-10.5c0.5-9.3,0.5-18.6-0.2-28
				c-0.2-3-0.2-6-0.2-8.9c0-1.1,0.2-2.4,1.5-2.7c1.5-0.3,2.3,0.8,2.8,2c1.1,2.5,2.1,5.1,3,7.7c3.2,9.8,6.1,19.7,8.3,29.8
				c0.1,0.8,0.3,1.5,0.5,2.3c0.1,0.5,0.2,1.1,0.2,1.6c0,0.8,0.3,1.6,0.5,2.4c0.2,0.8,0.4,1.6,0.8,2.3c0.7,1.9,2.4,2.8,3.8,4
				c-1.7,2.4-0.8,4.9-0.3,7.4c0.1,0.5,0,1-0.1,1.6c-1.6,3.3-4.3,6.1-4.8,9.9c3.5-3.7,3.7-3.7,5.7-0.2c0.3,0.8,0.5,1.7,0.8,2.5
				c0.7,2.4,1.1,4.8,1.1,7.3c0,1.6,0.6,2.9,2.1,3.6c1.7,0.8,2.4-0.7,3.4-1.5c5-4.1,3.6-9.6,3-14.8c-0.2-1.3-0.1-2.6-0.7-3.8
				c-0.7-2-0.9-4.1-1.5-6.2c-0.3-1.5-0.2-3.1-0.3-4.6c0.1-1.8-0.2-3.5-0.7-5.2c0.1-1.1,1.2-1.4,1.7-2.2c0.6-0.8,0.7-1.7,0.8-2.6
				c0.1-0.3,0.1-0.6,0.2-1c0.2-1.1,0.2-2.1,0.1-3.2c-0.9-11-3.7-21.6-4.9-32.6c-0.1-1.1-0.3-2.2-0.3-3.3c0.1-1-0.1-1.9-0.4-2.9
				c-0.9-3.8-1.8-7.5-2.9-11.3c-0.2-0.6-0.4-1.3-0.6-1.9c-0.4-1-0.8-2.1-1.6-2.9c-0.7-0.9-1.6-1.6-2.4-2.5c-3.3-4.5-7.4-8-12.2-10.8
				c-2.3-1.3-4.5-2.5-7.2-2.7c-0.6-1.9-1.8,0.8-2.5-0.3c-0.3-0.5-0.3-1-0.2-1.5c1.4-2,2.2-4.3,2.3-6.8c2.2-8.9,3.4-17.7,0.5-26.9
				C180,11.2,160.9,10.5,149.7,17c-5,2.9-7.8,7.6-10.2,12.6c-0.7,1.4-0.9,3.2-2.5,4c-1.2-0.2-1.1-1-0.7-1.8
				c2.3-11.2,12.9-20,23.8-21c24-2.2,31.9,18.6,30,35c-0.6,4.7-1.1,9.4-2.5,13.9c-0.5,1.7,0.1,2.9,1.8,3.5c9,3.1,15.3,9.8,20.8,17
				c3.1,4.1,3.9,9.4,4.8,14.4c2.2,12.7,4.1,25.5,6,38.3c0.3,2,0.6,4.2-0.1,5.9c-3.6,9.1-1.3,17.9,0.7,26.8
				c1.7,7.4-0.4,13.7-6.4,18.5c-1,0.8-2.4,1.2-3.1,0.5c-1.6-1.7-4.8-2-4.6-5.2c0.2-3.6,0.1-7.2-1.6-10.6c-0.3,0.1-0.6,0.1-0.7,0.3
				c-1.2,1.5-2.2,4-4.6,2.6c-2.4-1.3-1-3.5-0.3-5.3c1.1-2.7,2-5.5,3.8-8.1c1.9-2.7,0.5-6.1-0.7-8.6c-3.9-8.1-4.7-17-7.3-25.4
				c-1.9-6.3-3.8-12.6-5.8-19c-0.1-0.1-0.2-0.2-0.3-0.3c-0.1-0.1-0.1-0.2-0.2-0.3C188.7,106.8,189.2,108.8,189.6,110.7z"/>
			<path class="st1" d="M137.9,265.2c-0.1,1.5,0.1,2.9-0.9,4.3c-2.2,3.3-1.8,6.9-0.7,10.4c1.2,4,2,7.9,0.9,12.1
				c-0.5,1.9-1.5,3.4-3.3,3.7c-5.6,1.1-11.3,2.2-17,0.8c-4.6-1.1-7.3-5.2-6.5-9.9c0.4-2.6,0.9-5.1,2.3-7.5c1.8-2.9,2.6-6.3,2-9.7
				c-1.2-7.2-0.8-14.6-2.4-21.8c-1.5-7.1-0.7-14.2,0.4-21.2c1.2-8.2,2.1-16.5,2.7-24.9c1.1-16.3,4.6-32.3,8.9-48
				c2.8-10.4,4.5-20.9,4.7-31.7c0.1-5.5,0.5-10.9,0.8-17.3c-2.4,3.7-3.5,6.9-4.7,10.1c-3.6,9.1-6.7,18.3-11.5,26.8
				c-1.4,2.5-2.8,4.9-4.9,7.1c-2.9,3-3.5,7.9-1.8,11.7c1,2.3,1.8,4.6,2.5,7c0.3,1.2,0.7,2.9-0.9,3.7c-1.6,0.8-2.5-0.5-3.5-1.4
				c-0.5-0.5-0.9-1.1-1.6-1.8c-1.9,3.2-1.6,6.4-1.6,9.6c0,2.6-2.8,6.4-5.3,6.7c-3,0.4-3.7-2.6-5.4-4c-4.2-3.4-4.6-8.3-3.9-13.3
				c0.6-3.8,1.1-7.7,2.7-11.3c3.8-8.6,3.3-18.1,5.5-26.9c3.4-14,6.8-28.1,13.7-41c1.8-3.3,3-6.8,4.8-10.1
				c4.6-8.3,12.1-13.1,20.9-15.8c2.4-0.8,3.4-1.5,2.7-4.3c-0.7-2.8-1.4-5.8-1.1-8.9c-0.3-1.9-1.2-3.8,0.6-5.5c2.2,2.1,1.7,5,2.2,7.6
				c0.2,1.3,0.5,2.7,0.6,4c-0.1,2.5,1.3,4.9,0.9,7.5c-1,1.7-2.9,1.2-4.3,2c-1.8,0.5-3.7,0.9-5.4,1.7c-3.7,2-7.3,4.2-10.5,6.9
				c-1.1,0.7-1.4,1.9-1.9,2.9c-0.1,0.3-0.3,0.6-0.5,0.8c-0.6,0.7-1.3,1.3-1.9,2c-0.3,0.4-0.5,0.7-0.7,1.1c-0.3,0.5-0.5,1-0.8,1.5
				c-0.2,0.5-0.4,1-0.6,1.6c-0.1,0.4-0.2,0.8-0.4,1.2c-0.2,0.6-0.5,1.1-0.6,1.7c-0.2,0.9-0.1,2-0.8,2.8c-3.5,4.8-5.7,10.2-7.1,15.9
				c-2.2,8.8-5.8,17.2-7.6,26.1c-0.7,2.1-0.3,4.2-0.5,6.4c0,0.6-0.1,1.2-0.2,1.7c-0.6,1.5-0.5,3-0.5,4.5c0,1.6-0.3,3-0.9,4.5
				c-0.8,1.6-1.2,3.4-1.7,5.2c-0.2,0.7-0.5,1.4-0.7,2c-0.8,2.6-1.6,5.1-2.1,7.8c-0.1,0.7-0.4,1.4-0.5,2.1
				c-1.4,5.5-1.1,10.6,3.5,14.6c0.8,0.7,1.4,1.9,2.8,1.4c1.4-0.5,2.2-1.6,2.3-3.1c0.3-3.2,0.4-6.4,1.5-9.5c0.3-0.8,0.6-1.7,1.1-2.4
				c2.7-2.3,3.5,0.8,5.1,1.7c-0.4-3.4-2.8-6.2-3.7-9.6c-0.1-0.7,0.1-1.4,0.2-2c0.4-1.9,1-3.9,1.5-5.8c1-1.3,2-2.6,2.9-3.9
				c0.7-0.7,1.4-1.2,1.9-2.1c0.2-0.4,0.5-0.8,0.7-1.2c0.3-0.6,0.6-1.2,0.9-1.8c0.3-0.7,0.6-1.3,1-2c3.8-7.2,6.6-14.8,9.4-22.4
				c2-5.1,4.3-10.1,6.5-15.1c0.6-1.3,1.2-3.4,2.8-3c1.9,0.4,1.4,2.6,1.4,4.1c0.2,8.7-0.9,17.4-1,26.1c-0.7,2.1-0.6,4.2-0.3,6.3
				c-0.3,3.7-2.2,7.3-1.6,11.1c0,0.8-0.3,1.5-0.6,2.2c-1.7,3.5-2,7.5-3,11.2c-3.9,14.3-6.7,28.8-7.7,43.7c-0.2,3.6-0.8,7.2-1,10.8
				c-0.3,1.2-0.7,2.3-0.6,3.6c0,1-0.1,2-0.3,3c-0.5,1.3-0.5,2.7-0.5,4.1c-0.1,2.5-0.7,4.9-1,7.4c-0.7,4.9-0.8,9.8,0.1,14.7
				c1.4,6.6,1.8,13.4,2.3,20.1c0.2,2.1,0.1,4.2,0.1,6.3c0,2.5-1,4.8-2,7.1c-1.3,2.8-2.1,5.8-1.9,8.9c0.1,1,0.1,2.1,0.8,3
				c1,1.5,2.6,1.9,4.1,2.2c4.4,0.8,8.8,0.3,13.1-0.4c1.5-0.2,2.9-0.7,3.2-2.5c0.1-0.6,0.1-1.1,0.2-1.7c0.4-2.5,0-5-0.7-7.3
				c-1.1-3.4-1.2-6.8-0.7-10.3c0.5-1.7,1.4-3.1,2.1-4.7c0.5-1,0.8-2.1,1.7-2.8C137.8,264.3,138.3,264.4,137.9,265.2z"/>
			<path class="st1" d="M137.9,265.2c-0.2-0.3-0.5-0.5-0.7-0.8c-0.8-0.8-0.7-1.8-0.5-2.8c0.9-4.2,1.2-8.6,2.6-12.7
				c0.6-1.3,1.8-2.2,2.3-3.5c2.1-4.7,2-9.7,2.6-14.7c0.2-1.7,0.2-3.5,0.8-5.2c0.1-0.6,0.1-1.2,0-1.8c0-0.8,0-1.6,0-2.4
				c0-0.6,0-1.3,0-1.9c0.1-12,1.6-23.9,3.9-35.6c1-2.5,1.3-5.3,3-7.5c1.3-0.9,2.7-0.8,4.2-0.8c0.6,0,1.2,0.1,1.8,0.3
				c0.7,0.3,1.4,0.7,1.9,1.3c0.8,2.3,1,4.7,1.7,7c-0.3,5.4,0.4,10.7,1.6,16c1.8,8,1.1,16,0.9,24.1c-0.3,13.7-0.4,27.7,6.1,40.5
				c0.4,1.2,1.3,2.2,1.6,3.4c1.3,4.9,1.7,9.7-1.1,14.3c-1.1,1.8-1.2,4-1.8,6c-0.2,0.6-0.5,1.2-1.1,1.5c-1.7-1.1-0.8-2.6-0.6-4
				c-0.1-1.8,0.4-3.5,1.3-5c2.8-4.8,2.4-9.4-0.2-14.1c-3.9-7-5.6-14.6-6.2-22.5c-0.7-9.9-1.4-19.9-0.2-29.8
				c0.8-6.8-1.9-13.3-2.4-19.9c-0.3-4.3-0.9-8.7-1.3-13c-0.1-1.5,0.1-3.1-2-3.5c-2.1-0.4-2.8,1-3.3,2.7c-2,6.6-2.8,13.3-3.8,20.1
				c-1.9,13.9-0.4,28.1-3.6,41.8c-0.6,2.4-0.9,4.8-3.1,6.5c-1.2,0.9-1.1,2.7-1.4,4.1C140.2,257.4,139.7,261.5,137.9,265.2z"/>
			<path class="st2" d="M137.1,43.2c-1.3,1.6-0.4,3.5-0.7,5.3c-1.2-5.6-1.3-11.1,0-16.7c0.1,0.6,0.2,1.3,0.8,1.6
				C139,36.7,139,39.9,137.1,43.2z"/>
			<path class="st3" d="M189.6,110.7c-1.4-2.4-0.3-5-0.9-7.8c1.4,0.7,1.6,1.6,1.6,2.5C188.9,107.1,190,109,189.6,110.7z"/>
			<path class="st2" d="M167.1,286c0.3,1.3-0.4,2.8,0.8,3.9c0.3,0.2,0.5,0.5,0.6,0.9c0,0.6-0.1,1-0.5,1.4c-0.3,0.3-0.5,0.6-0.8,0.9
				C165.9,290.7,166,288.4,167.1,286z"/>
			<path class="st4" d="M169.4,265.9c-4.1-7.2-5.6-15.1-6-23.2c-0.5-9.3-1-18.6-0.1-27.9c0.7-7.1-1.7-13.8-2.5-20.6
				c-0.3-3-0.7-5.9-0.8-8.9c0-0.6,0.8-1.2,1.2-1.8c0.2-1.2,1.3-1.8,2.2-2.4c9.6-5.9,18.6-12.5,24.8-22.1c0.3-0.5,0.9-0.9,1.5-1
				c1.4,4.6,2.5,9.4,2.2,14.2c-0.5,8.9,1.7,17.6,1.9,26.4c0.3,8.7,1.9,17.3,1.8,26.1c0.4,1.3,0.8,2.7-0.3,3.9
				c-2.3-0.3-0.4-4-3.1-3.9c-1.9,0.1-3.5,1.3-5.3,1.6c-0.5,0.1-1,0.1-1.5,0.2c-4.9,1.3-9.6,0.3-14.3-0.9c-4.7-1.2-6-0.3-6,4.4
				c0.1,3.7-0.5,7.4,0.4,11.1c0.3,1.8,0.5,3.7,0.9,5.5c1.2,5.6,2.5,7.2,8.3,7.7c3.6,0.3,7.2,0.5,10.8-0.3c2.2-0.4,4.3-1,6.3-2
				c1.2-0.6,2.3-0.8,1.6,1.2c-1,4.2-2,8.5-3.1,12.7c-0.6,0.6-1.3,1.3-2.1,1.4C181.9,267.6,175.5,269.2,169.4,265.9z"/>
			<path class="st4" d="M201,137.6c-2.9-12.9-6.4-25.6-11.1-37.9c-0.3-0.9-0.4-2.3-1.6-2.1c-1.3,0.2-0.9,1.6-0.8,2.5
				c0.8,10.8,0.8,21.7,0.7,32.5c0,1.4,0.6,3-0.7,4.3c-2.1-1.6-2.2-4.2-2.4-6.4c-1.9-15.3-1.5-30.6,2-45.7c1.1-4.6,2.1-9.3,3.7-13.7
				c0.6-1.5,0.9-3.2,2.7-3.8c5.3,2.5,9.7,6.1,12.7,11.2c-0.6,2.6-2.9,2.3-4.7,2.5c-1.9,0.2-2.3,0.8-1.9,2.6
				c0.9,4.4,2.4,8.6,4.1,12.7c0.8,1.8,2.2,2,3.9,2.1c2.3,0.1,4.8-0.8,6.8,1.1c0.6,9.2,3,18,4.2,27.1c0.4,3.4,1.3,6.8,1,10.3
				c-0.6,0.6-1.5,1.2-2.3,1c-4.9-1.2-9.7-0.2-14.6,0.5C202,138.4,201.5,138,201,137.6z"/>
			<path class="st4" d="M137.1,43.2c0-3.3,0-6.5,0-9.8c3.1-10.1,8.8-17.8,19.7-20.4c15.3-3.7,28.3,4.7,31.4,20.2
				c1.5,7.4,0.1,14.6-1,21.8c-0.1,0.8-0.9,1.4-1.4,2.1c-0.4,1.2-1.4,1.7-2.5,2.1c-12.6,3.9-25.3,5.2-38,0.4c-2.5-1-5.2-1.8-6.7-4.4
				C138.1,51.2,137.6,47.2,137.1,43.2z"/>
			<path class="st4" d="M159.7,177.5c-0.5-0.3-1.1-0.6-1.6-0.8c-1.5-2.3-1.8-4.6,0.2-6.9c0.6-0.1,1.2,0.2,1.8,0.3
				c7.2,1.2,9.6-0.9,9.7-8.2c0-3.2-0.3-6.5,0.6-9.7c0.6-2.3-0.2-3.8-2.8-4.2c-1.5-0.2-3-0.3-4.5-0.3c-1.5-0.1-3,0-4-1.5
				c-1.5-6.7-0.9-13.4-0.5-20.1c0.3-5.9,0.5-11.7,0.6-17.5c0-1.7-0.1-3.5,0.7-5.1c1.1-1.5,2.8-1.4,4.4-1.5c3.6-0.1,7.3,0.2,10.9-0.2
				c3.1-0.3,4.3,1.1,4.4,4c0.1,4.7,0.1,9.5,0.6,14.2c1,8.6,2.4,17.1,7.2,24.6c0.6,0.9,0.8,1.8,0.7,2.9c1,1.2,0.6,2.5,0.1,3.7
				c0.6,1.7-0.4,2.9-1.2,4.1c-6.1,9.7-15.1,16.3-24.8,22C161.4,177.8,160.6,178.1,159.7,177.5z"/>
			<path class="st5" d="M188.1,147.5c-6.1-7.3-7.7-16.2-9-25.3c-0.7-5.4-1-10.9-0.8-16.4c0.1-2.3-0.2-3.2-3-2.9
				c-4.9,0.5-9.9,0.8-14.9,0.1c-1.6-1.4-1.1-3.1-0.9-4.8c0.3-1,0.6-2,1.5-2.7c3.8-0.5,7.6-0.6,11.3-0.8c5.2-0.2,5.2-0.1,6.1-5.1
				c0.1-0.6,0.2-1.2,0.1-1.8c0-0.4,0-0.8,0.1-1.2c1.6-5.2,2.4-10.7,4.1-15.8c0.7-2.1,1-4.4,3.2-5.7c3.2-1.6,5.2,0.8,7.5,2.2
				c-8.3,22.7-10.6,45.9-6,69.7C187.8,140.4,190.2,143.8,188.1,147.5z"/>
			<path class="st4" d="M168,288.4c-0.1-1.9,0.3-3.9,1.2-5.3c3.3-4.7,2.6-9.8,1.7-14.9c4.2-1.6,5.4-0.6,5,3.8
				c-0.3,3.7-1.1,7.5,2.6,10.2c1.6,1.2,3.1,2.9,5.3,1.6c2.3-1.3,3.6-3.4,3.2-6.2c-0.4-2.7-1.3-5.3-1.4-8.1c0-2.2,1.8-2.3,3.2-2.2
				c1.8,0,1.3,1.4,0.9,2.4c-0.2,3.9,0.2,7.6,2.4,11.1c1,1.5,1.4,3.4,1.4,5.3c0.7,4.8,0.4,5.5-4,6.8c-5.9,1.7-11.7,1.9-17.4-0.9
				C170.3,291.2,168.8,290.2,168,288.4z"/>
			<path class="st6" d="M179.1,87.3c1.4,2.5-0.3,4.9-0.2,7.4c0,1.1-1.3,1-2.1,1c-5.2-0.1-10.3,1-15.5,0.2c-0.9-0.7-1-1.6-0.8-2.6
				c0.5-1.3,1.3-2.7,0.2-4.1c-1-3.8-0.9-7.7-0.2-11.6c1.3-2.3,3.8-2,5.8-3c4.2-2.2,8.4-4.2,12.1-7.3c1.4-1.2,2.8-3.3,5.4-2.4
				c0.8,0.4,1.5-2.7,2.3,0c-2.3,6.2-4.2,12.5-5.4,19c-0.2,1.1-0.2,2.3-1.4,2.8c-0.6,0.1-0.9-0.3-1.1-0.8c-0.2-1.3-0.4-2.6-1.3-3.6
				c-3.7-3.9-6.1-4.1-10.2-0.8c-0.4,0.5-0.7,1-0.9,1.6c-0.5,1.2-0.6,2.4,0,3.6c2.4,4.7,6,5.6,10.3,2.6
				C176.9,88.5,177.4,87.1,179.1,87.3z"/>
			<path class="st4" d="M183.6,64.9c-5.5,3-9.9,7.7-15.9,9.9c-2.2,0.8-4.3,1.8-6.6,2.1c-1.5,0.5-3.1,0.7-4.6,1.2
				c-0.4,0-0.7-0.1-1-0.2c-5.8-2.6-10.5-6.4-13.8-11.8c-0.7-1.2-2.1-2.4-0.4-3.8c1.4-0.4,2.7,0.1,4,0.7c11,4.9,22.2,4.2,33.4,0.9
				c1.6-0.5,3.2-1.6,4.9-0.2C183.6,64,183.6,64.4,183.6,64.9z"/>
			<path class="st5" d="M183.6,63.5c-8.7,2.5-17.4,4.9-26.7,3.7c-4.4-0.6-8.5-1.8-12.5-3.4c-1.1-0.5-2.1-1.4-3.5-1
				c-0.3,0.1-0.5,0.1-0.7-0.2c-0.5-2.5-1-5-1.5-7.4c15.4,8.8,31.2,7.6,47.2,2C186.7,59.9,186,62,183.6,63.5z"/>
			<path class="st5" d="M159.7,177.5c11.5-6.6,22.2-14,28.5-26.3c2.8,1.7,1,4.5,1.5,6.7c-6.7,11.7-17.2,19-28.5,25.5
				C158.3,182,159.7,179.6,159.7,177.5z"/>
			<path class="st4" d="M219.6,164.7c2.3,7.1,0.4,13.5-5.4,18c-1.2,1-5.1-1.5-5.1-3.5c0.1-3.1-0.5-6.2-0.9-9.2c-0.7-1.2,0-2.1,1-2.3
				C212.8,166.9,216,165.1,219.6,164.7z"/>
			<path class="st4" d="M217.4,154.9c1,1.9,1.1,4,1.5,6c1,2.4-0.4,3.8-2.4,4.7c-2.8,1.3-5.7,2.4-8.9,2.1c-0.8-1.4-1.5-2.9-3.1-0.5
				c-0.7,1.1-1.3,2.7-3.5,3.4c0.7-5.1,2.5-9.2,5.9-12.7C210,155.6,213.7,155.3,217.4,154.9z"/>
			<path class="st4" d="M210.6,85.2c1.6,3.8,2.6,7.8,3.1,12c-2.6,3-9.1,2.6-10.5-0.8c-1.5-3.8-3.2-7.6-3.6-11.7
				c0.1-0.2,0.3-0.6,0.3-0.6C203.4,85.2,207.2,83.2,210.6,85.2z"/>
			<path class="st7" d="M189.7,269.7c0.1-1.4-0.4-2-2-1.6c-1.1,0.3-1.4,0.6-1.2,1.7c0.5,2.2,0.8,4.4,1.2,6.6c0.9,4-1.4,8.4-4.6,9
				c-2.9,0.5-8.2-3.9-8.5-7.2c-0.1-1.9-0.5-3.9,0.1-5.6c1.4-4.1-0.3-4.9-3.8-4.4c-0.5-0.8-1-1.5-1.5-2.3c7,1.1,13.9,1.3,20.9,0
				C190.2,267.2,190.8,268.6,189.7,269.7z"/>
			<path class="st8" d="M206.8,156.4c-0.2-2.5-3.5-5.3,0.8-7.4c3.1-2.1,6.1-2,9,0.2c0.8,4.6,0.2,5.7-4,6.8
				C210.8,156.5,208.8,156.9,206.8,156.4z"/>
			<path class="st9" d="M168,288.4c6.3,4.6,13.2,5.7,20.7,3.7c3-0.8,5.6-2,4.8-6c1.4,2.2,0.5,4.5,0.6,6.8c-7.5,4.2-15.2,4.8-23,0.8
				c-1.4-0.7-2.5-1.6-3.1-3c0-0.3-0.1-0.5-0.1-0.8C167.9,289.4,167.9,288.9,168,288.4z"/>
			<path class="st10" d="M216.6,149.6c-3-1.1-6-0.7-9-0.5c-3,0.6-3.4-1.9-4.4-3.8c3.1-2.6,8.8-2.9,12.6-0.8c2.6,1,1.2,3.2,1.5,4.9
				C217.3,150,217,150.1,216.6,149.6z"/>
			<path class="st11" d="M167.9,290.7c6.8,5.1,14.3,5.6,22.2,3.1c1.3-0.4,2.6-0.6,3.9-0.9c-1.2,3.6-4.6,3.5-7.4,4
				c-6.9,1.1-13.7,1.2-18.8-4.8C167.9,291.7,167.9,291.2,167.9,290.7z"/>
			<path class="st12" d="M193.4,253.2c-0.1-0.6-0.1-1.2-1-0.5c-1.9,1.4-4.1,2-6.5,2c-0.9,0.5-1.6,0.5-1.6-0.8
				c0.3-0.4,0.7-0.8,1.1-0.9c5.3-1,6.7-4.6,7.2-9.4c0.5-4.5,0.4-8.9,0.5-13.4c0.1-3.1-0.4-4.7-4.1-3.2c-0.5,0.2-1,0.1-1.5,0
				c-0.8-0.2-1.7-0.4-1.5-1.6c1.1,0.1,2.1-0.4,3.2-0.8c5.4-2.2,5.8-2,5.8,3.8c1.5,3.8,0.6,7.8,0.5,11.7c0,1.6-0.4,3.2,0.1,4.8
				C194.8,247.6,194.9,250.6,193.4,253.2z"/>
			<path class="st13" d="M200.1,84.4c0.6,3.9,2.2,7.5,3.5,11.3c0.8,2.4,2.5,3.7,5.2,2.5c1.6-0.7,3.5,0.4,4.9-1
				c0.8,0.6,0.7,1.5,0.6,2.3c-0.6,0-1.2,0-1.9,0c-9.2,0-9.2,0-12.1-8.7c-0.2-0.6-0.4-1.2-0.6-1.8c-0.6-2.5-2.1-5.2-1.6-7.6
				c0.6-3.2,4.5-0.5,6.4-2.1c0.5-0.4,1-0.6,1.6-0.9c1,0.5,1.7,1.3,2.2,2.3c-1.9,1.7-4.2,0.9-6.3,1.2
				C200.4,81.9,199.8,82.8,200.1,84.4z"/>
			<path class="st14" d="M215.8,144.5c-4.2-0.2-8.4-0.4-12.6,0.8c-0.8-0.6-0.9-1.5-0.9-2.4c0.8-1.9,2.6-2.3,4.3-2.4
				c3-0.3,6-0.2,8.9,0c1.4,0.1,3.2,0.1,2.6,2.5C218.1,144.6,216.8,144.3,215.8,144.5z"/>
			<path class="st11" d="M200.9,80.7c2.5,0,5,0,7.5,0c1,0.8,1.4,1.8,1.6,3c-2.9,2.4-8.2,1.8-9.7-1.1
				C199.8,81.7,200.2,81.1,200.9,80.7z"/>
			<path class="st15" d="M201,137.6c6.1-1.3,12.3-1.9,18.6-0.8c0,1.1,0.4,2.2-0.6,3.1c-4.6-1.2-9.2-1.2-13.8-0.4
				c-1.2,0.2-2.4,0.6-3.5-0.4C201.4,138.7,201.2,138.1,201,137.6z"/>
			<path class="st11" d="M201.7,139.2c5-0.7,10-2.2,15.2-0.8c1,0.3,1.9,0.3,2.1,1.6c0,0,0,0,0,0c-1.4,1.1-3.1,0.6-4.6,0.7
				c-3.4,0.2-6.9-0.4-10.2,0.7c-0.8,0.3-1.7,0-2.4-0.7C201.7,140.1,201.7,139.7,201.7,139.2z"/>
			<path class="st12" d="M201.7,140.6c5.7-0.9,11.5-0.8,17.2-0.7c-0.1,1,0.2,2.2-0.7,3c-0.2-0.7-0.5-1.5-1.4-1.5
				c-4.8,0.1-9.8-1-14.4,1.4C202.2,142.2,201.9,141.4,201.7,140.6z"/>
			<path class="st16" d="M195.6,244.9c-1.6-5.4-0.3-11-0.7-16.5c1.2-1.1,0.5-2.5,0.8-3.8c1.5,5.1,0.7,10.3,0.4,15.4
				C196,241.7,195.7,243.3,195.6,244.9z"/>
			<path class="st13" d="M207.6,167.7c2.8-1.1,6-1.2,8.7-2.8c1.6-1,2.8-2,2.6-4c1.1,1.1,0.6,2.5,0.7,3.8c-2.2,1.7-4.7,2.5-7.4,3.2
				c-1.3,0.4-3.5-0.2-3.9,2.1C207.6,169.4,207.6,168.5,207.6,167.7z"/>
			<path class="st13" d="M216.6,149.6c0.2-0.1,0.4-0.2,0.7-0.2c0,1.8,0.1,3.7,0.1,5.5c-3.2,2.1-7,2.2-10.6,3c0-0.5,0-1,0-1.4
				c1.5-0.3,3.1-0.5,4.6-0.8C214.6,154.9,217.4,153.7,216.6,149.6z"/>
			<path class="st17" d="M200.9,80.7c-1,2.2,0.9,3.2,2.2,3.5c2.2,0.4,4.7,0.9,6.8-0.5c0.5,0.4,0.7,0.9,0.7,1.6
				c-1.9,0.1-3.9-0.4-5.7,0.6c-2.1,1.1-3-1.7-4.8-1.3C199.1,82.9,198.6,81.5,200.9,80.7z"/>
			<path class="st4" d="M149.8,183.6c-1,8.2-1.8,16.5-3.2,24.7c-0.7,4-0.2,7.9-0.5,11.9c-1.3,1.3-3,0.9-4.6,1.1
				c-5.1,0.5-6.7,2.1-7.4,7c-0.2,1.4-0.4,3-1.4,4.1c-0.6,0.3-1.1,0.3-1.7,0.1c-1.4-1.6-1.1-3.6-0.6-5.3c0.6-2-0.3-3-2-3.7
				c-3.5-1.6-6.9-3.4-10.3-5.1c-1.6-0.9-3.1-1.8-2.1-4c0.5-17.9,3.5-35.5,7.6-52.9c0.2-1,0.5-1.9,1.4-2.5c1,0.1,1.6,0.7,2,1.5
				c5.4,8.9,12.6,16,21.3,21.7C149.1,182.3,149.6,182.8,149.8,183.6z"/>
			<path class="st4" d="M130.3,128.6c-0.4-10,1.4-19.9,0.6-31c-3.5,6.6-5.9,12.6-8.3,18.7c-3.2,8-5.7,16.2-10.2,23.6
				c-1.2,0.8-2.4,0.3-3.6-0.2c-2.7-1-5.4-1.9-8.2-2.4c-4.4-0.9-4.4-0.8-4.3-5.4c0-0.6,0-1.2,0.3-1.8c0-0.9-0.1-1.8,0.2-2.6
				c4.7-12.2,6.4-25.5,12.7-37.2c0.7-1.2,1-3,2.9-2.9c2.1-0.9,3.4,2.5,5.6,1.2c0.2-0.4,0.5-0.7,0.9-0.9c0.4-0.2,0.8-0.4,1.2-0.6
				c0.6-0.4,0.9-0.9,1.2-1.4c0.1-0.3,0.3-0.5,0.5-0.8c0.5-0.7,1-1.5,1.5-2.4c0.7-1.2,1.4-2.3,2.1-3.5c0.5-0.8,0.3-1.5-0.5-1.9
				c-0.5-0.3-1.1-0.7-1.7-1c-1.5-0.9-3.2-1.5-3.4-3.5c2.6-3.7,7-5.1,10.5-7.6c1.5,1.1,1.9,2.9,2.3,4.6c4.8,19.2,4.7,38.5,0.6,57.8
				c-0.3,1.3-0.6,2.7-1.8,3.6C129.2,130.9,130.1,129.7,130.3,128.6z"/>
			<path class="st4" d="M128.1,147.4c0.2-0.6,0.4-1.1,0.7-1.7c0-1.5,0.4-2.9,1.1-4.3c5.5-10.1,8.2-21.1,9.8-32.4
				c0.1-0.9,0.2-1.7,0.4-2.6c0.9-4.7,2-5.6,6.9-5.1c1,0.1,2,0.3,3,0.4c2.5,0.3,4.8,0.3,5.2-3.1c0.1-0.8,0.3-2.2,1.9-1.5
				c1.3,3.3,1.3,6.7,0,10c-1.5,3.2-0.8,6.4-0.2,9.6c0.3,2.8,0.8,5.7-0.5,8.4c-1.6,2.4-0.7,4.9-0.2,7.4c0,4.7,0.3,9.4-1.3,13.9
				c-2.5,1.1-4.8,0.5-7-0.8c-0.6-1.7,1-2.4,1.6-3.5c1.5-2.7,1.3-5.1-0.8-6.6c-2-1.4-5.2-1.1-6.8,0.7c-1.7,1.9-1.5,4.7,0.5,6.7
				c1.1,1.1,2.9,1.6,2.9,3.6c-0.3,5.8-0.1,11.6-0.1,17.4c0,1.2,0.1,2.5-0.5,3.7c-1,1.4-2.1,0.6-2.9-0.2
				c-5.6-5.3-10.2-11.3-13.7-18.2C127.6,148.9,127.6,148.1,128.1,147.4z"/>
			<path class="st5" d="M156.5,97c-0.1,0.2-0.3,0.4-0.3,0.7c-0.9,6-0.9,6-7.2,5.2c-7.3-0.9-7.1-0.8-8.2,6.3
				c-1.8,12.9-5,25.4-12.1,36.6c-1.5-4,0.8-7.5,1.5-11.2c-0.6-1.4-0.1-2.6,0.8-3.7c5.5-22,5.2-44-0.7-66c1.9-0.7,3.7-1.9,5.9-1.4
				c1.7,0.7,2.2,2.3,2.7,3.8c2.2,6.4,3.6,13,3.8,19.8c0.2,6,0.2,5.9,6.2,7c2.5,0.5,5.3-0.3,7.5,1.7C156.8,96.2,156.8,96.6,156.5,97z
				"/>
			<path class="st4" d="M140.1,248.7c-1,5.2-2,10.5-2.9,15.7c-0.3,1-0.6,2-0.8,3c-1.7,1.4-3.7,1.9-5.9,1.9c-4.9-0.1-9.9,0-14.3-2.6
				c-1.9-4.2-0.1-8.9-1.4-13.2c-0.7-2.2-0.6-4.6-0.9-7c-0.3-3.6,0-3.9,3.1-2.6c2.5,1,4.9,2.5,7.4,3.6c2.1,0.9,3.3,0.8,3.8-2
				c0.6-3.2,0.1-6.8,2.3-9.7c0.9-0.4,1.6-0.1,2.1,0.8c0.5,1,0.5,2,0.5,3.1c0,1.2,0,2.4-0.2,3.5c-0.1,0.6-0.4,1.2-0.5,1.8
				c-0.4,3.6,0,4,3.5,3.3C138.6,247.6,138.6,247.6,140.1,248.7z"/>
			<path class="st4" d="M156.5,96.6c-3.2-1.8-6.7-1-10.1-1.6c-3.1-0.6-4.8-1.4-4.7-5.1c0.2-9.2-1.9-18-5.5-26.4
				c1.1-1.3,2.5-1.3,3.9-0.9c0.2,0,0.5,0.1,0.7,0.2c3.2,5.8,7.3,10.8,13.7,13.3c0.8,0.3,1.2,0.8,1.3,1.6c2.1,3.2,0.5,6.9,1.2,10.3
				c0.1,0.4,0.1,0.7,0.1,1.1c-0.7,1.3-0.7,2.6,0.2,3.8c0.2,0.5,0.3,1.1,0.2,1.7C157.4,95.4,157.3,96.1,156.5,96.6z"/>
			<path class="st5" d="M128.1,147.4c3.6,8.3,9.3,15,15.7,21.2c0.8-0.1,1.4,0.3,1.9,0.7c2.1,2.5,5.2,4,6.2,7.4
				c-0.1,2.5-0.8,4.7-2.2,6.8c-10.7-5.9-18.5-14.5-24.7-24.9C125.3,154.7,125.9,150.9,128.1,147.4z"/>
			<path class="st4" d="M113.8,231.4c0.3-2.5,0.6-4.9,0.8-7.4c1.5-0.6,2.7,0.2,3.7,1.2c1.8,2,3.9,2.3,6.4,2.3c6.3,0,6.6,0.1,5.7,6.1
				c-0.7,4.1-1.4,8.3-2.1,12.4c-0.4,2.3-1.6,2.9-3.7,2c-1-0.4-2-1-3-1.4C112.9,242.3,112.4,241.3,113.8,231.4z"/>
			<path class="st4" d="M112.4,289.2c-0.9-3.2,0.2-6,1.5-8.8c1-2.2,2.2-4.4,2.4-6.9c0.6-1.2,0.2-2.4,0.3-3.7c0-1.1,0.2-2.1,1.5-2.1
				c1.2,0,1.7,0.9,1.9,1.9c0.5,2.5-0.4,4.9-1,7.3c-0.7,2.6-0.1,4.5,2.4,5.9c4,2.4,9.2-0.2,9.5-4.8c0.1-1.6-0.2-3.2-0.5-4.8
				c-0.2-1.2-0.2-2.5,0.7-3.5c0.6-0.7,1.5-0.9,2.4-0.5c1,0.4,1.3,1,0.8,2c-0.8,5.1,0.8,9.9,1.8,14.8c0.3,1.4,0.3,2.7-0.4,3.9
				C129.8,294.8,117.8,294.4,112.4,289.2z"/>
			<path class="st4" d="M101.1,167.7c-0.4,3.4-1.5,6.7-1.1,10.3c0.3,2.5-2.4,2.9-3.7,4.2c-1.1,1.1-1.5-0.9-2.4-1.5
				c-6-4.3-6.3-10.2-4.8-16.6C93.3,164.8,97.5,165.4,101.1,167.7z"/>
			<path class="st4" d="M103.4,157.2c2,3.8,4.2,7.5,4.6,12.1c-2.1,0-2.2-1.8-3.1-2.6c-0.8-0.7-1.3-2.4-2.9-1.2
				c-4,1.7-9.3,0.3-12-3.1c-0.1-3,1.1-5.6,2.2-8.3C96,154.5,99.6,156.1,103.4,157.2z"/>
			<path class="st12" d="M113.8,231.4c0,0.5,0,1,0,1.5c0,9.9,1.9,12.3,11.4,14.7c1.2,0.3,2,0.1,2.2-1.1c0.9-5.6,1.7-11.2,2.6-16.9
				c0.2-1-0.7-1.1-1.5-1.2c-0.7,0-1.5-0.1-2.2,0c-3.6,0.2-7,0.2-9.3-3.2c-0.4-0.6-1.5-0.9-2.2-1.3c0.1-1.3-0.5-2.7,0.7-3.9
				c1.5,1.3,2.4,3.1,4,4.4c3,2.3,5.8,2.7,9.6,1.1c-4-3.8-10-4.1-13.4-8.4c0-1.1-0.4-2.2,0.6-3.1c-0.2,1.7,0.9,2.4,2.2,3
				c3.8,1.8,7.5,3.9,11.3,5.5c2.1,0.9,2.7,2,1.9,4c-0.7,1.8-0.4,3.7-0.5,5.5c0.7,1.4,0.2,2.6-0.7,3.8c-0.5,3.8-1,7.6-1.6,11.4
				c-0.3,2.1-1.6,2.4-3.3,1.6c-3.1-1.4-6.2-2.7-9.1-4.3c-2.5-1.4-2.7-0.1-2.6,1.8C112.7,241.4,112.7,236.4,113.8,231.4z"/>
			<path class="st13" d="M134.2,271.2c-0.2-1.2-0.9-1.7-2.1-1.4c-0.9,0.3-1,1.1-0.9,1.8c0.2,1.3,0.5,2.7,0.7,4
				c0.6,3.7-0.6,6.3-3.9,8.4c-3.4,2.1-5.8,0.7-8.4-1.2c-1.9-1.3-2.4-3-1.8-5.2c0.6-2.3,1.1-4.6,1.5-6.9c0.1-0.9,0.4-2.3-1-2.4
				c-1.5-0.2-1.1,1.3-1.2,2.2c-0.1,1,0.2,2-0.7,2.8c0-2.3,0-4.5,0-6.8c3.7,0.5,7.3,1.1,11,1.5c3.1,0.3,6.2,0.1,9.2-0.7
				C135.6,268.7,134.9,269.9,134.2,271.2z"/>
			<path class="st4" d="M115.5,217.2c4.6,2.2,9.1,4.5,13.7,6.7c0.8,0.4,1.2,0.9,1.1,1.7c-0.1,1-0.6,1.6-1.5,1.9
				c-5,1.9-12.3-2.1-13.5-7.4C115.4,219.1,115.4,218.2,115.5,217.2z"/>
			<path class="st11" d="M92.8,152.7c0-1.9,0.4-3.8,1.6-5.3c3.9-1,7.4-0.3,10.4,2.4c1.1,2.1-0.9,3.8-0.8,5.8
				C100,157.1,95.9,156,92.8,152.7z"/>
			<path class="st18" d="M104.8,149.8c-3.5-0.8-6.9-1.6-10.4-2.4c0.2-1.4,0.5-2.9,0.7-4.3c0.2-0.3,0.6-0.6,1-0.7
				c4.1,0.4,8.4,0.4,11.7,3.6C107.4,147.8,106.5,149.1,104.8,149.8z"/>
			<path class="st9" d="M112.4,289.2c7.6,4,15.4,3.6,23.3,0.8c0,0.5,0,1,0,1.5c-0.5,0.9-1.3,1.7-2.2,1.9c-6.9,1.8-13.8,2.8-20.3-1.2
				C112.1,291.4,112.5,290.2,112.4,289.2z"/>
			<path class="st11" d="M107.8,146c-4-1-7.9-2.1-11.9-3.1c-1-2.5-0.2-4.1,2.5-3.8c4.3,0.5,8.6,1.2,11.8,4.6
				C110,145.1,109.2,145.8,107.8,146z"/>
			<path class="st19" d="M113.1,292.2c5.3,1.4,10.6,3.2,16.3,1.5c2.1-0.6,4.2-1.3,6.2-2.3c-0.2,2-1.4,2.7-3.2,3.1
				c-4.8,0.9-9.6,1.4-14.4,0.6C116.1,294.8,114.1,294.2,113.1,292.2z"/>
			<path class="st7" d="M96.6,130.1c0,1.4,0,2.7,0.1,4.1c0,1.2,0.5,1.9,1.8,1.9c5,0.1,9.4,2.3,14,3.8c-0.3,0.5-0.5,1-0.8,1.5
				c-0.2,0.1-0.5,0.4-0.7,0.3c-5-1.6-10.2-2.4-15-4.8C96.1,134.7,95.3,132.3,96.6,130.1z"/>
			<path class="st12" d="M110.1,143.7c-3.5-1.2-6.8-3-10.5-3.6c-2.2-0.4-4.1-0.3-3.7,2.8c-0.2,0.1-0.5,0.1-0.7,0.2
				c0.2-1.6-0.6-3.3,0.7-4.6c5.6-0.6,10.6,0.8,15,4.5C110.6,143.1,110.4,143.4,110.1,143.7z"/>
			<path class="st13" d="M89.9,162.4c3.7,2.2,7.7,3.4,12,3.1c-0.1,0.8,0,1.7-0.8,2.2c-4.1-0.7-8.3-1.3-11.9-3.7
				C89.4,163.5,89.7,162.9,89.9,162.4z"/>
			<path class="st20" d="M110.8,142.9c-4.7-2.6-9.6-4.3-15-4.5c0-0.5,0.1-1,0.1-1.5c5.5,0.6,10.6,2.2,15.6,4.5
				C111.3,141.9,111.1,142.4,110.8,142.9z"/>
			<path class="st7" d="M92.8,152.7c3.5,1.9,7.1,3.3,11.2,3c-0.2,0.5-0.4,1-0.7,1.5c-4.2,0.5-7.8-1-11.3-3
				C92.3,153.6,92.6,153.1,92.8,152.7z"/>
			<path class="st21" d="M119.8,72.5c1.3,0.9,2.6,1.9,3.9,2.8c0.4,0.8,0.1,1.4-0.3,2.1c-0.8,1.1-1.8,1.9-3.2,1.4
				c-1.2-0.8-1.7-2.1-2.3-3.3C117.9,74.2,118.6,73.1,119.8,72.5z"/>
			<path class="st22" d="M122,85.6c-0.2,1-0.5,2-1.5,2.4c-2.5-1.9-5.7-2.8-7.3-5.8c0.2-0.5,0.5-1.1,0.7-1.6
				C117.4,81.1,120,82.9,122,85.6z"/>
			<path class="st23" d="M118.5,88.8c0.9,1.8,0.2,2.3-1.4,1.5c-1.6-0.8-3.1-1.9-4.6-2.9c-0.4-0.8-1.2-1.5,0-2.3
				c0.8-0.5,1.6-0.1,2.4,0.1c0.5,0.2,0.9,0.5,1.3,0.8C117,86.9,118,87.6,118.5,88.8z"/>
			<path class="st24" d="M123.6,82.9c0,1-0.5,1.7-1.3,2.3c-2.2-2.4-6-2.9-7.7-5.9c0.3-0.3,0.6-0.7,0.9-1c0.9-0.5,1.8-0.1,2.7-0.1
				c0.6,0.2,0.9,0.8,1.4,1.1c0.7,0.5,1.4,1.1,2.1,1.7C122.5,81.5,123.5,81.9,123.6,82.9z"/>
			<path class="st25" d="M114.6,79.2c2.5,2,6.2,2.6,7.7,5.9c-0.2,0.1-0.3,0.3-0.3,0.5c-2.7-1.7-5.4-3.3-8.1-5
				C114.2,80.2,114.4,79.7,114.6,79.2z"/>
			<path class="st26" d="M115.3,86.5c-0.2-0.2-0.4-0.4-0.6-0.6c-0.6-0.7-1.9-0.9-1.8-2.2c0.1-0.5,0.1-1,0.2-1.5
				c2.4,2,5.9,2.6,7.3,5.8c-0.4,0-0.9,0-1.3,0.1C117.8,87.8,116.7,86.9,115.3,86.5z"/>
			<path class="st27" d="M119.1,79.7c-0.8,0-0.7-0.6-0.8-1.2c-1-0.6-1.4-1.3-0.8-2.4c0-0.2,0.1-0.4,0.2-0.6c1.3,0.5,2.4,1.2,2.1,2.9
				C119.9,79,119.6,79.4,119.1,79.7z"/>
			<path class="st28" d="M131,130.9c-0.3,1.2-0.5,2.5-0.8,3.7c-1.1-2-1-4,0.1-5.9C130.4,129.4,130.2,130.3,131,130.9z"/>
			<path class="st29" d="M117.6,76.1c0.3,0.8,0.5,1.6,0.8,2.4c-1,0.5-1.9-0.1-2.8-0.3C115.5,76.8,116.8,76.8,117.6,76.1z"/>
			<path class="st30" d="M113,83.7c0.8,0.6,1.7,1.1,1.8,2.2c-0.8-0.3-1.6-0.6-2.4-0.8C112.6,84.7,112.8,84.2,113,83.7z"/>
			<path class="st31" d="M156.5,96.6c0-0.8,0.1-1.6,0.1-2.4c0.5-1.3,0.3-3.2,2.5-2.8c2,0.3,1.5,1.9,1.5,3.2c0,1.2,0.3,2.5-0.3,3.6
				c0,1.6,0,3.2,0,4.8c0.2,14.6-1.3,29.1-0.9,43.7c0,0.2,0.1,0.4,0.1,0.6c0.4,2.8,0.1,5.6,0.2,8.5c0,0.4,0,0.8,0,1.3
				c-0.1,4.2,0.7,8.4-0.6,12.5c-0.2,0.2-0.3,0.3-0.5,0.5c-1.5,2.1-0.4,4.5-0.8,6.8c-0.5,0-1-0.1-1.5-0.1c-3.2,0.1-4-1.6-4.2-4.7
				c-0.4-7.8,0.6-15.6,1-23.4c0.1-0.7,0.5-1.3,1-1.9c0.2-4.8,0.5-9.5,0.7-14.3c-0.6-2.2-0.6-4.5,0-6.7c1.5-2.9,0.4-6,0.7-9
				c-0.6-3-0.6-6,0-9c1.5-3.5,0.5-7.1,0.6-10.7C156.4,96.8,156.4,96.7,156.5,96.6z"/>
			<path class="st4" d="M146,225.5c-0.7,5.5-1.5,10.9-2.1,16.4c-0.2,1.7-0.8,3.1-1.6,4.5c-2.5,1.6-5.3,2-8.1,2.3
				c-3.8,0.4-1.9-2.7-2.3-4.4c0.3-1,0.3-2.1,0.4-3.1c0.5-3.4,0.2-6.8,1-10.2c0.5-2.1,0.8-3.5,3.4-3c2.2,0.4,4.1-0.2,5.9-1.5
				C143.6,225.8,144.7,225,146,225.5z"/>
			<path class="st4" d="M154.4,148.1c0.2,8-1.1,15.9-0.8,23.9c0.1,2.5,0.8,3.9,3.1,4.5c-1.5,0.1-3.1,0.2-4.6,0.3
				c-2.3-2.3-4.6-4.6-7-6.8c1.5-1.3,2.8,0.3,3.9,0.2c0.8,0.2,0.5-0.7,0.5-0.2c0,0.2-0.1,0.2-0.3,0.2c-3.2-0.4-4.8-1.9-4.5-5.4
				c0.2-2.6,0.4-5.2-0.3-7.8c0.2-3.5,0.2-3.5,5.7-2.5c-5.1-1-5.7-1.6-5.4-5.2c0.2-1.7,1-2.7,2.6-2.5
				C149.6,147.1,152.2,146.7,154.4,148.1z"/>
			<path class="st4" d="M146.2,221.6c0,0.8,0,1.5,0,2.3c-2.6,2.8-5.3,5.5-9.8,4.4c-1.4-0.4-2.4-0.9-2.7-2.6
				c-0.2-1.6,0.6-2.3,1.8-2.8C138.9,221.5,142.3,219.1,146.2,221.6z"/>
			<path class="st12" d="M146.2,221.6c-4.2-1.3-7.8,0.1-11.1,2.4c-1.8,1.2-1.1,2.9,0.9,3.5c2.3,0.7,4.5,0.7,6.5-1.1
				c1.1-1,2.4-1.7,3.7-2.5c0,0.5-0.1,1-0.1,1.6c-3.2,2.1-6.1,4.7-10.5,3.4c-1.9-0.6-1.3,1.2-1.5,2.2c-0.6,3.4-0.4,6.8-1.5,10.1
				c-0.5-0.4-0.2-1.1-0.7-1.5c0-1,0-2,0-3c0.2-1.5-0.7-3.2,0.7-4.5c-0.2-2.5,1.3-4.8,0.4-7.4c-0.4-1.1,1-1.8,2-2.4
				c3.5-2.1,7.3-2.5,11.2-2.2C146.1,220.7,146.2,221.2,146.2,221.6z"/>
			<path class="st7" d="M132.6,244.2c0,4.6,0,4.5,4.4,3.4c1.8-0.4,3.6-0.8,5.4-1.2c-0.5,1-1.3,1.7-2.2,2.3c-2.1-0.7-4.1,0.4-6,0.9
				c-2.8,0.7-3.3-0.4-3-2.7c0.1-1.2-0.3-2.5,0.7-3.5C132.3,243.4,132.3,243.9,132.6,244.2z"/>
			<path class="st32" d="M185.9,225.4c0.3,0.6,0.9,0.7,1.5,0.7c-0.4,2.1-2.1,1.7-3.5,1.8c-4.5,0.2-8.9,0.2-13.3-1
				c-1.9-0.5-4.1-0.7-2.6,2.5c0.1,0.4,0.1,0.7,0,1.1c-1.7,1-1.4,2.6-1.4,4.2c0,1.3,0,2.7-0.3,4c-0.3,0.9-0.6,1.8-1.4,2.4
				c-1.6-4.9-0.9-10.1-0.5-15c0.2-2.6,3.6-2.7,5.9-2C175.4,225.8,180.6,226.4,185.9,225.4z"/>
			<path class="st33" d="M164.9,241.2c0-0.8-0.1-1.7,0.7-2.3c1.6,1.7,1.5,3.9,1.8,5.9c1.2,6.4,2,6.9,8.2,8.1c2.9,0.6,5.9-0.5,8.7,1
				c0.3,0.6,0.9,0.7,1.5,0.7c-6.1,1.5-12,1.2-17.7-1.4c-1-0.4-1.6-1.1-1.8-2.2C165.8,247.8,164.7,244.6,164.9,241.2z"/>
			<path class="st34" d="M182.5,39.4c-0.3,7.8-2.9,11.6-10.4,14c-8.2,2.6-16,1.8-23.7-2.6c-6.7-3.9-6.6-19.2-0.2-23.4
				c8.3-5.5,21.7-5.8,29.6,0.2C181.6,30.4,182.7,33.3,182.5,39.4z"/>
			<path class="st12" d="M158.9,156.4c0-0.2,0-0.5,0-0.7c0.9-1.9,2.8-1.8,4.5-2.3c1.2-0.3,2.4-0.5,3.6-1.1c0.7-0.3,1.5-0.7,1.3-1.6
				c-0.1-0.8-0.9-1.1-1.7-1.3c-1.6-0.4-3.2-0.1-4.8-0.4c-1.3-0.2-3-0.3-2.2-2.4c0,0,0,0,0,0c3.2,0.1,6.4-0.1,9.7,0.6
				c2,0.4,2.6,1.3,2.3,3c-1,5.1-0.4,10.2-0.8,15.3c-0.2,2.3-0.8,4.8-3.8,5.3c-2.7,0.4-5.7,2.1-8.1-0.9c0,0,0,0,0,0
				c1.5-1.5,3.5-1,5.3-1.1c2.7-0.2,4.1-1.4,4.1-4.2c-0.1-2,0.3-4,0.6-5.9c0.3-2.2-0.6-2.9-2.8-2.5
				C163.7,156.5,161.3,158.2,158.9,156.4z"/>
			<path class="st35" d="M175.4,139.8c-0.1,3.2-2.9,6-6,5.9c-3.1-0.1-5.9-3-5.9-6.1c0-3.3,2.7-5.8,6.1-5.8
				C172.9,133.9,175.4,136.5,175.4,139.8z"/>
			<path class="st36" d="M160.5,98.1c0-1,0-2-0.1-3c-0.1-1.1,0.6-2.6-1.1-3.1c-1.8-0.5-1.6,1.5-2.6,2.1c0-0.5,0-1,0-1.5
				c-0.7-1-0.8-2,0-3c0-0.2,0-0.4,0-0.6c-0.6-3.8-0.6-7.5-0.1-11.3c1.3-1.7,2.8-1.8,4.5-0.8c0.4,4.2-0.8,8.4,0.7,12.5
				c0,1.1,0,2.3-0.7,3.2c0,1.1,0.1,2.1,0.1,3.2C161,96.6,160.7,97.4,160.5,98.1z"/>
			<path class="st37" d="M178.4,85.9c0.2,0.3,0.5,0.6,0.7,0.9c0,0.2,0,0.3,0,0.5c-1.2,0.5-1.2,2.5-2.9,2.4c-1.8,0-3.4-0.2-4.1-2.1
				c0.2-0.9,0.8-1.5,1.6-1.9c1.1-0.3,2.3,0,3.4-0.3C177.6,85.4,178,85.5,178.4,85.9z"/>
			<path class="st38" d="M165.6,81.2c4.2-4.5,7.3-4.3,12.1,0.8c0.3,1.3-0.6,1.9-1.4,2.6c-0.7,0.3-1.3,0.2-2,0.2
				c-0.8-0.1-1.6-0.1-2.4-0.2c-1.1-0.1-2.2-0.3-3.3-0.5c-0.5-0.2-0.9-0.4-1.3-0.7C166.6,82.8,165.7,82.4,165.6,81.2z"/>
			<path class="st39" d="M172.5,87.4c0.6,1.9,2.9,1,3.8,2.3c-1.3,3.2-4,2.9-6.5,2.2c-2.6-0.7-4.7-2.1-4.8-5.3
				c0.2-0.3,0.5-0.4,0.8-0.5c0.3,0,0.6,0,0.9,0c0.3,0.1,0.5,0.3,0.8,0.5c0.7,0.5,1-0.3,1.5-0.5c0.9-0.4,1.8-0.4,2.6-0.1
				C172.1,86.3,172.5,86.7,172.5,87.4z"/>
			<path class="st40" d="M176.1,84.5c-0.1-1.2,1.2-1.6,1.7-2.5c0.7,1.2,1.5,2.5,0.6,4c-0.5,0-1.1,0-1.6,0
				C175.6,85.8,175.7,85.3,176.1,84.5z"/>
			<path class="st41" d="M165.5,86.7c-0.2,0-0.4,0-0.6,0c-1.3-1.2-0.5-2.5,0-3.7c0.9-0.3,1.4,0.2,1.7,0.9
				C166.9,85,166.5,85.9,165.5,86.7z"/>
			<path class="st42" d="M166.3,83.7c-0.5-0.3-0.9-0.6-1.4-0.8c-0.1-0.7-0.1-1.4,0.7-1.7c0.8,0.6,1.6,1.2,2.5,1.8
				c0,0.6-0.3,0.9-0.8,1.1C166.9,84.1,166.6,84,166.3,83.7z"/>
			<path class="st43" d="M161.1,92.7c0-1.1-0.3-2.3,0.7-3.2C163,90.8,162.6,91.9,161.1,92.7z"/>
			<path class="st44" d="M156.6,77.7c0,3.8,0,7.5,0.1,11.3c-1.7-3.7-0.3-7.5-0.7-11.3C156.1,77.7,156.4,77.7,156.6,77.7z"/>
			<path class="st45" d="M176.1,278.7c-1.7-3.2,0.2-6,0.7-9c0.4-0.4,0.9-0.6,1.4-0.6c1.7,0.4,3.4,0.3,5.2,0.2c0.8,0,1.2,0.6,1.7,1.1
				c0.5,0.9,0.9,1.9,0.8,3c0.7,2-0.6,2-1.9,1.9c-2-0.1-4-0.5-5.8,0.6c-0.7,0.5-0.3,0.7,0.3,0.9c2.2,0.2,4.3,0.2,6.5,0
				c0.8,0,1.3,0.5,1.7,1.2c0,0.3,0,0.5,0,0.8C183.1,280.4,179.6,280.4,176.1,278.7z"/>
			<path class="st20" d="M176.1,278.7c3.5,0,7,0,10.5,0c0,2.6-1.2,5.2-3.7,5.3C179.7,284.1,177.2,281.9,176.1,278.7z"/>
			<path class="st11" d="M177.6,277.2c-0.4,0.1-1,0.6-1.3,0c-0.4-0.6,0-1.2,0.5-1.5c3.2-1.2,6.5-0.9,9.7,0c0,0.7,0,1.5,0,2.2
				c-0.5-0.2-1-0.5-1.5-0.7C182.6,277.8,180.1,277.8,177.6,277.2z"/>
			<path class="st46" d="M186.6,275.7c-3.2,0-6.5,0-9.7,0c2-2.1,4.5-1.6,6.9-1.3c1,0.1,1.9,0.6,2.1-1
				C186.7,274,186.6,274.8,186.6,275.7z"/>
			<path class="st47" d="M178.4,269.7c-0.5,0-1,0-1.5,0c2.5-2.6,7.2-2.1,8.3,0.7c-0.5-0.2-1-0.5-1.5-0.7
				C181.9,270.2,180.1,270.2,178.4,269.7z"/>
			<path class="st4" d="M184.4,253.9c-4.3,1.2-8.6,0.2-12.8-0.7c-2.6-0.6-4.1-2.1-4.5-4.8c-0.5-3.2-1.4-6.3-1.4-9.5
				c0-2.2,0.1-4.4,0-6.7c-0.1-2,0.9-1.9,2.2-1.6c0.9,0.7,0.6,1.7,0.7,2.8c1.2-1,2-2.4,3.8-1.7c4.7,0.5,9.5,0.9,14.2-0.3
				c0.9-0.1,1.8,0,2.6-0.5c-0.1-0.1-0.2,0-0.2,0.1c-0.2,0.1-0.4,0.2-0.6,0.2c-1.3,0.2-2.7,0.1-3.9,0.8c-3.8,0.1-7.6,0.4-11.4-0.2
				c-1.7-0.7-3.9,0-5.1-1.9c-1.5-0.6-2.8-1.5-2.2-3.3c0.7-2,2.7-1.5,3.8-1.1c4.7,1.5,9.5,1.5,14.3,1.4c1.2,0,2.5,0.4,3.5-0.7
				c0.2,0,0.5,0,0.7,0c6-1.5,6-1.5,6,4.8c0,5.1,0,10.1-0.7,15.2C192.7,251.5,191.3,252.8,184.4,253.9z"/>
			<path class="st4" d="M132.6,232.2c-0.2,1.5,0.6,3.2-0.7,4.5c-0.3-0.6-0.9-0.7-1.5-0.8c-0.1-1.3,0-2.6,0.7-3.8
				C131.6,232.2,132.1,232.2,132.6,232.2z"/>
			<path class="st48" d="M123.6,82.9c-0.7-0.5-1.4-1.1-2.1-1.6c0.7-1.4,1.3-2.9,1.3-4.5c0.3-0.5,0.5-1,0.8-1.6
				c0.5,0.3,1,0.5,1.4,0.8c0.7,0.9,0.9,1.9,0.9,3.1C125.6,80.7,124.7,81.9,123.6,82.9z"/>
			<path class="st49" d="M126,79.2c-1.2-0.8-0.7-2-0.9-3.1C126.3,76.9,128.6,77.3,126,79.2z"/>
			<path class="st50" d="M115.3,86.5c1.8-0.6,2.7,0.6,3.8,1.6c-0.2,0.2-0.5,0.4-0.7,0.6C117.3,88.2,116.1,87.7,115.3,86.5z"/>
			<path class="st51" d="M144.6,145.9c-0.9-0.4-1.9-0.8-2.7-1.3c-2.8-1.9-3.4-5.6-1.5-8.3c1.9-2.6,5.6-3.3,8.3-1.4
				c2.8,1.9,3.4,5.5,1.4,8.2c-0.6,0.9-1.6,1.5-2.5,2.2C146.9,146.5,145.9,146.9,144.6,145.9z"/>
			<path class="st15" d="M144.6,145.9c1-0.2,2-0.4,3.1-0.6c2.2,0.4,4.4,0.9,6.7,1.3c0,0.5,0,1,0,1.5c-2-0.1-4,0.3-5.9-0.3
				c-1.3-0.4-2.9-0.9-3,1.3c-0.1,1.8-0.6,3.9,2.2,4.3c1.9,0.3,3.7,0.8,5.5,1.6c-1.9,1.1-3.6,0.1-5.2-0.4c-2.7-0.8-3.4,0.1-3.2,2.6
				c0.1,2.5,1.6,5.2-0.7,7.5c0-4.9,0-9.9,0-14.8C143.9,148.5,143.9,147.1,144.6,145.9z"/>
			<path class="st32" d="M143.9,164.7c1.5-2.4,0.4-5,0.7-7.5c1.5,2,0.9,4.4,0.6,6.5c-0.5,4,1.4,5.7,5,6.2c0.8,0.1,1.7-0.1,2.5,1.1
				c-2.9,0.4-5.3-0.9-7.8-1c-0.4-0.4-0.8-0.9-1.2-1.3C143.8,167.3,143.9,166,143.9,164.7z"/>
			<path class="st52" d="M155.9,107.7c0,3,0,6,0,9C154.8,113.6,154.6,110.6,155.9,107.7z"/>
			<path class="st53" d="M155.1,125.7c0,2.2,0,4.5,0,6.7c-1.4-2.1-0.6-4.4-0.6-6.7c0-0.1,0.2-0.2,0.3-0.2
				C154.9,125.6,155,125.6,155.1,125.7z"/>
			<path class="st9" d="M132.6,244.2c-0.2-0.3-0.5-0.5-0.7-0.8c0-1.2,0-2.5,0-3.7c0.6,0.3,0.7,0.9,0.7,1.5
				C132.6,242.2,132.6,243.2,132.6,244.2z"/>
			<path class="st54" d="M156.7,89.6c0,1,0,2,0,3C155,91.6,154.4,90.6,156.7,89.6z"/>
			<path class="st47" d="M118.4,279.4c0.8-2.4,0.9-5.7,2.5-7.1c1.5-1.2,4.7-0.2,8-0.2c-2.8-1.8-4.7-2-6.9-1.3
				c-0.7,0.2-1.3,0.1-1.3-0.8c0-0.5,0.4-0.8,0.9-1c4.7-1.3,8.5,1.6,8.7,6.6c1,2.8,0,3.9-2.9,3.4c-1.7-0.1-3.4-0.1-5.1,0
				c-0.9,0-1.7,0.6-2.5,0.8C119.3,279.9,118.8,279.8,118.4,279.4z"/>
			<path class="st11" d="M118.4,279.4c0.5,0,1,0,1.5,0c3.6-0.8,7.2-2,10.5,0.8C125.9,285.3,121.3,285,118.4,279.4z"/>
			<path class="st55" d="M130.4,280.2c-3.4-1.6-7-0.4-10.5-0.8c0.3-0.7,0.8-1.2,1.5-1.5c2,0.6,4,0.6,6,0c2.3,0.9,3.4,0.3,3-2.3
				C131.5,277.2,131.5,278.7,130.4,280.2z"/>
			<path class="st56" d="M122.9,76.9c0.8,1.9,1.7,3.8-1.3,4.5c-0.8-0.6-1.6-1.1-2.4-1.7c0.3-0.4,0.5-0.9,0.8-1.3
				C121.3,78.7,122,77.7,122.9,76.9z"/>
			<path class="st4" d="M158.9,156.4c3.1,0.1,5.8-1.1,8.7-1.8c2-0.5,2.6,0.1,2.5,1.9c-0.2,3.6-0.4,7.2-0.9,10.8
				c-0.3,2.1-2.2,2.5-4,2.6c-2.1,0.1-4.2,0-6.4,0C158.9,165.4,158.9,160.9,158.9,156.4z"/>
			<path class="st4" d="M159.6,146.7c0.5,2.3,2.3,1.4,3.6,1.5c2.5,0.2,6.1-0.8,6.6,2.3c0.6,3.9-3.7,3-6,3.9c-1.6,0.6-3.3,0.9-5,1.4
				C159.2,152.7,158.1,149.6,159.6,146.7z"/>
			<path class="st57" d="M167.9,229.9c1.5,0.5,3.1,0.9,4.6,1.4c-0.1,0.5-0.6,0.5-0.9,0.8c-1.2,0-1.6,0.9-2,1.8
				c-0.3,0.7-0.1,2-1.4,1.6c-1.2-0.3-1.2-1.3-0.9-2.4c0.2-0.8,0.3-1.6,0.4-2.5C167.9,230.4,167.9,230.2,167.9,229.9z"/>
			<path class="st58" d="M172.4,141.4c-1.8,1.1-3.5,2.8-5.3,0c-1-1-0.7-2.2-0.4-3.4c0.6-1.4,1.6-2.2,3.2-2.2c1.4,0.5,2,1.8,2.9,2.8
				C173.2,139.6,173.1,140.6,172.4,141.4z"/>
			<path class="st59" d="M170.1,136.2c-1.3-0.1-2,1-3,1.5c-0.2,0.3-0.4,0.4-0.7,0.1c0.4-2.8,2.5-2.3,4.4-2.2
				C170.9,136.1,170.8,136.5,170.1,136.2z"/>
			<path class="st60" d="M172.4,141.4c0-1,0-2,0-3.1c-0.2-0.1-0.3-0.3-0.2-0.4c0.1-0.1,0.1-0.2,0.2-0.2
				C174.8,138.9,174.7,140.2,172.4,141.4z"/>
			<path class="st61" d="M166.5,141.4c-2.1-0.9-1.6-1.9-0.2-2.9C167,139.4,166.8,140.4,166.5,141.4z"/>
			<path class="st62" d="M172.3,137.7c0,0.2,0,0.4,0,0.6c-1-0.4-1.7-1.2-2.3-2.2c0.2-0.2,0.5-0.5,0.7-0.7
				C172,135.8,172.4,136.6,172.3,137.7z"/>
			<path class="st63" d="M166.5,141.4c-0.1-1-0.1-2-0.2-2.9c0.1-0.2,0.1-0.5,0.1-0.7c0.2-0.1,0.4-0.1,0.7-0.1c0,1.2,0,2.5,0,3.7
				C166.9,141.4,166.7,141.4,166.5,141.4z"/>
			<path class="st64" d="M172.5,87.4c-0.3-0.2-0.6-0.5-0.9-0.7c-0.5-0.4-1.1-0.7-1.1-1.5c0.1-0.8,0.7-1.1,1.2-1.4
				c1,0,1.9,0.1,2.9,0.1c0.4,0.9,0,1.7-0.6,2.3C173.5,86.6,173,87,172.5,87.4z"/>
			<path class="st65" d="M174,86.2c-0.2-0.9,0.1-1.6,0.6-2.3c0.5,0.2,1,0.4,1.5,0.6c0.2,0.5,0.4,1,0.7,1.5
				C176,87.3,175,86.3,174,86.2z"/>
			<path class="st66" d="M171.7,83.7c-0.3,0.5-0.6,1.1-0.9,1.6c-0.5,0.4-0.9,0.4-1.5,0.2c-0.6-0.4-1-0.9-0.7-1.7
				C169.7,83,170.7,83.7,171.7,83.7z"/>
			<path class="st67" d="M168.7,83.8c0.2,0.4,0.5,0.8,0.7,1.2c0.4,0.8-0.1,1.1-0.7,1.2c-0.9,0.1-1.3-0.5-1.6-1.2
				c-0.1-0.4-0.1-0.8,0.2-1.1c0.3-0.3,0.6-0.6,0.9-0.9C168.3,83.2,168.5,83.5,168.7,83.8z"/>
			<path class="st68" d="M167.2,84.3c0.7,0.3,0.8,2.5,2.1,0.7c0.5,0.1,1,0.2,1.5,0.3c0.2,0.4,0.5,0.9,0.7,1.3
				c-1,0.1-1.9,0.1-2.9,0.2c-0.5,0.3-1.1,0.3-1.6,0l0.1-0.3C166.5,85.7,166.5,85,167.2,84.3z"/>
			<path class="st56" d="M167.1,86.8c0.5,0,1.1,0,1.6,0c-0.2,0.8,0.3,2.1-0.5,2.2C166.9,89,167.3,87.6,167.1,86.8z"/>
			<path class="st69" d="M167.2,84.3c0,0.7-0.1,1.4-0.1,2.2c-0.5,0.1-1.1,0.1-1.6,0.2c-0.2-1.1,0.3-2,0.8-3c0.3,0,0.6,0.1,0.9,0.1
				C167.2,84,167.2,84.2,167.2,84.3z"/>
			<path class="st7" d="M177.6,277.2c2.5,0,5,0,7.5,0C182.6,278.3,180.1,278.3,177.6,277.2z"/>
			<path class="st9" d="M178.4,269.7c1.7,0,3.5,0,5.2,0C181.9,270.8,180.1,270.8,178.4,269.7z"/>
			<path class="st9" d="M182.7,272.2c-1.1,0.6-2.3,0.6-4.5,0C180.4,272.2,181.6,272.2,182.7,272.2z"/>
			<path class="st32" d="M179.6,281.4c1.4-1.5,2.7-1.5,4.2-0.1C182.4,281.9,181.1,281.7,179.6,281.4z"/>
			<path class="st70" d="M171.6,232.1c0.3-0.3,0.6-0.5,0.9-0.8c4.2,0,8.4,0,12.6,0c0.9-0.2,2-1.1,2.3,0.7
				C182.1,233.3,176.9,233.6,171.6,232.1z"/>
			<path class="st71" d="M187.3,232.1c-0.6-0.8-1.5-0.6-2.3-0.7c1.1-1,2.5-0.6,3.8-0.8c0.8-0.2,1,0.1,0.8,0.8
				C188.9,231.6,188.1,231.9,187.3,232.1z"/>
			<path class="st12" d="M189.6,231.4c-0.3-0.3-0.5-0.6-0.8-0.8c0.9-0.9,1.9-0.8,3.1-0.5C191.5,231.2,190.5,231.3,189.6,231.4z"/>
			<path class="st72" d="M147.6,141.4c-0.3,0.4-0.5,0.9-0.8,1.3c-1,0.7-2,0.7-3,0c-0.3-0.5-0.5-0.9-0.8-1.4c-0.9-1-1-2.1-0.7-3.3
				c0.4-1.4,1.8-1.3,2.8-1.9c0.3,0,0.7,0,1,0c0.7,0.6,1.7,0.9,2,2C148.6,139.4,148.5,140.5,147.6,141.4z"/>
			<path class="st73" d="M145.2,136.2c-0.7,0.5-1.4,1-2.1,1.5c-0.9,1.1,0.1,2.5-0.6,3.7c-1.7,0.7-1.5-0.7-1.5-1.5
				c0-1.4,0.5-2.7,1.8-3.4C143.4,136.1,144.4,136.3,145.2,136.2z"/>
			<path class="st74" d="M147.7,137.7c-0.7-0.3-1.2-0.8-1.4-1.5c3.6,0.9,4.4,2.8,2.2,5.2C147.4,140.4,148.6,138.8,147.7,137.7z"/>
			<path class="st75" d="M143.9,142.8c1,0,2,0,3,0C145.9,144.2,144.9,144.2,143.9,142.8z"/>
			<path class="st76" d="M147.7,137.7c1.3,1,0.5,2.5,0.8,3.7c-0.3,0-0.6,0-0.8,0C147.6,140.2,147.6,139,147.7,137.7z"/>
			<path class="st77" d="M142.5,141.4c0-1.3-0.7-2.6,0.6-3.7c0,1.2,0,2.5,0,3.7C142.9,141.4,142.7,141.4,142.5,141.4z"/>
			<path class="st13" d="M129.6,276.2c-3.3,0-5.8,0-9.3,0C123.9,274.3,126.3,274.8,129.6,276.2z"/>
			<path class="st9" d="M129.7,274.2c-3.2-0.2-5.2-1.3-7.4-1.1C124.6,272.9,126.8,272,129.7,274.2z"/>
			<path class="st7" d="M127.4,277.9c-2,1.1-4,1.1-6,0C123.4,277.9,125.4,277.9,127.4,277.9z"/>
			<path class="st33" d="M128.2,281.5c-2.6,0-4.3,0-6.6,0C123.9,279.7,125.6,279.9,128.2,281.5z"/>
		</g>
	</g>
</g>
<g id="ahfPTE_1_">
	<g>
		<g>
			<path class="st1" d="M593.8,340.7c-1.2,8.8-0.7,17.7-1.6,26.5c-0.4,4.1,0.7,7.9,2.2,11.7c0.9,2.3,1.8,4.4,1.2,7.2
				c-0.5,2.4,1.7,4.5,2.7,6.7c4.7,10.8,6,22.2,7.5,33.7c1.4,10.3,1.5,20.7,1.3,31c-0.1,5,1,9.9,0.9,14.9c-0.1,7.7,0,7.7,3.4,14.7
				c1.9,3.9,2.5,8.1,3,12.3c0.2,2.2-1.2,3.4-3.2,4c-11.1,3.2-22.5,4.3-34,3.2c-2.4-0.2-3.5-1.6-3.7-3.9c-0.6-6-0.4-12,2.2-17.6
				c0.9-1.9,0.8-3.3-0.6-5.1c-2.5-3.2-2.2-7.3-3-11c-2.8-13.2-3.6-26.9-8.6-39.3c-4.3-10.7-5.7-22.4-11.1-33.1
				c-2.5,2.8-3.8,6-5.1,9.2c-1.2,3.1-2.7,6.3-3.3,9.5c-0.8,5.1-5.3,8-6.7,12.7c-2.7,8.8-4.2,17.9-6.4,26.9c-1.7,7.1-2,14.9-5.1,21.4
				c-3.4,7.3-1.3,14.7-3.3,21.8c-1,3.4-2.6,5-6.2,5c-9.8,0.2-19-2.6-28.1-5.7c-2.4-0.8-3.5-2.5-3.3-5.2c0.3-4.7,2-8.8,5.2-12.1
				c1.8-2,2.5-4,2.4-6.7c-0.4-10.6,1.4-21.1,1.9-31.7c0.5-10.4,2.7-20.5,4.5-30.6c1.8-10.4,6.1-20.5,10.3-30.3
				c2.3-5.2,3.4-10.4,4.6-15.7c2.5-11.7,4.7-23.4,5.7-35.3c0.8-0.6-0.3-2.1,1.1-2.4c1.1,0.5,1.2,1.6,1.4,2.6
				c0,7.9-1.9,15.6-3.2,23.4c-0.8,2.5-0.5,5.3-1.4,7.8c-2,8.1-2.8,16.6-7.5,23.9c-0.2,0.9-0.6,1.8-0.9,2.7
				c-1.9,7.1-4.1,14.2-7.2,20.9c-0.6,1.6-0.8,3.2-0.4,4.8c-0.2,5.4-2.6,10.5-3,15.9c-0.6,1.6-0.4,3.3-0.6,4.9
				c-0.9,8.2-1.6,16.4-2.3,24.7c-0.7,2-0.6,4.1-0.6,6.1c1.1,8-0.3,15.3-6.2,21.3c-0.7,1.5-1.1,3.2-1.3,4.9c0,2,0.9,3.4,2.8,4
				c7.9,2.5,15.7,5,24.1,5.1c1.8,0,3.5,0,4.8-1.6c0.9-1.1,0.7-2.5,1-3.8c0-0.4,0.2-0.8,0.1-1.1c-0.9-8.3,2-15.9,4.2-23.6
				c0.4-1.1,0.6-2.4,0.8-3.6c2-8.8,4.1-17.6,6.1-26.4c0.4-1.1,0.5-2.3,0.7-3.4c1.4-5,2.3-10.1,4.8-14.7c1.3-1.2,2.5-2.4,3-4.2
				c2.6-5.1,3.6-10.8,6-16c0.6-1.3,1.2-2.7,2-4c0.6-0.9,1.3-1.8,1.5-2.9c0.4-1.3,0.5-2.7,1-4c0.3-0.9,0.5-2.2,1.7-2.1
				c1,0.1,1.5,1.2,1.7,2.2c0.4,1.3,0.5,2.7,0.8,4c0.2,1.3,0.9,2.5,1.4,3.7c2.7,6.2,4.2,12.7,5.5,19.3c0.2,1.9,1.5,3.3,2.5,4.7
				c2,5.7,3.6,11.6,4.9,17.5c0,1.2,0.5,2.3,0.7,3.5c1.6,7.6,2.9,15.2,4.3,22.8c0.4,1.6,0.1,3.2,0.8,4.7c0.7,2.9,1.2,5.8,2.9,8.4
				c1.4,2,1.1,4.3,0.2,6.4c-1.5,3.6-2.2,7.4-2.1,11.3c0,0.6,0,1.2,0,1.8c0.4,4.4,0.5,4.5,4.9,4.6c8.6,0.2,17.2,0.1,25.6-2.1
				c3.2-0.8,5.2-2.3,4.8-5.9c0-1-0.3-1.9-0.7-2.8c-1-3.4-2.5-6.5-4.5-9.4c-1.7-2.4-2.4-4.8-1.3-7.7c0.9-2.2,0.3-4.7,0.4-7
				c-1.3-8.2-0.5-16.5-0.7-24.8c0-1.6,0.2-3.2-0.4-4.8c-0.2-0.6-0.3-1.3-0.3-1.9c-0.1-7.2-1.3-14.3-3-21.3c0.2-1.6,0.9-3.2,0.7-5
				c-2.4-7.9-4.8-15.9-8.6-23.3c-0.2-0.8-0.3-1.6-0.2-2.3c0.4-2.1-0.2-3.9-0.9-5.8c-1.2-2.9-2.1-5.9-2.3-9
				c-0.1-4.8-0.1-9.7,0.6-14.5c0-5.3,0-10.7,0.6-16c0.5-3.9,0.4-7.9-0.3-11.9c-0.2-1.2-0.3-2.5-0.3-3.7c0.1-1.6-0.3-3.8,1.6-4.1
				c1.5-0.3,2.2,1.8,2.7,3.1c1.1,2.7,2,5.4,1.7,8.3c-0.2,1.1-0.3,2.2-1.4,2.8c-0.3-0.1-1,0-0.6-0.8c-0.7,0.5-0.1,0.9,0.1,1.3
				C595.1,337.3,594.3,338.9,593.8,340.7z"/>
			<path class="st1" d="M521,329.5c-0.1-0.8,0.1-1.7-0.7-2.3c-0.6-2.4-1,0.2-1.5,0.1c-3.3,7.7-4.9,15.9-7.4,23.9
				c-1.9,6.2-3.7,12.1-9.4,16.4c-2.5,1.9-3.8,6-4.2,9.7c-0.2,1.8-0.7,3.4-1.4,5c-0.6,1.3-1.3,2.6-2.9,2.5c-1.6-0.1-2.3-1.3-2.6-2.7
				c-0.1-0.6-0.4-1.1-1.4-1.6c0,2,0.1,4,0,6c-0.2,3.8-1.3,4-4.9,2.7c-5.5-1.9-4.7-6.6-4.8-10.3c-0.1-5,0.6-10.2,2.9-14.8
				c2.3-4.6,0.6-9.5,1.2-14.3c2.4-19,8.4-36.8,15.1-54.6c3.8-10,11.5-15.6,20.2-20.6c0.7-0.4,1.7-0.4,2.5-0.6
				c0.8-0.5,1.4-0.4,1.8,0.5c-0.1,1.2-1.1,1.6-2,2c-5.5,2.1-9.6,6.1-13.8,9.9c-0.5,0.6-0.8,1.4-1.3,2.1c-0.6,0.7-1.4,1.2-1.9,2
				c-0.2,0.4-0.5,0.7-0.8,1.1c-0.3,0.5-0.6,1-0.9,1.5c-0.3,0.7-0.5,1.3-0.8,2c-0.2,0.4-0.4,0.8-0.6,1.1c-0.4,0.6-0.6,1.3-0.8,1.9
				c-0.2,0.4-0.3,0.8-0.5,1.2c-0.4,0.9-0.3,1.8-0.7,2.7c-3,6.5-4.7,13.4-6.8,20.1c-0.6,1.6-0.9,3.2-1.3,4.9c-1.3,4.3-2.2,8.6-3.1,13
				c-0.2,1-0.6,1.9-0.6,2.9c-0.6,5.8-1.8,11.5-1,17.4c-0.1,0.6-0.3,1.1-0.5,1.7c-0.4,1-0.8,2-1.1,3c-0.3,0.8-0.4,1.7-0.7,2.6
				c-1.4,4.7-2.3,9.4-1.4,14.3c0.5,2.9,0.5,2.9,3.7,4.7c0.6-1.5,0.3-3.2,0.4-4.7c0.1-1,0.1-2,0.5-2.9c0.8-1.7,1.4-3.9,3.6-3.9
				c2.5,0.1,2.3,2.5,2.5,4.3c0,0.3,0,0.7,0.8,1c1.2-2.7,1.2-5.8,2.5-8.4c0.2-0.5,0.5-0.9,0.7-1.4c0.4-0.8,0.8-1.5,1.1-2.3
				c0.4-0.8,0.6-1.7,1.2-2.3c5.3-3.2,7-8.5,8.7-13.9c0.4-1.4,0.8-2.9,1.2-4.3c0.3-0.9,0.5-1.8,0.8-2.6c1.1-3.6,2.1-7.2,3-10.9
				c0.5-1.5,1-3,1.5-4.5c1.7-4.3,3.5-8.5,5.2-12.8c0.4-1,0.9-2.5,2.1-2.2c1.2,0.3,1.2,1.8,1.3,2.9c0.3,3.5-0.4,6.9-0.9,10.4
				C522.4,328.6,522.1,329.5,521,329.5z"/>
			<path class="st78" d="M584.7,229.6c10.1,12.2,10.5,27.8,1,41.2c-1.6,2.2-2.1,3.6,1.2,3.9c15.6,1.4,21.9,13,26.8,25.5
				c4.5,11.6,8.4,23.5,10.3,35.9c0.3,1.7,0.3,3.5,0.5,5.2c0.3,1.2,1,2.5-0.7,3.3c-2.8-2.6-1.7-6.3-2.7-9.4c0.1-1.2-0.3-2.3-0.6-3.5
				c-1.9-8.5-4.3-16.9-7.5-24.9c-0.2-0.8,0.2-1.7-0.4-2.4c-2-5.6-3.8-11.2-8.1-15.7c-0.4-0.4-0.7-0.8-1-1.3c-3-5.5-7.7-8.6-13.9-9.5
				c-1.7-0.3-3.4-0.7-5.1-1.2c-1.3-0.6-2.3-1.6-2.7-3c-0.4-1.8,0.6-3.1,1.6-4.4c8.2-11.5,8.4-23.2,1.4-35.3
				c-0.6-1.1-1.3-2.1-1.3-3.4C583.7,230,583.9,229.5,584.7,229.6z"/>
			<path class="st78" d="M594.5,334.7c0.8-0.6,0.7-1.5,0.8-2.4c1.4,0.1,1.4,1.2,1.7,2.2c0,1.2,0.3,2.3,0.6,3.5
				c0.7,4.5,1.7,8.9,2.4,13.4c0.1,1,0.3,1.9,0.5,2.8c1.3,6.1,3.4,11.9,5.9,17.6c0.2,0.3,0.3,0.7,0.4,1.1c1,2.9,2.6,5.6,2.1,8.9
				c-0.3,1.7-0.7,3.4,0.3,5c1-0.1,0.9-1.1,1.2-1.7c0.7-1.3,1.1-3.1,3-2.7c1.7,0.4,1.9,2.2,2.1,3.6c0.5,2.7,0,5.4-0.9,8.1
				c4-0.5,6.2-2.9,6.5-7.3c0.2-3.4,0.8-6.7,1.7-9.9c0.3-0.9,0.6-1.7,1.2-2.5c0.3-0.3,0.6-0.4,1-0.3c0.8,0.8,0.6,1.6,0.2,2.5
				c-1.5,5.7-0.7,11.9-3.8,17.2c-0.8,1.5-6.2,4.8-7.8,4.3c-1.9-0.7-2-2.3-1.7-4c0.4-2.1,1.7-4.1,1.1-6.9c-0.7,1.1-1.1,2.1-1.8,2.7
				c-1.6,1.6-4,1-4.7-1.2c-0.4-1.3-1-2.8-0.6-4c1.6-6.2-1.8-11.1-3.8-16.3c-3.7-9.5-5.3-19.4-7-29.3
				C594.1,337.8,593.7,336.3,594.5,334.7z"/>
			<path class="st78" d="M523.2,274.6c-0.4-0.6-0.9-0.7-1.6-0.7c2.3-1.4,4.9-0.5,7.3-0.8c4.1-0.4,4.5-1.2,2.4-4.7
				c-8.1-13.7-6.4-29.9,4.3-41c11.7-12.1,31.2-13.1,44.5-2.3c0.2,0.7-0.3,1.1-0.9,1.3c-1.5,0.2-2.6-0.8-3.7-1.5
				c-12.3-7.5-27.9-5.7-37.9,4.4c-10.1,10.2-11.7,25.5-4,37.9c0.9,1.4,1.9,2.6,1.8,4.4c-0.3,1.3-1,2.3-2.2,3.1
				C530,275.9,526.6,276.7,523.2,274.6z"/>
			<path class="st78" d="M625.1,345.9c0,1,0.1,1.9,0.1,2.9c0.5,6.8,0.5,13.6,0,20.5c0.1,0.2,0.1,0.3,0,0.5c0.3,1,0.9,2.1-0.8,2.5
				c-0.6-0.4-0.8-1.1-0.9-1.7c-0.2-1.3-0.1-2.7-0.3-4c0-5.3-0.2-10.6,0.1-15.9C623.7,349,622.6,346.8,625.1,345.9z"/>
			<path class="st2" d="M625.2,369.3c0-6.8,0-13.6,0-20.5C626.4,355.6,626.4,362.4,625.2,369.3z"/>
			<path class="st79" d="M579.3,226c0.3-0.3,0.6-0.6,0.9-0.8c1.8,1.2,3.3,2.7,4.5,4.5c-0.3,0.3-0.6,0.6-0.8,0.9
				C581.2,230.1,579.7,228.6,579.3,226z"/>
			<path class="st2" d="M625.1,345.9c-1.3,1.4-0.4,3.1-0.8,4.6c-0.4,0.1-0.8,0-1.1-0.4c-0.5-0.7-0.6-1.5-0.6-2.4
				c0-1.3,0-2.5,1.1-3.4c1-0.8,0.6-2,0.7-3.1C625.6,342.7,625.1,344.4,625.1,345.9z"/>
			<path class="st80" d="M594.5,334.7c0.2,1.5,0.4,3.1,0.6,4.6c-0.4,0.5-0.9,0.9-1.3,1.4c0-2.4,0-4.9,0-7.4
				C594.7,333.4,594.3,334.2,594.5,334.7z"/>
			<path class="st2" d="M624.5,372.1c0.9-0.6,0.7-1.5,0.8-2.4c1.1,2.3,1.1,4.7,0,7c-0.1-0.8,0.1-1.8-0.8-2.4
				C623.8,373.7,623.8,372.9,624.5,372.1z"/>
			<path class="st81" d="M518.8,327.2c0.3-0.8,0.6-1.5,0.9-2.4c0.9,0.7,0.4,1.6,0.6,2.4c-0.1,0.8-0.1,1.7-0.8,2.3
				C519.4,328.7,519.6,327.8,518.8,327.2z"/>
			<path class="st82" d="M523.2,274.6c3.5,0.1,7,0,10.5-0.7c1.1,0.1,1.9,0.7,2.6,1.4c10.5,10.2,31.6,10.8,43.4,2.1
				c1.5-1.1,3-2.3,5.1-1.4c7.3,1,14.6,2.3,18.8,9.5c0.3,0.5,0.4,1.1,0.7,1.7c-4.5,4.9-3.8,10.2-0.9,15.5c0.4,0.8,0.7,1.6,1,2.4
				c0.6,2.2,2,2.4,4,1.7c1.6-0.5,3-1.9,4.9-0.9c2.1,1.2,2.1,3.6,2.7,5.5c2.3,6.6,4.4,13.2,5.5,20.1c-2.7,2-5.8,1.5-8.8,2
				c-4,0.6-8,1.3-12,2.3c-1.7,0.4-3.4,0.8-4.5-1.2c-0.2-0.8-0.1-1.7-0.8-2.4c0.2-4.1-1.3-7.7-3.7-11.1c1.8,11.8-0.1,23.5-0.2,35.2
				c-0.2,2.9-2.2,3.7-4.5,3.9c-3.7,0.4-7.4,0.7-11.2,0.9c-17.8,0.6-35.6,0.2-53.2-3c-4.6-0.8-4.9-1.2-4.5-4.9
				c0.1-6.2,2.4-12.1,2.6-18.3c0.1-1.8,0.5-3.7,0.5-5.5c1.3-4.7,1.6-9.4,1.4-15.2c-2.5,5.8-4.6,10.8-6.7,15.8
				c-1.1,1-2.4,0.7-3.5,0.1c-5.7-2.9-11.8-4.4-18.1-5.8c-1.4-0.3-3.2-0.3-2.4-2.7c1.4-6.8,3.9-13.3,6.3-19.8
				c0.2-0.5,0.8-0.8,1.3-1.3c2.4-0.7,3.7,2.1,5.9,1.8c0.7-0.3,1.2-0.8,1.6-1.4c0.1-0.3,0.3-0.5,0.5-0.8c0.4-0.6,0.9-1.2,1.3-1.9
				c0.5-0.8,1-1.6,1.3-2.5c0.3-0.8,0.7-1.5,1.2-2.1c0.6-0.9,1.7-1.7,0.7-2.9c-0.5-0.6-1-1.1-1.7-1.5c-0.8-0.5-1.7-0.8-2.3-1.5
				c-0.5-0.6-0.9-1.3-0.9-2.1C511.5,280.9,516.7,276.8,523.2,274.6z"/>
			<path class="st82" d="M590.6,371.4c0.6,3.3,1.5,6.4,2.9,9.4c0.7,1.5,1.5,3.2,0.2,4.8c-2,3.1-5.5,1.9-8.2,2.3
				c-9,1.4-17.7,3.4-26.2,6.9c-1.6,0.7-3.3,2-5.2,0.5c-1.4-1.8-0.1-4.4-1.9-6.2c-0.6,2.1-1.3,4.2-1.9,6.2c-1.5,1.1-2.9,0.1-4.2-0.4
				c-10.8-4.3-21.9-7.3-33.5-8.3c-1.4-0.1-2.7-0.4-3.5-1.8c0-0.4-0.1-0.9,0-1.1c4.9-6.8,5.1-15.2,7.4-22.9c0.4-0.4,0.9-0.5,1.5-0.5
				c1.3,0.2,2.4,0.8,3.7,1c1.4,0.2,2.7,0.8,4.1,0.8c13.5,3,27.3,4.1,41.1,3.5c4.5-0.2,9.1-0.6,13.7-1.3c2.1-0.1,4.2-0.9,6.4-0.9
				c2.7-0.6,3.8,0.5,3.6,3.2C590.2,368.2,590,369.8,590.6,371.4z"/>
			<path class="st82" d="M494.6,459.1c0.3-8.5,1-17,2.3-25.4c1.1-0.9,2.3-0.6,3.5-0.2c8.8,3.4,17.9,4.6,27.3,4.3
				c1.7,0,3.8-0.7,4.5,1.9c-1.5,9.1-3.7,18-6.1,26.9c-1.8,1.6-4,1.2-6.1,1.1c-7.6-0.5-15-1.9-22.2-4.6
				C496.2,462.5,493.9,461.9,494.6,459.1z"/>
			<path class="st82" d="M560.8,418.8c-1.1-6.9-3.2-13.6-5.5-20.2c-0.3-1.6,0.9-2.2,2-2.7c11.1-5.1,22.9-7.5,34.9-8.5
				c0.5,0,0.9,0.3,1.3,0.6c2.4,1.6,2.6,4.4,3.5,6.8c2.1,5.4,4.1,10.9,5.5,16.6c-1.6,1.3-3.5,1.1-5.4,1c-11-0.4-21.6,1.8-31.8,5.8
				C564,418.7,562.5,419.6,560.8,418.8z"/>
			<path class="st82" d="M568.3,440.4c-1.6-5.9-3.1-11.9-4.7-17.8c0.6-1.6,2.1-2.1,3.4-2.6c9.6-3.7,19.5-5.9,29.9-5.5
				c1.6,0.1,3.3-0.3,4.4,1.4c2.3,1.9,1.7,4.7,2.2,7.1c0.9,4.7,1.8,9.5,1.5,14.4c-1.5,1.8-3.7,1.9-5.8,2.4
				c-9.2,1.9-18.7,2.2-28.1,2.9C569.5,442.8,568.7,441.9,568.3,440.4z"/>
			<path class="st82" d="M548.8,397.8c-2.6,5.6-4.6,11.4-6.6,17.3c-0.4,1-0.5,2.2-1.5,2.9c-1.5,0.1-2.6-0.6-3.8-1.3
				c-9.2-5.2-19.1-7.6-29.6-7.4c-2.2,0-4.5,0.6-6.4-1.1c3.3-6.7,5.1-13.9,7.5-20.9c2.5-1.8,5.1-0.5,7.5-0.2c10.3,1.4,20.4,3.9,30,8
				C547.2,395.6,548.9,395.8,548.8,397.8z"/>
			<path class="st82" d="M573.4,466.7c-1.8-7.7-3.2-15.5-4.4-23.3c1.8-1.1,3.8-1.1,5.7-1.1c8.8,0,17.5-1.2,26.1-2.9
				c1.4-0.3,2.9-0.9,4.3,0.2c0.5,7.7,0.1,15.5,0.2,23.2c0,1.6-0.8,2.6-2.2,3.2c-8.5,4-17.4,4-26.4,2.7
				C575.4,468.6,574.1,468,573.4,466.7z"/>
			<path class="st82" d="M574.9,497.4c-0.4-4.1,0.5-7.9,2.1-11.6c1.1-2.5,1.2-4.7-0.7-6.9c-1.9-2.2-1.7-5.1-2.1-7.7
				c-0.6-2.9,1.5-2.4,2.9-2.2c4.7,0.7,9.3,1.2,14.1,0.4c3.5-0.6,6.8-1.4,10.1-2.6c4-1.5,4.4-1.3,5,2.8c0.1,2.8,0.4,5.6-1,8.3
				c-0.9,1.7,0.3,3.1,1.2,4.4c2.4,3.2,4.3,6.6,5,10.6c-0.4,1.4-1.6,1.8-2.8,2.2c-10.3,3.5-20.7,5.2-31.5,3.4
				C576.4,498.3,575.6,498,574.9,497.4z"/>
			<path class="st82" d="M497.6,429c-0.1-5.6,2.4-10.7,3-16.2c0.8-1.2,2.1-1.2,3.3-1.3c9.7-0.4,19.2,1,28,5.2
				c2.2,1.1,5.1,1.8,5.7,4.9c-1.6,5-3.2,10-4.7,15.1c-0.8,0.7-1.7,1-2.7,1.1c-10.4,0.4-20.5-0.6-30.3-4.3
				C497.7,432.6,496.7,431.4,497.6,429z"/>
			<path class="st82" d="M525.5,469.7c-0.7,3.8-0.8,7.6-3.3,10.9c-1,1.3-0.5,2.9-0.5,4.4c-0.2,3.4,0.8,6.9-0.7,10.3
				c-2.6,1.9-5.3,0.4-8,0.3c-7.6-0.5-14.8-2.5-21.7-5.4c-1.6-0.7-4.1-1.1-3.4-4c0.3-0.7,0.3-1.6,0.8-2c6.5-5,5.3-12.2,5.3-18.9
				c0.2-2.2,1.2-3,3.4-2.1c8.1,3.1,16.5,4.4,25.1,4.8C523.7,467.9,525.4,467.7,525.5,469.7z"/>
			<path class="st83" d="M517.9,360.9c-0.5,0-1,0-1.5,0c0.6-2.5,0.4-5.2,1.4-7.6c-0.3,2.2,0.8,3.1,2.9,3.4
				c6.1,0.8,12.2,2.1,18.4,2.6c11.6,1,23.2,1,34.8,0.8c4.7-0.1,9.4-0.8,14.1-1.2c1.7-0.1,2.6-1.1,3.3-2.5c-0.8,5-0.7,10-0.8,14.9
				c-1.1-1.3-0.7-2.8-0.6-4.3c0.2-2.5-0.6-3.5-3.1-2.5c-3.5-0.6-6.8-0.1-10.2,0.6c-16.9,1.2-33.6,0.5-50.3-2.4
				c-1.5-0.2-2.9-0.7-4.4-0.8C520.7,361.4,519.2,361.5,517.9,360.9z"/>
			<path class="st82" d="M612.3,495.2c0.5,6.1,0.5,5.9-5.3,7.5c-9.5,2.6-19.1,2.5-28.8,2.2c-4.6-0.1-3-3.6-3.3-6
				c1.5-1,3.2-0.4,4.7-0.2c9.8,1.5,19.2-0.1,28.5-3.3C609.5,495,610.9,494.1,612.3,495.2z"/>
			<path class="st84" d="M601.3,415.9c-13.2-1.2-25.7,1.5-37.7,6.7c-2.3-0.3-2.2-2.3-2.8-3.9c13.3-5.9,27.2-8.7,41.8-7.5
				C602.5,412.9,603.9,415,601.3,415.9z"/>
			<path class="st84" d="M537.7,421.6c-7.7-6-16.7-8-26.2-8.8c-3.6-0.3-7.2,0-10.8,0.1c-1.6-1.6-0.1-3.2,0.1-4.7
				c7.7-0.1,15.5-0.1,23,1.9c6.1,1.6,11.8,4.1,16.8,7.9C540.5,419.8,540.2,421.6,537.7,421.6z"/>
			<path class="st82" d="M520.2,498.9c-0.4,2.2-2.2,2.2-3.8,2.2c-9.5,0.3-18.4-2.6-27.4-5.4c-2.5-0.8-3-2.7-2.5-5.1
				c1.1-1.8,2.7-1.1,4-0.6c8.6,3.7,17.6,5.4,26.8,6.3C518.7,496.5,521,496.1,520.2,498.9z"/>
			<path class="st85" d="M606.3,469.7c-0.7-2.7-1.9-3-4.7-1.9c-7.9,3.2-16.2,4.5-24.7,2.2c-1.3-0.4-2.5-0.6-2.8,1.2
				c-1.2-1.3-0.5-3-0.8-4.5c10.1,2.7,19.9,2.3,29.6-1.7c1.7-0.7,2-1.9,2-3.6c-0.1-7.2,0-14.5-0.1-21.7c-0.2-0.3-0.2-0.6,0.1-0.9
				c0.8,0.9,0.6,2.1,0.6,3.2C605.8,451.2,605.3,460.4,606.3,469.7z"/>
			<path class="st83" d="M548.8,397.8c-5.2-3.5-11.3-4.9-17.2-6.6c-7.6-2.1-15.4-3.5-23.3-4c0.2-0.8,0.5-1.5,0.7-2.3
				c6.5,1.4,13.2,1.7,19.7,3.4c7.4,1.9,14.4,4.5,21.5,7.1C550.2,396.5,549.6,397.2,548.8,397.8z"/>
			<path class="st85" d="M520.2,498.9c-1.7-3.1-5-1.8-7.3-2c-8-0.7-15.5-2.9-22.9-5.9c-1.1-0.5-2.3-1.1-3.5-0.3
				c0.4-1.5,0.4-3.2,1.4-4.5c0.8,2.6,3.3,2.8,5.3,3.6c8.9,3.5,18.3,4.8,27.9,5.5C520.8,496.5,521.4,497.9,520.2,498.9z"/>
			<path class="st83" d="M593.6,387.9c-10.5,1.4-20.9,2.8-30.8,6.7c-2.6,1-5.5,1.5-7.5,3.9c-0.8-0.9-1.3-1.9-1.3-3.1
				c5.9-1.4,11.4-4.3,17.3-5.7c6.5-1.5,13.1-2.8,19.8-3.3c0.8-0.1,1.7-0.5,2.5-0.7C593.6,386.4,593.6,387.2,593.6,387.9z"/>
			<path class="st85" d="M612.3,495.2c-8.2,3-16.5,5.3-25.3,5.1c-4-0.1-8.1-0.9-12.1-1.4c0-0.5,0-1,0-1.5c9.3,1.2,18.5,1,27.5-1.5
				c3.1-0.9,6.1-2,9.2-3C611.9,493.7,612.1,494.4,612.3,495.2z"/>
			<path class="st36" d="M605,438.8c0,0.3-0.1,0.6-0.1,0.9c-11.8,2.5-23.8,4.2-35.9,3.7c-0.5-0.9-0.9-1.9-0.7-3
				c0.7,0.6,1.2,1.6,2.5,1.4c10.9-1.4,22.1-1,32.8-4.3c0.5-0.1,1-0.1,1.5-0.1C605,437.9,605,438.3,605,438.8z"/>
			<path class="st36" d="M497.6,429c-0.4,2.4,1.2,3.1,3.1,3.8c10.5,3.8,21.3,4.1,32.3,3.8c-0.1,1.1,0.2,2.2-0.7,3.1
				c-0.9-1.2-2.3-0.9-3.5-0.8c-10.5,0.3-20.7-0.9-30.4-5.1c-0.4-0.2-1-0.1-1.5-0.1C497.1,432.1,496.5,430.5,497.6,429z"/>
			<path class="st85" d="M525.5,469.7c-2.7-1.7-5.8-1.1-8.6-1.4c-6.9-0.5-13.5-1.9-19.9-4.4c-1.9-0.7-2.3,0-3,1.2
				c0.1-2-0.5-4.1,0.6-6.1c0.1,1.5,1.1,2,2.4,2.5c9.4,3.7,19.1,5.4,29.2,5.1C526.1,467.7,526.4,468.8,525.5,469.7z"/>
			<path class="st82" d="M485.7,360.9c-1.3-6.3-0.1-12.5,0.9-18.7c1.4-1.2,2.8-0.5,4.2-0.1c5.6,1.8,11.1,3.8,17.1,3.6
				c1.1,0,2.6-0.1,2.6,1.8c-0.9,5.4-2.4,10.5-5.6,15.1c-1.3,1.8-2.7,3.2-4.9,3.6c-0.9,0.7-1.9,0.5-2.8,0.1
				C493.4,364.5,489,363.7,485.7,360.9z"/>
			<path class="st82" d="M514.3,334.1c-0.5,3.8-1.5,7.5-3.1,11.1c-2.5,1.5-5.1,0.8-7.6,0.3c-5.7-1.2-11.5-2-16.4-5.6
				c0.4-4.6,1.8-9.1,3-13.5c0.9-1.8,2.5-1.9,4.2-1.6c6,1.1,11.9,2.7,17.4,5.3C513.4,330.9,515,331.8,514.3,334.1z"/>
			<path class="st4" d="M497.8,371.4c-0.7,2.9-1.4,5.8-2.2,8.6c-0.3,1.1-0.6,2.9-2.1,2.8c-1.6-0.2-1-2-1.1-3.1
				c-0.2-1.4,0.7-3.7-1-3.9c-1.9-0.3-2.5,2.1-3.1,3.6c-1,2.8,0.2,5.9-1,9.7c-1.2-3.1-5.7-1.3-5.4-5.8c0.2-2.6-1.1-5.3-0.2-8.1
				c0.8-2.7-0.2-5.8,2-8.2c0.3-0.2,0.7-0.6,1-0.4C488.5,369.2,493.3,369.9,497.8,371.4z"/>
			<path class="st83" d="M514.3,334.1c-0.1-1.2-0.8-2-1.9-2.5c-6-2.9-12.4-4.7-19-5.8c-1.1-0.2-2.2,0.1-3.2,0.7
				c0.4-1.6,0.4-3.2,1.4-4.6c0.1,1.3,1,1.4,2.1,1.6c6.7,1.2,13.3,2.9,19.4,6.1c0.7,0.4,1.7,0.4,2.5,0.6
				C515.4,331.5,515.1,332.9,514.3,334.1z"/>
			<path class="st4" d="M499.2,368.4c-0.3,0.7-0.5,1.5-0.8,2.2c-5,0.3-9.3-1.6-13.5-4c-0.9-0.5-1.4-1-0.8-2c-0.1-1.1,0.3-2,0.8-2.9
				c0.6-0.5,1.1-0.4,1.7,0c3.3,2,7,3.3,10.6,4.5C498.4,366.5,500.1,366.4,499.2,368.4z"/>
			<path class="st83" d="M487.2,339.9c3.8,1.1,7.5,2.2,11.3,3.4c4.1,1.3,8.4,2,12.7,1.8c0,0.8,0,1.7-0.7,2.3c-2.9-2-6.3-0.2-9.4-1.2
				c-4.8-1.6-9.7-2.7-14.6-4.1C486.8,341.4,487,340.7,487.2,339.9z"/>
			<path class="st7" d="M484.2,364.6c0.2,1.6,1.4,1.9,2.6,2.3c3.9,1.3,7.8,2.5,11.7,3.8c-0.2,0.3-0.4,0.5-0.7,0.8
				c-5.4,0.7-9.9-1.8-14.2-4.5C483.5,366.1,483.4,365.2,484.2,364.6z"/>
			<path class="st13" d="M499.2,368.4c-0.2-0.4-0.4-1.2-0.7-1.2c-5-0.7-9.2-3.2-13.5-5.5c0.2-0.3,0.5-0.5,0.7-0.8
				c4.8,1.8,9.5,3.5,14.3,5.3C499.9,367,500,367.9,499.2,368.4z"/>
			<path class="st86" d="M508.2,287.4c0.8,0.4,1.6,0.9,2.3,1.3c-0.3,3.2-2.5,3.4-4.9,3.3c-0.9-0.2-1.5-0.6-1.8-1.6
				c-0.3-1.6,0.3-2.4,1.9-2.4C506.5,287.7,507.2,286.9,508.2,287.4z"/>
			<path class="st87" d="M510.4,296.3c0.2,1.1-0.5,1.9-1.2,2.6c-0.3-0.1-0.6-0.2-0.9-0.4c-1.7-2.3-5.2-2.6-6.2-5.6
				c0.2-0.5,0.4-1.1,0.7-1.6c0.9,0.1,1.8,0.4,2.8,0.7C507.1,293.4,509.8,293.6,510.4,296.3z"/>
			<path class="st88" d="M509.1,298.9c-0.3,0.9-0.7,1.6-1.5,2.1c-2.9-1-5.6-2.2-7-5.2c0.3-0.4,0.6-0.7,0.9-1.1
				c3.2-0.1,5.1,2.4,7.4,4L509.1,298.9z"/>
			<path class="st89" d="M506.1,303.2c-3.2,1.9-4.5-1.8-6.8-2.4c-0.5-0.7-0.5-1.5,0-2.2C502.4,298.7,505,299.8,506.1,303.2z"/>
			<path class="st90" d="M509,298.7c-2.9-0.5-4.8-3-7.4-4c-0.1-0.7-0.2-1.4,0.5-1.9C504.1,295,508,295.1,509,298.7z"/>
			<path class="st91" d="M500.6,295.8c2.3,1.8,5.2,2.8,7,5.2c-0.1,0.2-0.2,0.3-0.3,0.5c-3.3,0.4-5.1-2.1-7.3-3.8
				C499.9,297,499.8,296.2,500.6,295.8z"/>
			<path class="st92" d="M500,297.7c2.6,0.9,4.4,3.4,7.3,3.8c-0.1,0.8-0.6,1.3-1.3,1.7c-1.9-2.2-4.4-3.2-6.8-4.6
				C499.5,298.3,499.8,298,500,297.7z"/>
			<path class="st93" d="M508.2,287.4c-0.8,0.2-1.7,0.4-2.5,0.6c0.3-0.8,0.1-1.8,1.1-2.2C507.3,286.3,508.2,286.5,508.2,287.4z"/>
			<path class="st94" d="M505.1,292c-1,0.4-1.8,0.2-2.4-0.8c0.4-0.3,0.7-0.5,1.1-0.8c0.5,0.2,0.9,0.5,1.4,0.7
				c0.2,0.2,0.2,0.4,0.2,0.6C505.3,291.9,505.2,292,505.1,292z"/>
			<path class="st82" d="M579.3,226c1.5,1.5,3.1,3,4.6,4.6c7,9.9,9.1,20.5,4.7,32.1c-1.1,3-2.9,5.5-4.8,8c-0.8,1-1.5,2-1.4,3.3
				c-3.9,5.2-9.5,7.5-15.6,8.8c-10.3,2.3-19.8,0.4-28.2-6.2c-1.6-1.3-3.6-2.4-3.5-4.9c-2.8-5-5.8-9.7-6.8-15.6
				c-2.8-16.2,8.5-32.9,24.6-36.1C562.6,217.9,571.2,220.6,579.3,226z"/>
			<path class="st82" d="M623.7,344.4c0,1.2-0.1,2.5-0.1,3.7c-1.3,1.9-3.5,2.2-5.4,2.9c-4.1,1.5-8.3,2.3-12.6,2.6
				c-2.3,0.2-4.7,0.2-6.5-1.8c-1-4.7-2.2-9.4-2.4-14.2c6-3.1,12.6-3.3,19.1-4.5c1-0.2,2-0.2,3-0.3c1.4-0.1,2.7,0.2,3.4,1.7
				C622.6,337.9,623.2,341.1,623.7,344.4z"/>
			<path class="st95" d="M605.1,288c4.5,4.7,6.8,10.4,8.2,16.6c-4.1,2.3-7.6,1.3-11-3c-1.6-3.5-2.7-7.1-0.7-10.9
				C602.4,289.3,603.1,287.8,605.1,288z"/>
			<path class="st9" d="M535.1,271.6c10.8,13,31.5,14.8,44.5,4c0.8-0.7,1.5-1.7,2.8-1.7c0.8,0.7,1.6,1.4,2.4,2.2
				c-1.5-0.1-2.5,0.9-3.6,1.7c-13.7,10.2-35.7,8.9-46.6-2.6c-0.3-0.4-0.6-0.8-0.9-1.2C533.7,272.9,534.2,272.2,535.1,271.6z"/>
			<path class="st36" d="M622.1,334.6c-3.9-1.9-7.8-0.2-11.6,0.4c-4.6,0.7-9.2,1.8-13.8,2.7c-0.9-0.9-0.7-1.9-0.6-3
				c1.4,0.9,2.7,0.6,4.2,0.2c6.9-1.8,14-2.6,21.1-3.2C621.9,332.6,622.3,333.5,622.1,334.6z"/>
			<path class="st96" d="M602.8,301.4c2.8,3.2,6.4,4.2,10.5,3.3c0.6,0.5,0,0.9-0.1,1.3c-0.9,0.4-1.8,0.7-2.7,1.1
				c-5.8,2.3-5.8,2.3-7.8-3.8C602.3,302.6,602.2,302,602.8,301.4z"/>
			<path class="st97" d="M602.8,301.4c0,0.6-0.1,1.3-0.1,1.9c-2.4-4.1-4.1-8.2-1.8-12.9c0.7-1.5,1.5-2.9,3.3-3.1
				c0.3,0.3,0.6,0.5,0.9,0.8C600.9,291.5,600.4,294.8,602.8,301.4z"/>
			<path class="st82" d="M623.8,350.4c0.2,0,0.4,0.1,0.6,0.2c0,5.4,0,10.8,0,16.3c-0.8,1.1,0.2,2.6-0.9,3.6
				c-5.8,2.1-11.6,3.9-17.9,1.8c-3-5.7-5.1-11.7-6-18.1c8,0.1,15.8-1.5,23.4-4C623.3,350.1,623.5,350.3,623.8,350.4z"/>
			<path class="st4" d="M623.7,376.7c-0.6,3.8-1,7.7-1.9,11.3c-0.6,2.5-0.1,7.8-5.7,7c-0.9-0.1-1.1,1.7-2.4,1.4
				c-1.1-1.6,0.2-3.1,0.5-4.5c0.7-2.6,0.8-5.1-0.1-7.7c-0.2-0.6-0.3-1.3-1.1-1.3c-0.7,0-1,0.6-1.2,1.2c0,0.1,0,0.3-0.1,0.4
				c-1,1.5-0.6,5.2-2.7,4.3c-1.9-0.8-2.2-4.4-1-7c0.9-1.2-0.1-2.8,0.7-4c1.5-1,3-0.6,4.6-0.5c2.7,0.2,5.3-0.5,7.9-1.1
				C622,376.1,623.2,374.6,623.7,376.7z"/>
			<path class="st4" d="M608.7,378.2c-0.2,1.3,0.5,2.7-0.7,3.7c0.5-3.3-1.5-6-2.2-9c6,0,12,0,17.6-2.6c0.4-0.1,0.8,0,1.1,0.4
				c0,0.5,0,0.9,0.1,1.4c0,0.8,0,1.5,0,2.3c0,0-0.1,0-0.1,0c-3,3.4-7.2,2.7-11.1,3.1C611.8,377.7,610.1,377,608.7,378.2z"/>
			<path class="st83" d="M623.8,350.4c-7.7,3.5-15.5,6-24.1,3.8c-0.8-0.6-0.7-1.4-0.6-2.3c7.2,1.9,13.9-0.4,20.7-2.5
				c1.3-0.4,2.6-0.8,3.9-1.2C623.7,348.9,623.7,349.6,623.8,350.4z"/>
			<path class="st13" d="M623.7,370.6c-5.7,3.4-11.7,3.8-18,2.3c0-0.2-0.1-0.5-0.1-0.7c6.1,0.1,12.1-1.1,18-2.3
				c0.2,0.1,0.3,0.3,0.3,0.5C623.9,370.5,623.8,370.6,623.7,370.6z"/>
			<path class="st12" d="M608.7,378.2c0.5-2.2,2.3-1.4,3.6-1.5c4.1-0.4,8.3-0.2,12.1-2.3c0,0.8,0.1,1.7-0.7,2.3
				C618.8,378.3,613.8,378.9,608.7,378.2z"/>
			<path class="st2" d="M623.7,370.6c0-0.2,0-0.5-0.1-0.7c0.2-1-0.1-2.2,0.7-3.1c0,1.3,0,2.6,0,3.9
				C624.2,370.7,624,370.6,623.7,370.6z"/>
			<path class="st98" d="M575.7,294.9c1.7,3.1,0.4,6.5,0.7,9.8c0.2,2,0.3,4,0,5.9c-0.5,3.3-0.3,5.8,3.8,6c0.2,0.9-0.5,1.1-1.1,1.2
				c-7.5-0.1-15.1,0.4-22.6-0.6c-2.6-0.4-5.2-0.3-7.6,1c-2.1-0.1-0.4,1.5-0.9,2.1c-0.3,0.4-0.3,1.2-1,1.4c-0.8,0.2-1.2-0.5-1.2-1
				c-0.2-2.5-1.6-4.9-0.1-7.4c0.5-0.2-0.2-0.1,0.3-0.2c5.9-1.7,5.9-1.7,6-8c0-1.7-0.2-3.5,1-5c2.5,0.3,1.1,2.1,1.3,3.3
				c0,3.2,0,6.5,0,9.7c0,0.1,0.1,0.2,0.1,0.2c-0.2-3.2-0.1-6.6-0.1-9.9c1-2,1.6-0.7,1.9,0.3c0.6,1.9,0.2,3.9,0.4,5.8
				c0,2.7,1.4,3.7,4,3.6c3.4-0.1,6.7,0,10.1,0c2.2,0,3.2-1,3.1-3.2c-0.2-4.7,0.9-9.4,0.7-14.1C574.6,295.3,574.8,294.7,575.7,294.9z
				"/>
			<path class="st85" d="M545.7,313.7c0.3,2.4,1.1,4.8,1.5,7.3c0-1.2,0-2.4,0-3.5c0-0.2,0.1-0.5,0.1-0.7c0.9,0.2,0.5,0.9,0.6,1.4
				c2.1,4.6,1.6,9.3,0.4,14c-0.6,0.5-1.2,0.5-1.3-0.3c-0.3-2.6-0.1-5.1-0.2-7.7c0.1,2.7-0.2,5.5,0.2,8.2c0.2,1.4,0,2.4-1.3,3.2
				c-1.2,2.2-3.2,1.4-5,1.3c-1.2-0.1-2.4-0.5-3.6-0.6c-5.3-0.3-6.4-1.5-5.3-6.6c0.9-3.9,0.2-7.9,0.4-11.9c0.1-1.6,0.1-3.2,2.2-3.2
				c1.9,0,1.8-1,1.7-2.4c-0.2-2.2,0-4.5,0-6.7c2.9,0.9,1.2,3.5,2,5.3c0.6,1.8,2.1,1.8,3.6,1.9C543,312.7,544.6,312.4,545.7,313.7z"
				/>
			<path class="st99" d="M545.7,335.4c1.6-3.9,0.1-8,1-12.3c1.3,3.2-0.6,6.5,1.2,9.3c1.3,0.7,2.4,1.7,4,1.7c7.3,0.3,14.6,1.1,22,0.8
				c3.8-0.2,4.2-0.5,4.3-4.4c0.1-2.9,0-5.7,0-8.6c0-1.6-0.2-3.3,1.2-4.5c0.2-0.3,0.5-0.5,0.7-0.8c1.5,6.5,1,13-0.2,19.5
				c-0.3,1.5-1.7,1.5-3,1.6c-9.1,0.2-18.1-1.3-27.2-0.7C548.2,337,547.3,335.4,545.7,335.4z"/>
			<path class="st100" d="M536.7,311.4c-0.3-2,0.7-4.2-0.7-6c-0.2-9.6-0.4-9.1,8.8-9c1.5,0,3-0.1,4.4,0.3c3.1,0.9,5.8,1.4,7-2.6
				c0.6,0.3,1.1,0.7,1.2,1.5c0.1,3.6,0,7.2-0.1,10.8c0,1.4,0.2,3.1-1.8,3.5c0-2.1,0-4.2,0-6.4c0-0.1-0.1-0.3-0.2-0.3
				c-0.6-0.1-0.5,0.3-0.6,0.6c-0.2,0.3-0.5,0.4-0.7,0c-0.2-1.3,0.5-2.7-0.7-3.8c-3.7-1.5-7.6-1-11.4-1.1c-2.2,0-3.1,1.1-3.1,3.2
				c0,2,0.1,4-0.1,6C538.4,309.5,538.7,311.2,536.7,311.4z"/>
			<path class="st101" d="M505.1,292c0-0.3,0-0.6,0.1-0.8c2.3,0.3,4.1-0.5,5.3-2.4c0.5,0.5,1,1,1.4,1.6c0.5,0.5,0.4,1.1,0.2,1.7
				c-0.3,0.5-0.6,1-0.7,1.5c-0.1,0.3-0.1,0.5-0.1,0.8c0.3,1-0.6,1.3-1,1.9C509,294.4,506,294.5,505.1,292z"/>
			<path class="st46" d="M587.8,309.6c2.3,3.3,2.2,6.2,3.6,9.6C587.2,316.7,587.6,313.7,587.8,309.6z"/>
			<path class="st17" d="M525,304c2.1,3.5,0.7,5.7-1.3,8.6C523,309.1,524.2,306.9,525,304z"/>
			<path class="st98" d="M557,294.9c-0.3-0.2-0.5-0.5-0.8-0.7c0.2,0,0.5,0,0.7,0c1.5-0.6,3-0.6,4.5,0c3.7,0,7.5,0,11.2,0
				c-0.2,2-1.9,1.6-3.1,1.8c-1.5,0.2-2.9,0-4.4,0.2C562.4,295.9,559.5,296.9,557,294.9z"/>
			<path class="st100" d="M565.2,294.9c2.5-0.3,5.1,0.8,7.5-0.7c1,0.1,2.2-0.3,3,0.7c-0.2,0.3-0.5,0.5-0.7,0.8
				C571.1,297.7,567.3,297.4,565.2,294.9z"/>
			<path class="st102" d="M511.2,292c0.6-0.4,0.7-1,0.8-1.7c3,1.9,0.9,2.9-0.6,4.1c0,0-0.2-0.2-0.2-0.2c-0.2-0.2-0.2-0.5-0.2-0.7
				c0.1-0.2,0.1-0.5,0-0.7C510.9,292.4,511,292.1,511.2,292z"/>
			<path class="st100" d="M561.5,294.1c-1.5,0-3,0-4.5,0C558.4,293,559.9,293.1,561.5,294.1z"/>
			<path class="st7" d="M525.5,362.4c17.2,1.7,34.4,2.7,51.7,2.2c1.3-0.2,2.8-1.2,3.7,0.7c-7,0.7-14,1.6-21.1,1.6
				c-11.8,0-23.5-1.4-35-3.8C524.6,362.4,524.7,362.1,525.5,362.4z"/>
			<path class="st52" d="M580.9,365.4c-1.1-1.2-2.5-0.5-3.7-0.7c3.2-1.1,6.5-1.2,9.7,0C584.9,364.9,582.9,365.1,580.9,365.4z"/>
			<path class="st53" d="M525.5,362.4c-0.2,0.2-0.5,0.5-0.7,0.7c-1.2-0.2-2.5-0.5-3.7-0.7c-0.2-0.7-0.1-1,0.7-0.7
				C523,361.8,524.4,361.2,525.5,362.4z"/>
			<path class="st103" d="M521.7,361.6c-0.2,0.2-0.5,0.5-0.7,0.7c-1-0.6-2.3-0.5-3-1.5C519.2,361.1,520.6,360.4,521.7,361.6z"/>
			<path class="st98" d="M604.2,488.4c-8.5-4.3-16.3-2.6-23.4,3.1c2.1-7.6,18.6-11,24.2-3.1C604.7,488.7,604.4,488.7,604.2,488.4z"
				/>
			<path class="st104" d="M604.2,488.4c0.3,0,0.5,0,0.8,0c0.6,0.3,1.6,1.2,1.2,1.4C605.1,490.4,604.7,489.1,604.2,488.4z"/>
			<path class="st98" d="M493.1,483.8c9.2-5.7,20.2-2.6,25.2,7.2C511.5,483.1,502.8,481.7,493.1,483.8z"/>
			<path class="st105" d="M585.4,248.4c3,16.3-8.8,28.4-20.4,30.7c-14.9,3-28.5-5.7-31.8-20.3c-0.9-3.9-1-7.9,0.4-11.8
				c6.3-18.8,28-25.2,43.5-12.8C581.8,237.9,584.2,242.8,585.4,248.4z"/>
			<path class="st28" d="M585.4,248.4c-2.2-5.2-5-9.8-9.2-13.8c-9.4-8.7-33-7.4-39.7,7.6c-0.8,1.7-1.9,3.2-2.8,4.8
				c0.6-10.3,10.6-20.5,20.9-21c6.4-0.4,13-0.8,18.9,2.9C580.6,233.4,584.9,239.8,585.4,248.4z"/>
			<path class="st82" d="M579.5,317.4c0,5.1-0.1,10.2,0,15.3c0,2.3-0.7,3.4-3.2,3.5c-8.7,0.4-17.4-0.8-26.1-0.8
				c-2.3,0-2.2-1.5-2.2-3c0-4.7,0-9.5,0-14.2c2-4,5.8-2.4,8.6-2.1c6.7,0.8,13.4,0.4,20.2,0.6C577.7,316.7,578.7,316.5,579.5,317.4z"
				/>
			<path class="st82" d="M565.2,294.9c3.2,1.6,6.5,0.3,9.8,0.7c1.1,2,1,4.2,0.5,6.2c-0.3,1.5-0.5,2.9-0.5,4.4c0,8.1,0,8.1-8,8.1
				c-2.4,0-4.8-0.2-7.1,0c-3.5,0.4-4.9-1.1-4.4-4.5c1.5-2.3,0.5-4.9,0.7-7.3c0.3-2.6-0.6-5.3,0.8-7.7
				C559.7,294.9,562.4,294.9,565.2,294.9z"/>
			<path class="st82" d="M536.7,311.4c1.5-3.3,0.6-6.8,0.7-10.2c0-2.6,0.8-3.6,3.4-3.4c3.1,0.2,6.2,0.1,9.3,0c1.6,0,3,0.3,3.2,2.3
				c0,2.8,0,5.7,0,8.5c0,5,0,5-4.9,5c-0.9,0-1.7,0-2.6,0c-2,0-3.9,0-5.9,0C538.2,313.7,536.9,313.4,536.7,311.4z"/>
			<path class="st83" d="M553.9,303.9c0.2,0,0.5,0,0.7,0c0,3.7,0,7.4,0,11.1c-0.2,0-0.5,0-0.7,0
				C553.9,311.3,553.9,307.6,553.9,303.9z"/>
			<path class="st82" d="M545.7,325.1c0,0.5,0,1,0,1.5c0.1,10.9-0.6,8.5-10.1,8.7c-1.9,0-2.6-1-2.7-2.8c-0.2-5,0.2-9.9,0.8-14.9
				c0-0.2,0-0.6,0.1-0.7c3-2.2,6.4-0.8,9.6-1c2-0.1,2.2,1.5,2.2,3.2C545.7,321.1,545.7,323.1,545.7,325.1z"/>
			<path class="st86" d="M511.2,292c0,0.3,0,0.6,0.1,0.8l0.2,0.3l-0.3,0.3c0,0.2,0,0.5,0,0.7C510.2,293.4,510.3,292.7,511.2,292z"/>
			<path class="st106" d="M511.2,293.4c0-0.2,0.1-0.4,0.1-0.6c0.2,0.1,0.3,0.2,0.5,0.3C511.5,293.2,511.4,293.3,511.2,293.4z"/>
			<path class="st107" d="M563.4,330.8c-3.1,0-6.2-0.1-9.3,0c-2.2,0-3.3-0.8-3-3.1c0.1-1.2,0.1-2.5,0.1-3.7
				c-0.1-2.2,1.1-2.8,3.1-2.7c6.2,0.3,12.5,0.5,18.7,0.6c2.3,0,3,1,2.9,3.2c-0.3,7.2,0.4,6-6,6.1c-2.1,0-4.2,0-6.4,0
				C563.4,331,563.4,330.9,563.4,330.8z"/>
			<path class="st108" d="M565.9,299c2.8,0,5.2,2.4,5.3,5.2c0.1,3-2.4,5.6-5.4,5.5c-3,0-5.3-2.5-5.2-5.6
				C560.6,301.3,563,299,565.9,299z"/>
			<path class="st109" d="M570.6,325.8c-0.2,1.5-0.9,2.6-2.6,2.3c-0.9-0.2-0.9-1.3,0-4.3c1.6-0.4,0,2.4,1.8,1.8
				C570.1,325.4,570.4,325.4,570.6,325.8z"/>
			<path class="st110" d="M570.6,325.8c-0.3-0.1-0.5-0.1-0.8-0.2c0.4-0.8,0.5-2.1,1.7-1.9c1.1,0.2,0.6,1.4,0.6,2.2
				c0,1-0.1,1.9-0.2,3C570.4,328.2,571.8,326.5,570.6,325.8z"/>
			<path class="st111" d="M560.7,326.4c-0.3,1-0.1,2.4-1.8,2.1c-0.3-0.1-0.9-0.3-0.9-0.4c-0.1-1.3,1.3-1.4,1.9-2.2
				C560.3,325.9,560.6,326.1,560.7,326.4z"/>
			<path class="st112" d="M563.7,325.7c0-1.2,0.2-2.5,1.7-2.1c0.9,0.2,1.4,1.7,1,2.5c-0.6,1.1-1.2-1.1-2-0.4
				C564.2,325.9,563.9,325.9,563.7,325.7z"/>
			<path class="st113" d="M560.7,326.4c-0.2-0.2-0.5-0.4-0.7-0.5c0.5-0.8,0.9-1.6,1.7-3C562.4,324.8,562.4,325.8,560.7,326.4z"/>
			<path class="st114" d="M563.7,325.7c0.2,0,0.4,0,0.7,0c0.1,1.1-0.3,2.1-1.3,3.1C562.5,327.4,562.8,326.5,563.7,325.7z"/>
			<path class="st113" d="M555.3,325.4c0.2-0.7,0-2.3,1.3-1.5c1.8,1.1-1.1,1.4-0.6,2.4C555.3,326.4,555,326.2,555.3,325.4z"/>
			<path class="st115" d="M555.3,325.4c0.2,0.3,0.5,0.6,0.7,0.9c-0.4,0.6-0.3,2.2-1.2,1.6C554,327.6,554.7,326.2,555.3,325.4z"/>
		</g>
	</g>
</g>
</svg>
