<?xml version="1.0" encoding="utf-8"?>
<!-- Generator: Adobe Illustrator 22.1.0, SVG Export Plug-In . SVG Version: 6.00 Build 0)  -->
<svg version="1.1" id="Layer_1" xmlns="http://www.w3.org/2000/svg" xmlns:xlink="http://www.w3.org/1999/xlink" x="0px" y="0px"
	 viewBox="0 0 325.8 325.8" style="enable-background:new 0 0 325.8 325.8;" xml:space="preserve">
<style type="text/css">
	.st0{fill:#B3B3B3;}
	.st1{fill:#B4B4B4;}
	.st2{fill:#B7B7B7;}
	.st3{fill:#B9B9B9;}
	.st4{fill:#DCDCDC;}
	.st5{fill:#E6E6E6;}
	.st6{fill:#FEFEFE;}
	.st7{fill:#F4F4F4;}
	.st8{fill:#EF3B37;}
	.st9{fill:#E7E9E9;}
	.st10{fill:#F5F5F5;}
	.st11{fill:#E6E8E8;}
	.st12{fill:#D2D5D5;}
	.st13{fill:#D3D6D6;}
	.st14{fill:#56AED1;}
	.st15{fill:#C7D6DE;}
	.st16{fill:#E2DBDB;}
	.st17{fill:#C76666;}
	.st18{fill:#CA6666;}
	.st19{fill:#CE7E7E;}
	.st20{fill:#E2D5D5;}
	.st21{fill:#63ACC9;}
	.st22{fill:#5EB2D4;}
	.st23{fill:#195F7B;}
	.st24{fill:#D1D4D4;}
	.st25{fill:#EBCF52;}
	.st26{fill:#E6CF68;}
	.st27{fill:#D3D5D5;}
	.st28{fill:#E8EAEA;}
	.st29{fill:#EAECEC;}
	.st30{fill:#E9EBEB;}
	.st31{fill:#3FA5CD;}
	.st32{fill:#D6D9D9;}
	.st33{fill:#D7DADA;}
	.st34{fill:#51A2C3;}
	.st35{fill:#DADCDC;}
	.st36{fill:#DDDFDF;}
	.st37{fill:#E9EAEA;}
	.st38{fill:#F1F3F3;}
	.st39{fill:#F7D548;}
	.st40{fill:#D1D3D3;}
	.st41{fill:#E7F3F8;}
	.st42{fill:#BA2E2E;}
	.st43{fill:#1B607E;}
	.st44{fill:#D7A7A7;}
	.st45{fill:#E0CBCB;}
	.st46{fill:#DFC9C9;}
	.st47{fill:#DCBFBF;}
	.st48{fill:#DBB8B8;}
	.st49{fill:#D8AEAE;}
	.st50{fill:#D9B1B1;}
</style>
<g id="wVlFMK_1_">
	
		<image style="overflow:visible;" width="616" height="462" id="wVlFMK" xlink:href="759A139E1E8CBBA.jpg"  transform="matrix(0.75 0 0 0.75 713.3177 -172.2924)">
	</image>
</g>
<g id="tnWC4D_1_">
	
		<image style="overflow:visible;" width="616" height="462" id="tnWC4D" xlink:href="759A139E1E8CBBE.jpg"  transform="matrix(0.75 0 0 0.75 755.5847 35.5916)">
	</image>
</g>
<g id="ahfPTE_1_">
	<g>
		<g>
			<path class="st0" d="M196.4,133.7c-1.2,8.8-0.7,17.7-1.6,26.5c-0.4,4.1,0.7,7.9,2.2,11.7c0.9,2.3,1.8,4.4,1.2,7.2
				c-0.5,2.4,1.7,4.5,2.7,6.7c4.7,10.8,6,22.2,7.5,33.7c1.4,10.3,1.5,20.7,1.3,31c-0.1,5,1,9.9,0.9,14.9c-0.1,7.7,0,7.7,3.4,14.7
				c1.9,3.9,2.5,8.1,3,12.3c0.2,2.2-1.2,3.4-3.2,4c-11.1,3.2-22.5,4.3-34,3.2c-2.4-0.2-3.5-1.6-3.7-3.9c-0.6-6-0.4-12,2.2-17.6
				c0.9-1.9,0.8-3.3-0.6-5.1c-2.5-3.2-2.2-7.3-3-11c-2.8-13.2-3.6-26.9-8.6-39.3c-4.3-10.7-5.7-22.4-11.1-33.1
				c-2.5,2.8-3.8,6-5.1,9.2c-1.2,3.1-2.7,6.3-3.3,9.5c-0.8,5.1-5.3,8-6.7,12.7c-2.7,8.8-4.2,17.9-6.4,26.9c-1.7,7.1-2,14.9-5.1,21.4
				c-3.4,7.3-1.3,14.7-3.3,21.8c-1,3.4-2.6,5-6.2,5c-9.8,0.2-19-2.6-28.1-5.7c-2.4-0.8-3.5-2.5-3.3-5.2c0.3-4.7,2-8.8,5.2-12.1
				c1.8-2,2.5-4,2.4-6.7c-0.4-10.6,1.4-21.1,1.9-31.7c0.5-10.4,2.7-20.5,4.5-30.6c1.8-10.4,6.1-20.5,10.3-30.3
				c2.3-5.2,3.4-10.4,4.6-15.7c2.5-11.7,4.7-23.4,5.7-35.3c0.8-0.6-0.3-2.1,1.1-2.4c1.1,0.5,1.2,1.6,1.4,2.6
				c0,7.9-1.9,15.6-3.2,23.4c-0.8,2.5-0.5,5.3-1.4,7.8c-2,8.1-2.8,16.6-7.5,23.9c-0.2,0.9-0.6,1.8-0.9,2.7
				c-1.9,7.1-4.1,14.2-7.2,20.9c-0.6,1.6-0.8,3.2-0.4,4.8c-0.2,5.4-2.6,10.5-3,15.9c-0.6,1.6-0.4,3.3-0.6,4.9
				c-0.9,8.2-1.6,16.4-2.3,24.7c-0.7,2-0.6,4.1-0.6,6.1c1.1,8-0.3,15.3-6.2,21.3c-0.7,1.5-1.1,3.2-1.3,4.9c0,2,0.9,3.4,2.8,4
				c7.9,2.5,15.7,5,24.1,5.1c1.8,0,3.5,0,4.8-1.6c0.9-1.1,0.7-2.5,1-3.8c0-0.4,0.2-0.8,0.1-1.1c-0.9-8.3,2-15.9,4.2-23.6
				c0.4-1.1,0.6-2.4,0.8-3.6c2-8.8,4.1-17.6,6.1-26.4c0.4-1.1,0.5-2.3,0.7-3.4c1.4-5,2.3-10.1,4.8-14.7c1.3-1.2,2.5-2.4,3-4.2
				c2.6-5.1,3.6-10.8,6-16c0.6-1.3,1.2-2.7,2-4c0.6-0.9,1.3-1.8,1.5-2.9c0.4-1.3,0.5-2.7,1-4c0.3-0.9,0.5-2.2,1.7-2.1
				c1,0.1,1.5,1.2,1.7,2.2c0.4,1.3,0.5,2.7,0.8,4c0.2,1.3,0.9,2.5,1.4,3.7c2.7,6.2,4.2,12.7,5.5,19.3c0.2,1.9,1.5,3.3,2.5,4.7
				c2,5.7,3.6,11.6,4.9,17.5c0,1.2,0.5,2.3,0.7,3.5c1.6,7.6,2.9,15.2,4.3,22.8c0.4,1.6,0.1,3.2,0.8,4.7c0.7,2.9,1.2,5.8,2.9,8.4
				c1.4,2,1.1,4.3,0.2,6.4c-1.5,3.6-2.2,7.4-2.1,11.3c0,0.6,0,1.2,0,1.8c0.4,4.4,0.5,4.5,4.9,4.6c8.6,0.2,17.2,0.1,25.6-2.1
				c3.2-0.8,5.2-2.3,4.8-5.9c0-1-0.3-1.9-0.7-2.8c-1-3.4-2.5-6.5-4.5-9.4c-1.7-2.4-2.4-4.8-1.3-7.7c0.9-2.2,0.3-4.7,0.4-7
				c-1.3-8.2-0.5-16.5-0.7-24.8c0-1.6,0.2-3.2-0.4-4.8c-0.2-0.6-0.3-1.3-0.3-1.9c-0.1-7.2-1.3-14.3-3-21.3c0.2-1.6,0.9-3.2,0.7-5
				c-2.4-7.9-4.8-15.9-8.6-23.3c-0.2-0.8-0.3-1.6-0.2-2.3c0.4-2.1-0.2-3.9-0.9-5.8c-1.2-2.9-2.1-5.9-2.3-9
				c-0.1-4.8-0.1-9.7,0.6-14.5c0-5.3,0-10.7,0.6-16c0.5-3.9,0.4-7.9-0.3-11.9c-0.2-1.2-0.3-2.5-0.3-3.7c0.1-1.6-0.3-3.8,1.6-4.1
				c1.5-0.3,2.2,1.8,2.7,3.1c1.1,2.7,2,5.4,1.7,8.3c-0.2,1.1-0.3,2.2-1.4,2.8c-0.3-0.1-1,0-0.6-0.8c-0.7,0.5-0.1,0.9,0.1,1.3
				C197.7,130.3,196.9,132,196.4,133.7z"/>
			<path class="st0" d="M123.6,122.5c-0.1-0.8,0.1-1.7-0.7-2.3c-0.6-2.4-1,0.2-1.5,0.1c-3.3,7.7-4.9,15.9-7.4,23.9
				c-1.9,6.2-3.7,12.1-9.4,16.4c-2.5,1.9-3.8,6-4.2,9.7c-0.2,1.8-0.7,3.4-1.4,5c-0.6,1.3-1.3,2.6-2.9,2.5c-1.6-0.1-2.3-1.3-2.6-2.7
				c-0.1-0.6-0.4-1.1-1.4-1.6c0,2,0.1,4,0,6c-0.2,3.8-1.3,4-4.9,2.7c-5.5-1.9-4.7-6.6-4.8-10.3c-0.1-5,0.6-10.2,2.9-14.8
				c2.3-4.6,0.6-9.5,1.2-14.3c2.4-19,8.4-36.8,15.1-54.6c3.8-10,11.5-15.6,20.2-20.6c0.7-0.4,1.7-0.4,2.5-0.6
				c0.8-0.5,1.4-0.4,1.8,0.5c-0.1,1.2-1.1,1.6-2,2c-5.5,2.1-9.6,6.1-13.8,9.9c-0.5,0.6-0.8,1.4-1.3,2.1c-0.6,0.7-1.4,1.2-1.9,2
				c-0.2,0.4-0.5,0.7-0.8,1.1c-0.3,0.5-0.6,1-0.9,1.5c-0.3,0.7-0.5,1.3-0.8,2c-0.2,0.4-0.4,0.8-0.6,1.1c-0.4,0.6-0.6,1.3-0.8,1.9
				c-0.2,0.4-0.3,0.8-0.5,1.2c-0.4,0.9-0.3,1.8-0.7,2.7c-3,6.5-4.7,13.4-6.8,20.1c-0.6,1.6-0.9,3.2-1.3,4.9c-1.3,4.3-2.2,8.6-3.1,13
				c-0.2,1-0.6,1.9-0.6,2.9c-0.6,5.8-1.8,11.5-1,17.4c-0.1,0.6-0.3,1.1-0.5,1.7c-0.4,1-0.8,2-1.1,3c-0.3,0.8-0.4,1.7-0.7,2.6
				c-1.4,4.7-2.3,9.4-1.4,14.3c0.5,2.9,0.5,2.9,3.7,4.7c0.6-1.5,0.3-3.2,0.4-4.7c0.1-1,0.1-2,0.5-2.9c0.8-1.7,1.4-3.9,3.6-3.9
				c2.5,0.1,2.3,2.5,2.5,4.3c0,0.3,0,0.7,0.8,1c1.2-2.7,1.2-5.8,2.5-8.4c0.2-0.5,0.5-0.9,0.7-1.4c0.4-0.8,0.8-1.5,1.1-2.3
				c0.4-0.8,0.6-1.7,1.2-2.3c5.3-3.2,7-8.5,8.7-13.9c0.4-1.4,0.8-2.9,1.2-4.3c0.3-0.9,0.5-1.8,0.8-2.6c1.1-3.6,2.1-7.2,3-10.9
				c0.5-1.5,1-3,1.5-4.5c1.7-4.3,3.5-8.5,5.2-12.8c0.4-1,0.9-2.5,2.1-2.2c1.2,0.3,1.2,1.8,1.3,2.9c0.3,3.5-0.4,6.9-0.9,10.4
				C125.1,121.6,124.8,122.5,123.6,122.5z"/>
			<path class="st1" d="M187.4,22.7c10.1,12.2,10.5,27.8,1,41.2c-1.6,2.2-2.1,3.6,1.2,3.9c15.6,1.4,21.9,13,26.8,25.5
				c4.5,11.6,8.4,23.5,10.3,35.9c0.3,1.7,0.3,3.5,0.5,5.2c0.3,1.2,1,2.5-0.7,3.3c-2.8-2.6-1.7-6.3-2.7-9.4c0.1-1.2-0.3-2.3-0.6-3.5
				c-1.9-8.5-4.3-16.9-7.5-24.9c-0.2-0.8,0.2-1.7-0.4-2.4c-2-5.6-3.8-11.2-8.1-15.7c-0.4-0.4-0.7-0.8-1-1.3c-3-5.5-7.7-8.6-13.9-9.5
				c-1.7-0.3-3.4-0.7-5.1-1.2c-1.3-0.6-2.3-1.6-2.7-3c-0.4-1.8,0.6-3.1,1.6-4.4c8.2-11.5,8.4-23.2,1.4-35.3
				c-0.6-1.1-1.3-2.1-1.3-3.4C186.3,23,186.6,22.5,187.4,22.7z"/>
			<path class="st1" d="M197.1,127.7c0.8-0.6,0.7-1.5,0.8-2.4c1.4,0.1,1.4,1.2,1.7,2.2c0,1.2,0.3,2.3,0.6,3.5
				c0.7,4.5,1.7,8.9,2.4,13.4c0.1,1,0.3,1.9,0.5,2.8c1.3,6.1,3.4,11.9,5.9,17.6c0.2,0.3,0.3,0.7,0.4,1.1c1,2.9,2.6,5.6,2.1,8.9
				c-0.3,1.7-0.7,3.4,0.3,5c1-0.1,0.9-1.1,1.2-1.7c0.7-1.3,1.1-3.1,3-2.7c1.7,0.4,1.9,2.2,2.1,3.6c0.5,2.7,0,5.4-0.9,8.1
				c4-0.5,6.2-2.9,6.5-7.3c0.2-3.4,0.8-6.7,1.7-9.9c0.3-0.9,0.6-1.7,1.2-2.5c0.3-0.3,0.6-0.4,1-0.3c0.8,0.8,0.6,1.6,0.2,2.5
				c-1.5,5.7-0.7,11.9-3.8,17.2c-0.8,1.5-6.2,4.8-7.8,4.3c-1.9-0.7-2-2.3-1.7-4c0.4-2.1,1.7-4.1,1.1-6.9c-0.7,1.1-1.1,2.1-1.8,2.7
				c-1.6,1.6-4,1-4.7-1.2c-0.4-1.3-1-2.8-0.6-4c1.6-6.2-1.8-11.1-3.8-16.3c-3.7-9.5-5.3-19.4-7-29.3
				C196.7,130.9,196.3,129.4,197.1,127.7z"/>
			<path class="st1" d="M125.8,67.6c-0.4-0.6-0.9-0.7-1.6-0.7c2.3-1.4,4.9-0.5,7.3-0.8c4.1-0.4,4.5-1.2,2.4-4.7
				c-8.1-13.7-6.4-29.9,4.3-41c11.7-12.1,31.2-13.1,44.5-2.3c0.2,0.7-0.3,1.1-0.9,1.3c-1.5,0.2-2.6-0.8-3.7-1.5
				c-12.3-7.5-27.9-5.7-37.9,4.4c-10.1,10.2-11.7,25.5-4,37.9c0.9,1.4,1.9,2.6,1.8,4.4c-0.3,1.3-1,2.3-2.2,3.1
				C132.6,68.9,129.2,69.8,125.8,67.6z"/>
			<path class="st1" d="M227.8,139c0,1,0.1,1.9,0.1,2.9c0.5,6.8,0.5,13.6,0,20.5c0.1,0.2,0.1,0.3,0,0.5c0.3,1,0.9,2.1-0.8,2.5
				c-0.6-0.4-0.8-1.1-0.9-1.7c-0.2-1.3-0.1-2.7-0.3-4c0-5.3-0.2-10.6,0.1-15.9C226.3,142,225.3,139.8,227.8,139z"/>
			<path class="st2" d="M227.9,162.3c0-6.8,0-13.6,0-20.5C229,148.7,229,155.5,227.9,162.3z"/>
			<path class="st3" d="M181.9,19c0.3-0.3,0.6-0.6,0.9-0.8c1.8,1.2,3.3,2.7,4.5,4.5c-0.3,0.3-0.6,0.6-0.8,0.9
				C183.9,23.2,182.4,21.6,181.9,19z"/>
			<path class="st2" d="M227.8,139c-1.3,1.4-0.4,3.1-0.8,4.6c-0.4,0.1-0.8,0-1.1-0.4c-0.5-0.7-0.6-1.5-0.6-2.4c0-1.3,0-2.5,1.1-3.4
				c1-0.8,0.6-2,0.7-3.1C228.2,135.7,227.7,137.4,227.8,139z"/>
			<path class="st4" d="M197.1,127.7c0.2,1.5,0.4,3.1,0.6,4.6c-0.4,0.5-0.9,0.9-1.3,1.4c0-2.4,0-4.9,0-7.4
				C197.4,126.4,196.9,127.2,197.1,127.7z"/>
			<path class="st2" d="M227.1,165.2c0.9-0.6,0.7-1.5,0.8-2.4c1.1,2.3,1.1,4.7,0,7c-0.1-0.8,0.1-1.8-0.8-2.4
				C226.4,166.7,226.4,165.9,227.1,165.2z"/>
			<path class="st5" d="M121.4,120.2c0.3-0.8,0.6-1.5,0.9-2.4c0.9,0.7,0.4,1.6,0.6,2.4c-0.1,0.8-0.1,1.7-0.8,2.3
				C122,121.7,122.2,120.8,121.4,120.2z"/>
			<path class="st6" d="M125.8,67.6c3.5,0.1,7,0,10.5-0.7c1.1,0.1,1.9,0.7,2.6,1.4c10.5,10.2,31.6,10.8,43.4,2.1
				c1.5-1.1,3-2.3,5.1-1.4c7.3,1,14.6,2.3,18.8,9.5c0.3,0.5,0.4,1.1,0.7,1.7c-4.5,4.9-3.8,10.2-0.9,15.5c0.4,0.8,0.7,1.6,1,2.4
				c0.6,2.2,2,2.4,4,1.7c1.6-0.5,3-1.9,4.9-0.9c2.1,1.2,2.1,3.6,2.7,5.5c2.3,6.6,4.4,13.2,5.5,20.1c-2.7,2-5.8,1.5-8.8,2
				c-4,0.6-8,1.3-12,2.3c-1.7,0.4-3.4,0.8-4.5-1.2c-0.2-0.8-0.1-1.7-0.8-2.4c0.2-4.1-1.3-7.7-3.7-11.1c1.8,11.8-0.1,23.5-0.2,35.2
				c-0.2,2.9-2.2,3.7-4.5,3.9c-3.7,0.4-7.4,0.7-11.2,0.9c-17.8,0.6-35.6,0.2-53.2-3c-4.6-0.8-4.9-1.2-4.5-4.9
				c0.1-6.2,2.4-12.1,2.6-18.3c0.1-1.8,0.5-3.7,0.5-5.5c1.3-4.7,1.6-9.4,1.4-15.2c-2.5,5.8-4.6,10.8-6.7,15.8
				c-1.1,1-2.4,0.7-3.5,0.1c-5.7-2.9-11.8-4.4-18.1-5.8c-1.4-0.3-3.2-0.3-2.4-2.7c1.4-6.8,3.9-13.3,6.3-19.8
				c0.2-0.5,0.8-0.8,1.3-1.3c2.4-0.7,3.7,2.1,5.9,1.8c0.7-0.3,1.2-0.8,1.6-1.4c0.1-0.3,0.3-0.5,0.5-0.8c0.4-0.6,0.9-1.2,1.3-1.9
				c0.5-0.8,1-1.6,1.3-2.5c0.3-0.8,0.7-1.5,1.2-2.1c0.6-0.9,1.7-1.7,0.7-2.9c-0.5-0.6-1-1.1-1.7-1.5c-0.8-0.5-1.7-0.8-2.3-1.5
				c-0.5-0.6-0.9-1.3-0.9-2.1C114.1,74,119.3,69.8,125.8,67.6z"/>
			<path class="st6" d="M193.2,164.4c0.6,3.3,1.5,6.4,2.9,9.4c0.7,1.5,1.5,3.2,0.2,4.8c-2,3.1-5.5,1.9-8.2,2.3
				c-9,1.4-17.7,3.4-26.2,6.9c-1.6,0.7-3.3,2-5.2,0.5c-1.4-1.8-0.1-4.4-1.9-6.2c-0.6,2.1-1.3,4.2-1.9,6.2c-1.5,1.1-2.9,0.1-4.2-0.4
				c-10.8-4.3-21.9-7.3-33.5-8.3c-1.4-0.1-2.7-0.4-3.5-1.8c0-0.4-0.1-0.9,0-1.1c4.9-6.8,5.1-15.2,7.4-22.9c0.4-0.4,0.9-0.5,1.5-0.5
				c1.3,0.2,2.4,0.8,3.7,1c1.4,0.2,2.7,0.8,4.1,0.8c13.5,3,27.3,4.1,41.1,3.5c4.5-0.2,9.1-0.6,13.7-1.3c2.1-0.1,4.2-0.9,6.4-0.9
				c2.7-0.6,3.8,0.5,3.6,3.2C192.9,161.3,192.7,162.9,193.2,164.4z"/>
			<path class="st6" d="M97.3,252.1c0.3-8.5,1-17,2.3-25.4c1.1-0.9,2.3-0.6,3.5-0.2c8.8,3.4,17.9,4.6,27.3,4.3
				c1.7,0,3.8-0.7,4.5,1.9c-1.5,9.1-3.7,18-6.1,26.9c-1.8,1.6-4,1.2-6.1,1.1c-7.6-0.5-15-1.9-22.2-4.6
				C98.9,255.5,96.5,255,97.3,252.1z"/>
			<path class="st6" d="M163.4,211.8c-1.1-6.9-3.2-13.6-5.5-20.2c-0.3-1.6,0.9-2.2,2-2.7c11.1-5.1,22.9-7.5,34.9-8.5
				c0.5,0,0.9,0.3,1.3,0.6c2.4,1.6,2.6,4.4,3.5,6.8c2.1,5.4,4.1,10.9,5.5,16.6c-1.6,1.3-3.5,1.1-5.4,1c-11-0.4-21.6,1.8-31.8,5.8
				C166.6,211.7,165.1,212.6,163.4,211.8z"/>
			<path class="st6" d="M170.9,233.4c-1.6-5.9-3.1-11.9-4.7-17.8c0.6-1.6,2.1-2.1,3.4-2.6c9.6-3.7,19.5-5.9,29.9-5.5
				c1.6,0.1,3.3-0.3,4.4,1.4c2.3,1.9,1.7,4.7,2.2,7.1c0.9,4.7,1.8,9.5,1.5,14.4c-1.5,1.8-3.7,1.9-5.8,2.4
				c-9.2,1.9-18.7,2.2-28.1,2.9C172.1,235.9,171.3,234.9,170.9,233.4z"/>
			<path class="st6" d="M151.4,190.8c-2.6,5.6-4.6,11.4-6.6,17.3c-0.4,1-0.5,2.2-1.5,2.9c-1.5,0.1-2.6-0.6-3.8-1.3
				c-9.2-5.2-19.1-7.6-29.6-7.4c-2.2,0-4.5,0.6-6.4-1.1c3.3-6.7,5.1-13.9,7.5-20.9c2.5-1.8,5.1-0.5,7.5-0.2c10.3,1.4,20.4,3.9,30,8
				C149.8,188.6,151.5,188.8,151.4,190.8z"/>
			<path class="st6" d="M176,259.7c-1.8-7.7-3.2-15.5-4.4-23.3c1.8-1.1,3.8-1.1,5.7-1.1c8.8,0,17.5-1.2,26.1-2.9
				c1.4-0.3,2.9-0.9,4.3,0.2c0.5,7.7,0.1,15.5,0.2,23.2c0,1.6-0.8,2.6-2.2,3.2c-8.5,4-17.4,4-26.4,2.7
				C178,261.6,176.8,261,176,259.7z"/>
			<path class="st6" d="M177.6,290.4c-0.4-4.1,0.5-7.9,2.1-11.6c1.1-2.5,1.2-4.7-0.7-6.9c-1.9-2.2-1.7-5.1-2.1-7.7
				c-0.6-2.9,1.5-2.4,2.9-2.2c4.7,0.7,9.3,1.2,14.1,0.4c3.5-0.6,6.8-1.4,10.1-2.6c4-1.5,4.4-1.3,5,2.8c0.1,2.8,0.4,5.6-1,8.3
				c-0.9,1.7,0.3,3.1,1.2,4.4c2.4,3.2,4.3,6.6,5,10.6c-0.4,1.4-1.6,1.8-2.8,2.2c-10.3,3.5-20.7,5.2-31.5,3.4
				C179,291.3,178.2,291,177.6,290.4z"/>
			<path class="st6" d="M100.3,222.1c-0.1-5.6,2.4-10.7,3-16.2c0.8-1.2,2.1-1.2,3.3-1.3c9.7-0.4,19.2,1,28,5.2
				c2.2,1.1,5.1,1.8,5.7,4.9c-1.6,5-3.2,10-4.7,15.1c-0.8,0.7-1.7,1-2.7,1.1c-10.4,0.4-20.5-0.6-30.3-4.3
				C100.4,225.7,99.3,224.5,100.3,222.1z"/>
			<path class="st6" d="M128.2,262.7c-0.7,3.8-0.8,7.6-3.3,10.9c-1,1.3-0.5,2.9-0.5,4.4c-0.2,3.4,0.8,6.9-0.7,10.3
				c-2.6,1.9-5.3,0.4-8,0.3c-7.6-0.5-14.8-2.5-21.7-5.4c-1.6-0.7-4.1-1.1-3.4-4c0.3-0.7,0.3-1.6,0.8-2c6.5-5,5.3-12.2,5.3-18.9
				c0.2-2.2,1.2-3,3.4-2.1c8.1,3.1,16.5,4.4,25.1,4.8C126.3,260.9,128,260.7,128.2,262.7z"/>
			<path class="st7" d="M120.6,153.9c-0.5,0-1,0-1.5,0c0.6-2.5,0.4-5.2,1.4-7.6c-0.3,2.2,0.8,3.1,2.9,3.4c6.1,0.8,12.2,2.1,18.4,2.6
				c11.6,1,23.2,1,34.8,0.8c4.7-0.1,9.4-0.8,14.1-1.2c1.7-0.1,2.6-1.1,3.3-2.5c-0.8,5-0.7,10-0.8,14.9c-1.1-1.3-0.7-2.8-0.6-4.3
				c0.2-2.5-0.6-3.5-3.1-2.5c-3.5-0.6-6.8-0.1-10.2,0.6c-16.9,1.2-33.6,0.5-50.3-2.4c-1.5-0.2-2.9-0.7-4.4-0.8
				C123.3,154.4,121.9,154.5,120.6,153.9z"/>
			<path class="st6" d="M215,288.2c0.5,6.1,0.5,5.9-5.3,7.5c-9.5,2.6-19.1,2.5-28.8,2.2c-4.6-0.1-3-3.6-3.3-6c1.5-1,3.2-0.4,4.7-0.2
				c9.8,1.5,19.2-0.1,28.5-3.3C212.1,288,213.5,287.1,215,288.2z"/>
			<path class="st8" d="M203.9,208.9c-13.2-1.2-25.7,1.5-37.7,6.7c-2.3-0.3-2.2-2.3-2.8-3.9c13.3-5.9,27.2-8.7,41.8-7.5
				C205.1,205.9,206.5,208,203.9,208.9z"/>
			<path class="st8" d="M140.3,214.6c-7.7-6-16.7-8-26.2-8.8c-3.6-0.3-7.2,0-10.8,0.1c-1.6-1.6-0.1-3.2,0.1-4.7
				c7.7-0.1,15.5-0.1,23,1.9c6.1,1.6,11.8,4.1,16.8,7.9C143.1,212.9,142.8,214.6,140.3,214.6z"/>
			<path class="st6" d="M122.8,292c-0.4,2.2-2.2,2.2-3.8,2.2c-9.5,0.3-18.4-2.6-27.4-5.4c-2.5-0.8-3-2.7-2.5-5.1
				c1.1-1.8,2.7-1.1,4-0.6c8.6,3.7,17.6,5.4,26.8,6.3C121.4,289.5,123.6,289.2,122.8,292z"/>
			<path class="st9" d="M209,262.7c-0.7-2.7-1.9-3-4.7-1.9c-7.9,3.2-16.2,4.5-24.7,2.2c-1.3-0.4-2.5-0.6-2.8,1.2
				c-1.2-1.3-0.5-3-0.8-4.5c10.1,2.7,19.9,2.3,29.6-1.7c1.7-0.7,2-1.9,2-3.6c-0.1-7.2,0-14.5-0.1-21.7c-0.2-0.3-0.2-0.6,0.1-0.9
				c0.8,0.9,0.6,2.1,0.6,3.2C208.4,244.2,207.9,253.5,209,262.7z"/>
			<path class="st7" d="M151.4,190.8c-5.2-3.5-11.3-4.9-17.2-6.6c-7.6-2.1-15.4-3.5-23.3-4c0.2-0.8,0.5-1.5,0.7-2.3
				c6.5,1.4,13.2,1.7,19.7,3.4c7.4,1.9,14.4,4.5,21.5,7.1C152.8,189.5,152.3,190.2,151.4,190.8z"/>
			<path class="st9" d="M122.8,292c-1.7-3.1-5-1.8-7.3-2c-8-0.7-15.5-2.9-22.9-5.9c-1.1-0.5-2.3-1.1-3.5-0.3
				c0.4-1.5,0.4-3.2,1.4-4.5c0.8,2.6,3.3,2.8,5.3,3.6c8.9,3.5,18.3,4.8,27.9,5.5C123.5,289.5,124,290.9,122.8,292z"/>
			<path class="st7" d="M196.3,180.9c-10.5,1.4-20.9,2.8-30.8,6.7c-2.6,1-5.5,1.5-7.5,3.9c-0.8-0.9-1.3-1.9-1.3-3.1
				c5.9-1.4,11.4-4.3,17.3-5.7c6.5-1.5,13.1-2.8,19.8-3.3c0.8-0.1,1.7-0.5,2.5-0.7C196.3,179.4,196.3,180.2,196.3,180.9z"/>
			<path class="st9" d="M215,288.2c-8.2,3-16.5,5.3-25.3,5.1c-4-0.1-8.1-0.9-12.1-1.4c0-0.5,0-1,0-1.5c9.3,1.2,18.5,1,27.5-1.5
				c3.1-0.9,6.1-2,9.2-3C214.5,286.7,214.7,287.5,215,288.2z"/>
			<path class="st10" d="M207.7,231.8c0,0.3-0.1,0.6-0.1,0.9c-11.8,2.5-23.8,4.2-35.9,3.7c-0.5-0.9-0.9-1.9-0.7-3
				c0.7,0.6,1.2,1.6,2.5,1.4c10.9-1.4,22.1-1,32.8-4.3c0.5-0.1,1-0.1,1.5-0.1C207.6,230.9,207.6,231.3,207.7,231.8z"/>
			<path class="st10" d="M100.3,222.1c-0.4,2.4,1.2,3.1,3.1,3.8c10.5,3.8,21.3,4.1,32.3,3.8c-0.1,1.1,0.2,2.2-0.7,3.1
				c-0.9-1.2-2.3-0.9-3.5-0.8c-10.5,0.3-20.7-0.9-30.4-5.1c-0.4-0.2-1-0.1-1.5-0.1C99.7,225.1,99.2,223.5,100.3,222.1z"/>
			<path class="st9" d="M128.2,262.7c-2.7-1.7-5.8-1.1-8.6-1.4c-6.9-0.5-13.5-1.9-19.9-4.4c-1.9-0.7-2.3,0-3,1.2
				c0.1-2-0.5-4.1,0.6-6.1c0.1,1.5,1.1,2,2.4,2.5c9.4,3.7,19.1,5.4,29.2,5.1C128.8,260.7,129,261.9,128.2,262.7z"/>
			<path class="st6" d="M88.3,153.9c-1.3-6.3-0.1-12.5,0.9-18.7c1.4-1.2,2.8-0.5,4.2-0.1c5.6,1.8,11.1,3.8,17.1,3.6
				c1.1,0,2.6-0.1,2.6,1.8c-0.9,5.4-2.4,10.5-5.6,15.1c-1.3,1.8-2.7,3.2-4.9,3.6c-0.9,0.7-1.9,0.5-2.8,0.1
				C96,157.5,91.7,156.8,88.3,153.9z"/>
			<path class="st6" d="M116.9,127.1c-0.5,3.8-1.5,7.5-3.1,11.1c-2.5,1.5-5.1,0.8-7.6,0.3c-5.7-1.2-11.5-2-16.4-5.6
				c0.4-4.6,1.8-9.1,3-13.5c0.9-1.8,2.5-1.9,4.2-1.6c6,1.1,11.9,2.7,17.4,5.3C116.1,123.9,117.6,124.8,116.9,127.1z"/>
			<path class="st11" d="M100.4,164.4c-0.7,2.9-1.4,5.8-2.2,8.6c-0.3,1.1-0.6,2.9-2.1,2.8c-1.6-0.2-1-2-1.1-3.1
				c-0.2-1.4,0.7-3.7-1-3.9c-1.9-0.3-2.5,2.1-3.1,3.6c-1,2.8,0.2,5.9-1,9.7c-1.2-3.1-5.7-1.3-5.4-5.8c0.2-2.6-1.1-5.3-0.2-8.1
				c0.8-2.7-0.2-5.8,2-8.2c0.3-0.2,0.7-0.6,1-0.4C91.2,162.3,95.9,162.9,100.4,164.4z"/>
			<path class="st7" d="M116.9,127.1c-0.1-1.2-0.8-2-1.9-2.5c-6-2.9-12.4-4.7-19-5.8c-1.1-0.2-2.2,0.1-3.2,0.7
				c0.4-1.6,0.4-3.2,1.4-4.6c0.1,1.3,1,1.4,2.1,1.6c6.7,1.2,13.3,2.9,19.4,6.1c0.7,0.4,1.7,0.4,2.5,0.6
				C118,124.6,117.8,125.9,116.9,127.1z"/>
			<path class="st11" d="M101.9,161.5c-0.3,0.7-0.5,1.5-0.8,2.2c-5,0.3-9.3-1.6-13.5-4c-0.9-0.5-1.4-1-0.8-2c-0.1-1.1,0.3-2,0.8-2.9
				c0.6-0.5,1.1-0.4,1.7,0c3.3,2,7,3.3,10.6,4.5C101,159.5,102.8,159.4,101.9,161.5z"/>
			<path class="st7" d="M89.9,132.9c3.8,1.1,7.5,2.2,11.3,3.4c4.1,1.3,8.4,2,12.7,1.8c0,0.8,0,1.7-0.7,2.3c-2.9-2-6.3-0.2-9.4-1.2
				c-4.8-1.6-9.7-2.7-14.6-4.1C89.4,134.4,89.6,133.7,89.9,132.9z"/>
			<path class="st12" d="M86.8,157.6c0.2,1.6,1.4,1.9,2.6,2.3c3.9,1.3,7.8,2.5,11.7,3.8c-0.2,0.3-0.4,0.5-0.7,0.8
				c-5.4,0.7-9.9-1.8-14.2-4.5C86.1,159.1,86,158.3,86.8,157.6z"/>
			<path class="st13" d="M101.9,161.5c-0.2-0.4-0.4-1.2-0.7-1.2c-5-0.7-9.2-3.2-13.5-5.5c0.2-0.3,0.5-0.5,0.7-0.8
				c4.8,1.8,9.5,3.5,14.3,5.3C102.6,160,102.6,160.9,101.9,161.5z"/>
			<path class="st14" d="M110.8,80.5c0.8,0.4,1.6,0.9,2.3,1.3c-0.3,3.2-2.5,3.4-4.9,3.3c-0.9-0.2-1.5-0.6-1.8-1.6
				c-0.3-1.6,0.3-2.4,1.9-2.4C109.1,80.7,109.8,79.9,110.8,80.5z"/>
			<path class="st15" d="M113,89.3c0.2,1.1-0.5,1.9-1.2,2.6c-0.3-0.1-0.6-0.2-0.9-0.4c-1.7-2.3-5.2-2.6-6.2-5.6
				c0.2-0.5,0.4-1.1,0.7-1.6c0.9,0.1,1.8,0.4,2.8,0.7C109.7,86.4,112.5,86.6,113,89.3z"/>
			<path class="st16" d="M111.8,91.9c-0.3,0.9-0.7,1.6-1.5,2.1c-2.9-1-5.6-2.2-7-5.2c0.3-0.4,0.6-0.7,0.9-1.1c3.2-0.1,5.1,2.4,7.4,4
				L111.8,91.9z"/>
			<path class="st17" d="M108.7,96.2c-3.2,1.9-4.5-1.8-6.8-2.4c-0.5-0.7-0.5-1.5,0-2.2C105.1,91.8,107.7,92.8,108.7,96.2z"/>
			<path class="st18" d="M111.6,91.7c-2.9-0.5-4.8-3-7.4-4c-0.1-0.7-0.2-1.4,0.5-1.9C106.8,88.1,110.7,88.1,111.6,91.7z"/>
			<path class="st19" d="M103.2,88.8c2.3,1.8,5.2,2.8,7,5.2c-0.1,0.2-0.2,0.3-0.3,0.5c-3.3,0.4-5.1-2.1-7.3-3.8
				C102.6,90,102.4,89.3,103.2,88.8z"/>
			<path class="st20" d="M102.7,90.7c2.6,0.9,4.4,3.4,7.3,3.8c-0.1,0.8-0.6,1.3-1.3,1.7c-1.9-2.2-4.4-3.2-6.8-4.6
				C102.1,91.3,102.4,91,102.7,90.7z"/>
			<path class="st21" d="M110.8,80.5c-0.8,0.2-1.7,0.4-2.5,0.6c0.3-0.8,0.1-1.8,1.1-2.2C110,79.4,110.8,79.6,110.8,80.5z"/>
			<path class="st22" d="M107.8,85c-1,0.4-1.8,0.2-2.4-0.8c0.4-0.3,0.7-0.5,1.1-0.8c0.5,0.2,0.9,0.5,1.4,0.7
				c0.2,0.2,0.2,0.4,0.2,0.6C107.9,84.9,107.8,85,107.8,85z"/>
			<path class="st6" d="M181.9,19c1.5,1.5,3.1,3,4.6,4.6c7,9.9,9.1,20.5,4.7,32.1c-1.1,3-2.9,5.5-4.8,8c-0.8,1-1.5,2-1.4,3.3
				c-3.9,5.2-9.5,7.5-15.6,8.8c-10.3,2.3-19.8,0.4-28.2-6.2c-1.6-1.3-3.6-2.4-3.5-4.9c-2.8-5-5.8-9.7-6.8-15.6
				c-2.8-16.2,8.5-32.9,24.6-36.1C165.3,10.9,173.9,13.6,181.9,19z"/>
			<path class="st6" d="M226.4,137.4c0,1.2-0.1,2.5-0.1,3.7c-1.3,1.9-3.5,2.2-5.4,2.9c-4.1,1.5-8.3,2.3-12.6,2.6
				c-2.3,0.2-4.7,0.2-6.5-1.8c-1-4.7-2.2-9.4-2.4-14.2c6-3.1,12.6-3.3,19.1-4.5c1-0.2,2-0.2,3-0.3c1.4-0.1,2.7,0.2,3.4,1.7
				C225.3,130.9,225.8,134.2,226.4,137.4z"/>
			<path class="st23" d="M207.7,81.1c4.5,4.7,6.8,10.4,8.2,16.6c-4.1,2.3-7.6,1.3-11-3c-1.6-3.5-2.7-7.1-0.7-10.9
				C205,82.4,205.7,80.9,207.7,81.1z"/>
			<path class="st24" d="M137.7,64.6c10.8,13,31.5,14.8,44.5,4c0.8-0.7,1.5-1.7,2.8-1.7c0.8,0.7,1.6,1.4,2.4,2.2
				c-1.5-0.1-2.5,0.9-3.6,1.7c-13.7,10.2-35.7,8.9-46.6-2.6c-0.3-0.4-0.6-0.8-0.9-1.2C136.3,65.9,136.8,65.2,137.7,64.6z"/>
			<path class="st10" d="M224.7,127.7c-3.9-1.9-7.8-0.2-11.6,0.4c-4.6,0.7-9.2,1.8-13.8,2.7c-0.9-0.9-0.7-1.9-0.6-3
				c1.4,0.9,2.7,0.6,4.2,0.2c6.9-1.8,14-2.6,21.1-3.2C224.5,125.6,224.9,126.6,224.7,127.7z"/>
			<path class="st25" d="M205.4,94.4c2.8,3.2,6.4,4.2,10.5,3.3c0.6,0.5,0,0.9-0.1,1.3c-0.9,0.4-1.8,0.7-2.7,1.1
				c-5.8,2.3-5.8,2.3-7.8-3.8C204.9,95.6,204.8,95,205.4,94.4z"/>
			<path class="st26" d="M205.4,94.4c0,0.6-0.1,1.3-0.1,1.9c-2.4-4.1-4.1-8.2-1.8-12.9c0.7-1.5,1.5-2.9,3.3-3.1
				c0.3,0.3,0.6,0.5,0.9,0.8C203.6,84.5,203,87.8,205.4,94.4z"/>
			<path class="st6" d="M226.4,143.4c0.2,0,0.4,0.1,0.6,0.2c0,5.4,0,10.8,0,16.3c-0.8,1.1,0.2,2.6-0.9,3.6
				c-5.8,2.1-11.6,3.9-17.9,1.8c-3-5.7-5.1-11.7-6-18.1c8,0.1,15.8-1.5,23.4-4C225.9,143.1,226.2,143.3,226.4,143.4z"/>
			<path class="st11" d="M226.4,169.7c-0.6,3.8-1,7.7-1.9,11.3c-0.6,2.5-0.1,7.8-5.7,7c-0.9-0.1-1.1,1.7-2.4,1.4
				c-1.1-1.6,0.2-3.1,0.5-4.5c0.7-2.6,0.8-5.1-0.1-7.7c-0.2-0.6-0.3-1.3-1.1-1.3c-0.7,0-1,0.6-1.2,1.2c0,0.1,0,0.3-0.1,0.4
				c-1,1.5-0.6,5.2-2.7,4.3c-1.9-0.8-2.2-4.4-1-7c0.9-1.2-0.1-2.8,0.7-4c1.5-1,3-0.6,4.6-0.5c2.7,0.2,5.3-0.5,7.9-1.1
				C224.7,169.1,225.9,167.6,226.4,169.7z"/>
			<path class="st11" d="M211.3,171.2c-0.2,1.3,0.5,2.7-0.7,3.7c0.5-3.3-1.5-6-2.2-9c6,0,12,0,17.6-2.6c0.4-0.1,0.8,0,1.1,0.4
				c0,0.5,0,0.9,0.1,1.4c0,0.8,0,1.5,0,2.3c0,0-0.1,0-0.1,0c-3,3.4-7.2,2.7-11.1,3.1C214.4,170.7,212.8,170,211.3,171.2z"/>
			<path class="st7" d="M226.4,143.4c-7.7,3.5-15.5,6-24.1,3.8c-0.8-0.6-0.7-1.4-0.6-2.3c7.2,1.9,13.9-0.4,20.7-2.5
				c1.3-0.4,2.6-0.8,3.9-1.2C226.3,141.9,226.4,142.7,226.4,143.4z"/>
			<path class="st13" d="M226.4,163.6c-5.7,3.4-11.7,3.8-18,2.3c0-0.2-0.1-0.5-0.1-0.7c6.1,0.1,12.1-1.1,18-2.3
				c0.2,0.1,0.3,0.3,0.3,0.5C226.5,163.6,226.4,163.6,226.4,163.6z"/>
			<path class="st27" d="M211.3,171.2c0.5-2.2,2.3-1.4,3.6-1.5c4.1-0.4,8.3-0.2,12.1-2.3c0,0.8,0.1,1.7-0.7,2.3
				C221.5,171.4,216.5,171.9,211.3,171.2z"/>
			<path class="st2" d="M226.4,163.6c0-0.2,0-0.5-0.1-0.7c0.2-1-0.1-2.2,0.7-3.1c0,1.3,0,2.6,0,3.9
				C226.8,163.7,226.6,163.7,226.4,163.6z"/>
			<path class="st28" d="M178.3,87.9c1.7,3.1,0.4,6.5,0.7,9.8c0.2,2,0.3,4,0,5.9c-0.5,3.3-0.3,5.8,3.8,6c0.2,0.9-0.5,1.1-1.1,1.2
				c-7.5-0.1-15.1,0.4-22.6-0.6c-2.6-0.4-5.2-0.3-7.6,1c-2.1-0.1-0.4,1.5-0.9,2.1c-0.3,0.4-0.3,1.2-1,1.4c-0.8,0.2-1.2-0.5-1.2-1
				c-0.2-2.5-1.6-4.9-0.1-7.4c0.5-0.2-0.2-0.1,0.3-0.2c5.9-1.7,5.9-1.7,6-8c0-1.7-0.2-3.5,1-5c2.5,0.3,1.1,2.1,1.3,3.3
				c0,3.2,0,6.5,0,9.7c0,0.1,0.1,0.2,0.1,0.2c-0.2-3.2-0.1-6.6-0.1-9.9c1-2,1.6-0.7,1.9,0.3c0.6,1.9,0.2,3.9,0.4,5.8
				c0,2.7,1.4,3.7,4,3.6c3.4-0.1,6.7,0,10.1,0c2.2,0,3.2-1,3.1-3.2c-0.2-4.7,0.9-9.4,0.7-14.1C177.2,88.3,177.5,87.7,178.3,87.9z"/>
			<path class="st9" d="M148.3,106.7c0.3,2.4,1.1,4.8,1.5,7.3c0-1.2,0-2.4,0-3.5c0-0.2,0.1-0.5,0.1-0.7c0.9,0.2,0.5,0.9,0.6,1.4
				c2.1,4.6,1.6,9.3,0.4,14c-0.6,0.5-1.2,0.5-1.3-0.3c-0.3-2.6-0.1-5.1-0.2-7.7c0.1,2.7-0.2,5.5,0.2,8.2c0.2,1.4,0,2.4-1.3,3.2
				c-1.2,2.2-3.2,1.4-5,1.3c-1.2-0.1-2.4-0.5-3.6-0.6c-5.3-0.3-6.4-1.5-5.3-6.6c0.9-3.9,0.2-7.9,0.4-11.9c0.1-1.6,0.1-3.2,2.2-3.2
				c1.9,0,1.8-1,1.7-2.4c-0.2-2.2,0-4.5,0-6.7c2.9,0.9,1.2,3.5,2,5.3c0.6,1.8,2.1,1.8,3.6,1.9C145.6,105.7,147.2,105.4,148.3,106.7z
				"/>
			<path class="st29" d="M148.3,128.5c1.6-3.9,0.1-8,1-12.3c1.3,3.2-0.6,6.5,1.2,9.3c1.3,0.7,2.4,1.7,4,1.7c7.3,0.3,14.6,1.1,22,0.8
				c3.8-0.2,4.2-0.5,4.3-4.4c0.1-2.9,0-5.7,0-8.6c0-1.6-0.2-3.3,1.2-4.5c0.2-0.3,0.5-0.5,0.7-0.8c1.5,6.5,1,13-0.2,19.5
				c-0.3,1.5-1.7,1.5-3,1.6c-9.1,0.2-18.1-1.3-27.2-0.7C150.8,130,149.9,128.4,148.3,128.5z"/>
			<path class="st30" d="M139.3,104.4c-0.3-2,0.7-4.2-0.7-6c-0.2-9.6-0.4-9.1,8.8-9c1.5,0,3-0.1,4.4,0.3c3.1,0.9,5.8,1.4,7-2.6
				c0.6,0.3,1.1,0.7,1.2,1.5c0.1,3.6,0,7.2-0.1,10.8c0,1.4,0.2,3.1-1.8,3.5c0-2.1,0-4.2,0-6.4c0-0.1-0.1-0.3-0.2-0.3
				c-0.6-0.1-0.5,0.3-0.6,0.6c-0.2,0.3-0.5,0.4-0.7,0c-0.2-1.3,0.5-2.7-0.7-3.8c-3.7-1.5-7.6-1-11.4-1.1c-2.2,0-3.1,1.1-3.1,3.2
				c0,2,0.1,4-0.1,6C141,102.5,141.3,104.2,139.3,104.4z"/>
			<path class="st31" d="M107.8,85c0-0.3,0-0.6,0.1-0.8c2.3,0.3,4.1-0.5,5.3-2.4c0.5,0.5,1,1,1.4,1.6c0.5,0.5,0.4,1.1,0.2,1.7
				c-0.3,0.5-0.6,1-0.7,1.5c-0.1,0.3-0.1,0.5-0.1,0.8c0.3,1-0.6,1.3-1,1.9C111.7,87.4,108.7,87.5,107.8,85z"/>
			<path class="st32" d="M190.5,102.7c2.3,3.3,2.2,6.2,3.6,9.6C189.9,109.8,190.2,106.7,190.5,102.7z"/>
			<path class="st33" d="M127.6,97.1c2.1,3.5,0.7,5.7-1.3,8.6C125.6,102.2,126.9,99.9,127.6,97.1z"/>
			<path class="st28" d="M159.6,87.9c-0.3-0.2-0.5-0.5-0.8-0.7c0.2,0,0.5,0,0.7,0c1.5-0.6,3-0.6,4.5,0c3.7,0,7.5,0,11.2,0
				c-0.2,2-1.9,1.6-3.1,1.8c-1.5,0.2-2.9,0-4.4,0.2C165,89,162.1,89.9,159.6,87.9z"/>
			<path class="st30" d="M167.8,87.9c2.5-0.3,5.1,0.8,7.5-0.7c1,0.1,2.2-0.3,3,0.7c-0.2,0.3-0.5,0.5-0.7,0.8
				C173.7,90.7,169.9,90.4,167.8,87.9z"/>
			<path class="st34" d="M113.8,85c0.6-0.4,0.7-1,0.8-1.7c3,1.9,0.9,2.9-0.6,4.1c0,0-0.2-0.2-0.2-0.2c-0.2-0.2-0.2-0.5-0.2-0.7
				c0.1-0.2,0.1-0.5,0-0.7C113.5,85.4,113.6,85.2,113.8,85z"/>
			<path class="st30" d="M164.1,87.2c-1.5,0-3,0-4.5,0C161.1,86.1,162.6,86.1,164.1,87.2z"/>
			<path class="st12" d="M128.1,155.4c17.2,1.7,34.4,2.7,51.7,2.2c1.3-0.2,2.8-1.2,3.7,0.7c-7,0.7-14,1.6-21.1,1.6
				c-11.8,0-23.5-1.4-35-3.8C127.2,155.5,127.3,155.1,128.1,155.4z"/>
			<path class="st35" d="M183.5,158.4c-1.1-1.2-2.5-0.5-3.7-0.7c3.2-1.1,6.5-1.2,9.7,0C187.5,157.9,185.5,158.1,183.5,158.4z"/>
			<path class="st36" d="M128.1,155.4c-0.2,0.2-0.5,0.5-0.7,0.7c-1.2-0.2-2.5-0.5-3.7-0.7c-0.2-0.7-0.1-1,0.7-0.7
				C125.6,154.8,127,154.2,128.1,155.4z"/>
			<path class="st37" d="M124.3,154.7c-0.2,0.2-0.5,0.5-0.7,0.7c-1-0.6-2.3-0.5-3-1.5C121.8,154.1,123.3,153.5,124.3,154.7z"/>
			<path class="st28" d="M206.8,281.4c-8.5-4.3-16.3-2.6-23.4,3.1c2.1-7.6,18.6-11,24.2-3.1C207.3,281.7,207.1,281.8,206.8,281.4z"
				/>
			<path class="st38" d="M206.8,281.4c0.3,0,0.5,0,0.8,0c0.6,0.3,1.6,1.2,1.2,1.4C207.7,283.4,207.3,282.1,206.8,281.4z"/>
			<path class="st28" d="M95.8,276.8c9.2-5.7,20.2-2.6,25.2,7.2C114.1,276.1,105.4,274.7,95.8,276.8z"/>
			<path class="st39" d="M188.1,41.4c3,16.3-8.8,28.4-20.4,30.7c-14.9,3-28.5-5.7-31.8-20.3c-0.9-3.9-1-7.9,0.4-11.8
				c6.3-18.8,28-25.2,43.5-12.8C184.4,30.9,186.9,35.8,188.1,41.4z"/>
			<path class="st40" d="M188.1,41.4c-2.2-5.2-5-9.8-9.2-13.8c-9.4-8.7-33-7.4-39.7,7.6c-0.8,1.7-1.9,3.2-2.8,4.8
				c0.6-10.3,10.6-20.5,20.9-21c6.4-0.4,13-0.8,18.9,2.9C183.3,26.5,187.5,32.8,188.1,41.4z"/>
			<path class="st6" d="M182.1,110.4c0,5.1-0.1,10.2,0,15.3c0,2.3-0.7,3.4-3.2,3.5c-8.7,0.4-17.4-0.8-26.1-0.8c-2.3,0-2.2-1.5-2.2-3
				c0-4.7,0-9.5,0-14.2c2-4,5.8-2.4,8.6-2.1c6.7,0.8,13.4,0.4,20.2,0.6C180.3,109.7,181.3,109.5,182.1,110.4z"/>
			<path class="st6" d="M167.8,87.9c3.2,1.6,6.5,0.3,9.8,0.7c1.1,2,1,4.2,0.5,6.2c-0.3,1.5-0.5,2.9-0.5,4.4c0,8.1,0,8.1-8,8.1
				c-2.4,0-4.8-0.2-7.1,0c-3.5,0.4-4.9-1.1-4.4-4.5c1.5-2.3,0.5-4.9,0.7-7.3c0.3-2.6-0.6-5.3,0.8-7.7
				C162.3,87.9,165.1,87.9,167.8,87.9z"/>
			<path class="st6" d="M139.3,104.4c1.5-3.3,0.6-6.8,0.7-10.2c0-2.6,0.8-3.6,3.4-3.4c3.1,0.2,6.2,0.1,9.3,0c1.6,0,3,0.3,3.2,2.3
				c0,2.8,0,5.7,0,8.5c0,5,0,5-4.9,5c-0.9,0-1.7,0-2.6,0c-2,0-3.9,0-5.9,0C140.9,106.7,139.5,106.4,139.3,104.4z"/>
			<path class="st7" d="M156.6,96.9c0.2,0,0.5,0,0.7,0c0,3.7,0,7.4,0,11.1c-0.2,0-0.5,0-0.7,0C156.6,104.3,156.6,100.6,156.6,96.9z"
				/>
			<path class="st6" d="M148.3,118.2c0,0.5,0,1,0,1.5c0.1,10.9-0.6,8.5-10.1,8.7c-1.9,0-2.6-1-2.7-2.8c-0.2-5,0.2-9.9,0.8-14.9
				c0-0.2,0-0.6,0.1-0.7c3-2.2,6.4-0.8,9.6-1c2-0.1,2.2,1.5,2.2,3.2C148.3,114.2,148.3,116.2,148.3,118.2z"/>
			<path class="st14" d="M113.8,85c0,0.3,0,0.6,0.1,0.8l0.2,0.3l-0.3,0.3c0,0.2,0,0.5,0,0.7C112.9,86.4,112.9,85.7,113.8,85z"/>
			<path class="st41" d="M113.8,86.4c0-0.2,0.1-0.4,0.1-0.6c0.2,0.1,0.3,0.2,0.5,0.3C114.2,86.2,114,86.3,113.8,86.4z"/>
			<path class="st42" d="M166,123.8c-3.1,0-6.2-0.1-9.3,0c-2.2,0-3.3-0.8-3-3.1c0.1-1.2,0.1-2.5,0.1-3.7c-0.1-2.2,1.1-2.8,3.1-2.7
				c6.2,0.3,12.5,0.5,18.7,0.6c2.3,0,3,1,2.9,3.2c-0.3,7.2,0.4,6-6,6.1c-2.1,0-4.2,0-6.4,0C166,124,166,123.9,166,123.8z"/>
			<path class="st43" d="M168.5,92c2.8,0,5.2,2.4,5.3,5.2c0.1,3-2.4,5.6-5.4,5.5c-3,0-5.3-2.5-5.2-5.6C163.3,94.3,165.6,92,168.5,92
				z"/>
			<path class="st44" d="M173.2,118.8c-0.2,1.5-0.9,2.6-2.6,2.3c-0.9-0.2-0.9-1.3,0-4.3c1.6-0.4,0,2.4,1.8,1.8
				C172.7,118.4,173,118.4,173.2,118.8z"/>
			<path class="st45" d="M173.2,118.8c-0.3-0.1-0.5-0.1-0.8-0.2c0.4-0.8,0.5-2.1,1.7-1.9c1.1,0.2,0.6,1.4,0.6,2.2c0,1-0.1,1.9-0.2,3
				C173.1,121.2,174.4,119.5,173.2,118.8z"/>
			<path class="st46" d="M163.3,119.4c-0.3,1-0.1,2.4-1.8,2.1c-0.3-0.1-0.9-0.3-0.9-0.4c-0.1-1.3,1.3-1.4,1.9-2.2
				C162.9,118.9,163.2,119.1,163.3,119.4z"/>
			<path class="st47" d="M166.4,118.7c0-1.2,0.2-2.5,1.7-2.1c0.9,0.2,1.4,1.7,1,2.5c-0.6,1.1-1.2-1.1-2-0.4
				C166.8,118.9,166.6,118.9,166.4,118.7z"/>
			<path class="st48" d="M163.3,119.4c-0.2-0.2-0.5-0.4-0.7-0.5c0.5-0.8,0.9-1.6,1.7-3C165.1,117.8,165,118.8,163.3,119.4z"/>
			<path class="st49" d="M166.4,118.7c0.2,0,0.4,0,0.7,0c0.1,1.1-0.3,2.1-1.3,3.1C165.1,120.4,165.4,119.5,166.4,118.7z"/>
			<path class="st48" d="M158,118.5c0.2-0.7,0-2.3,1.3-1.5c1.8,1.1-1.1,1.4-0.6,2.4C157.9,119.5,157.6,119.2,158,118.5z"/>
			<path class="st50" d="M158,118.5c0.2,0.3,0.5,0.6,0.7,0.9c-0.4,0.6-0.3,2.2-1.2,1.6C156.7,120.6,157.3,119.3,158,118.5z"/>
		</g>
	</g>
</g>
</svg>
