<?xml version="1.0" encoding="utf-8"?>
<!-- Generator: Adobe Illustrator 22.1.0, SVG Export Plug-In . SVG Version: 6.00 Build 0)  -->
<svg version="1.1" id="Layer_1" xmlns="http://www.w3.org/2000/svg" xmlns:xlink="http://www.w3.org/1999/xlink" x="0px" y="0px"
	 viewBox="0 0 325.8 325.8" style="enable-background:new 0 0 325.8 325.8;" xml:space="preserve">
<style type="text/css">
	.st0{fill:#B3B3B3;}
	.st1{fill:#B4B4B4;}
	.st2{fill:#B3B4B4;}
	.st3{fill:#B9B9B9;}
	.st4{fill:#CCCCCC;}
	.st5{fill:#E4E4E4;}
	.st6{fill:#F6F6F6;}
	.st7{fill:#2B9BC8;}
	.st8{fill:#299AC8;}
	.st9{fill:#E7E8E8;}
	.st10{fill:#F4F4F4;}
	.st11{fill:#F1F3F4;}
	.st12{fill:#E6E8E8;}
	.st13{fill:#E7E9E9;}
	.st14{fill:#BC3131;}
	.st15{fill:#D8E1E5;}
	.st16{fill:#E1E9EC;}
	.st17{fill:#D2E0E6;}
	.st18{fill:#D7DCDE;}
	.st19{fill:#DDE6EA;}
	.st20{fill:#4CA8CC;}
	.st21{fill:#F2F4F4;}
	.st22{fill:#2A9BC8;}
	.st23{fill:#F1F3F3;}
	.st24{fill:#F4F5F5;}
	.st25{fill:#1B607D;}
	.st26{fill:#F1F4F5;}
	.st27{fill:#F0F3F4;}
	.st28{fill:#319EC9;}
	.st29{fill:#EFF3F4;}
	.st30{fill:#2E9CC9;}
	.st31{fill:#329EC9;}
	.st32{fill:#339EC9;}
	.st33{fill:#EAF0F3;}
	.st34{fill:#349FCA;}
	.st35{fill:#EBF1F3;}
	.st36{fill:#EBF1F4;}
	.st37{fill:#42A5CD;}
	.st38{fill:#44A6CE;}
	.st39{fill:#595959;}
	.st40{fill:#67B3D0;}
	.st41{fill:#BC3232;}
	.st42{fill:#EFF2F3;}
	.st43{fill:#D0DADF;}
	.st44{fill:#E3EBEE;}
	.st45{fill:#F0F2F2;}
	.st46{fill:#9BC8DA;}
	.st47{fill:#E5E8E8;}
	.st48{fill:#F1F3F5;}
	.st49{fill:#F3F4F5;}
	.st50{fill:#2F9DC9;}
	.st51{fill:#EDF2F4;}
	.st52{fill:#309DC9;}
	.st53{fill:#EAF1F3;}
	.st54{fill:#D3D5D5;}
	.st55{fill:#40A5CD;}
	.st56{fill:#3CA3CC;}
	.st57{fill:#C4D6DF;}
	.st58{fill:#E2DBDB;}
	.st59{fill:#C76565;}
	.st60{fill:#CA6161;}
	.st61{fill:#CB6767;}
	.st62{fill:#57AED0;}
	.st63{fill:#E3D7D7;}
	.st64{fill:#57ACCF;}
	.st65{fill:#6CB7D5;}
	.st66{fill:#E5E7E8;}
	.st67{fill:#37A0CB;}
	.st68{fill:#D2D5D5;}
	.st69{fill:#35A0CA;}
	.st70{fill:#2D9BC6;}
	.st71{fill:#3E3E3E;}
	.st72{fill:#47A8CF;}
	.st73{fill:#B6B6B6;}
	.st74{fill:#CAD5D9;}
	.st75{fill:#CBD6DA;}
	.st76{fill:#919191;}
	.st77{fill:#8A8A8A;}
	.st78{fill:#45A7CE;}
	.st79{fill:#939393;}
	.st80{fill:#9D9D9D;}
	.st81{fill:#767676;}
	.st82{fill:#858585;}
	.st83{fill:#535353;}
	.st84{fill:#8D8D8D;}
	.st85{fill:#959595;}
	.st86{fill:#949494;}
	.st87{fill:#757575;}
	.st88{fill:#50ABD0;}
	.st89{fill:#5F5F5F;}
	.st90{fill:#55AED1;}
	.st91{fill:#5BB0D3;}
	.st92{fill:#C6DFEA;}
	.st93{fill:#494C4D;}
	.st94{fill:#61B2D1;}
	.st95{fill:#636363;}
	.st96{fill:#319ECA;}
	.st97{fill:#6C6C6C;}
	.st98{fill:#2E9DC9;}
	.st99{fill:#4CA9CF;}
	.st100{fill:#5D5D5D;}
	.st101{fill:#2A9AC7;}
	.st102{fill:#329BC6;}
	.st103{fill:#309EC9;}
	.st104{fill:#2F9CC8;}
	.st105{fill:#898989;}
	.st106{fill:#969696;}
	.st107{fill:#D2D7D9;}
	.st108{fill:#3297C2;}
	.st109{fill:#565656;}
	.st110{fill:#2B2B2B;}
	.st111{fill:#ECF0F1;}
	.st112{fill:#989898;}
	.st113{fill:#929292;}
	.st114{fill:#B2B2B2;}
	.st115{fill:#8F8F8F;}
	.st116{fill:#51ACD1;}
	.st117{fill:#484848;}
	.st118{fill:#48A8CF;}
	.st119{fill:#313131;}
	.st120{fill:#454545;}
	.st121{fill:#58A6C9;}
	.st122{fill:#2E2E2E;}
	.st123{fill:#717171;}
	.st124{fill:#AE363A;}
	.st125{fill:#606060;}
	.st126{fill:#E8EAEA;}
	.st127{fill:#F7D548;}
	.st128{fill:#D1D3D3;}
	.st129{fill:#F5F5F6;}
	.st130{fill:#373737;}
	.st131{fill:#5B6265;}
	.st132{fill:#4AA9CF;}
	.st133{fill:#2C9CC9;}
	.st134{fill:#494949;}
	.st135{fill:#9B9B9B;}
	.st136{fill:#999999;}
	.st137{fill:#41A5CD;}
	.st138{fill:#909090;}
	.st139{fill:#6E6E6E;}
	.st140{fill:#4FABD0;}
	.st141{fill:#4EAAD0;}
	.st142{fill:#299AC7;}
	.st143{fill:#DEE8EC;}
	.st144{fill:#B8CFD8;}
	.st145{fill:#55AED2;}
	.st146{fill:#3AA2CB;}
	.st147{fill:#7DB0C5;}
	.st148{fill:#36A0CB;}
	.st149{fill:#37A1CB;}
	.st150{fill:#52ADD1;}
	.st151{fill:#A9C9D5;}
	.st152{fill:#51ADD1;}
	.st153{fill:#50ACD1;}
	.st154{fill:#2798C5;}
	.st155{fill:#2D80A2;}
	.st156{fill:#74BAD7;}
	.st157{fill:#79BFDB;}
	.st158{fill:#1E6581;}
	.st159{fill:#E3E6E6;}
	.st160{fill:#636465;}
	.st161{fill:#E9F0F3;}
	.st162{fill:#79B9D2;}
	.st163{fill:#626262;}
	.st164{fill:#9C9C9C;}
	.st165{fill:#E0EDF1;}
	.st166{fill:#41A3CB;}
	.st167{fill:#5A5A5A;}
	.st168{fill:#4EABD0;}
	.st169{fill:#333333;}
	.st170{fill:#232323;}
	.st171{fill:#BBBBBB;}
	.st172{fill:#DEDEDE;}
	.st173{fill:#505050;}
	.st174{fill:#A7D3E4;}
	.st175{fill:#36A0CA;}
	.st176{fill:#FBFDFD;}
	.st177{fill:#4CAAD0;}
	.st178{fill:#676767;}
	.st179{fill:#4C4C4C;}
	.st180{fill:#98CDE3;}
	.st181{fill:#5E5E5E;}
	.st182{fill:#666666;}
	.st183{fill:#646464;}
	.st184{fill:#848484;}
	.st185{fill:#5B5B5B;}
	.st186{fill:#434343;}
	.st187{fill:#4E4E4E;}
	.st188{fill:#3A3A3A;}
	.st189{fill:#545454;}
	.st190{fill:#AFD6E6;}
	.st191{fill:#C7E3EF;}
	.st192{fill:#78B4D0;}
	.st193{fill:#57A4C7;}
	.st194{fill:#A38898;}
	.st195{fill:#6FB8D5;}
	.st196{fill:#79BEDA;}
	.st197{fill:#79BDD9;}
	.st198{fill:#70B5D0;}
	.st199{fill:#6CB4D1;}
	.st200{fill:#3F9EC7;}
	.st201{fill:#3EA4CD;}
	.st202{fill:#AFCBDE;}
	.st203{fill:#EEF2F4;}
	.st204{fill:#65B5D5;}
	.st205{fill:#F6F9FB;}
	.st206{fill:#3CA0C9;}
	.st207{fill:#47A8CE;}
	.st208{fill:#CEE2E9;}
	.st209{fill:#E6EEF1;}
	.st210{fill:#80C2DD;}
	.st211{fill:#85C4DD;}
	.st212{fill:#85C5DF;}
	.st213{fill:#82C3DD;}
	.st214{fill:#6FB9D7;}
	.st215{fill:#A6303B;}
	.st216{fill:#2697C4;}
</style>
<g>
	<path class="st0" d="M214.6,274.9c4.2,4.7,5.5,10.5,6.1,16.5c0.2,2.4-0.9,3.7-3.1,4.4c-10.6,3.1-21.5,4.4-32.5,3.8
		c-2.8-0.2-4.7-0.9-5.2-4.5c-0.8-5.5-0.3-10.7,1.6-15.8c0.9-2.5,0.9-4.3-0.6-6.8c-2.5-4.3-2.6-9.5-3.6-14.4
		c-2.4-11.3-4.4-22.7-7.5-33.9c-1.7-6.1-6.1-11.1-6.6-17.7c-0.3-3.5-1.6-6.8-2.9-10c-0.6-1.5-1.3-3.1-3.2-3.3
		c-2-0.2-2.7,1.4-3.5,2.9c-2,3.8-3.5,7.8-4.3,11.9c-1,5.1-5.1,8.4-6.6,13.1c-2.3,7.5-3.5,15.3-5.2,22.9c-1.9,8.8-2.5,18-5.8,26.2
		c-2.6,6.5-0.8,12.9-2.4,19.2c-1.6,6.3-2.2,7.3-8.7,7.2c-8.8-0.1-17.2-2.5-25.6-5.1c-3.6-1.1-4.8-3.6-3.9-7.3
		c1-4.2,2.4-8.1,5.7-11.2c1.3-1.2,2-2.6,1.8-4.3c-0.9-12.9,1.1-25.6,1.7-38.4c0.4-8.8,3.7-17.1,3.3-25.9c0-0.2,0-0.5,0.1-0.7
		c3.6-9.3,5.5-19.3,9.5-28.3c3.9-8.6,4.8-17.4,6.7-26.3c1.8-8.7,2.7-17.7,3.9-26.5c2,0.2,1.5,1.9,1.8,3c-0.5,9.9-2.4,19.7-3.8,29.5
		c-0.8,1.4,1.2,2.5,0.4,3.9c-1.8,1.4-2.1,3.5-2.5,5.5c-0.5,2.5-1,5-1.9,7.4c-0.3,0.7-0.6,1.3-0.9,2c-1.7,2.2-1.3,5.2-2.7,7.5
		c-1.1,1.2-1.4,2.7-1.7,4.2c-0.4,1.4-0.7,2.8-1.1,4.2c-0.3,1.1-0.7,2.2-1,3.3c-5.2,14-6.4,28.8-7.9,43.5c0,1.2,0,2.5-0.2,3.7
		c-1,2.9-0.2,6-0.6,9c0,0.4-0.1,0.8-0.2,1.1c-0.7,2.2-0.5,4.4-0.1,6.6c-0.1,2.4-0.7,4.8-0.1,7.2c0.7,5.1-0.7,9.4-4.4,13.1
		c-1.1,1.1-1.6,2.7-2.1,4.3c-0.3,0.9-0.5,1.8-0.7,2.7c-0.7,2.5,0.4,4.2,2.7,4.9c7.9,2.5,15.8,4.7,24.1,4.8c2.2,0,4.3-0.3,5.2-2.7
		c0.6-1.1,0.5-2.2,0.7-3.3c0.1-0.7,0.4-1.5,0.3-2.2c-1.4-11.4,4.4-21.5,5.6-32.3c0.2-1,0.6-1.9,0.7-2.9c1-5.1,2.2-10.1,3.2-15.1
		c0.5-2.1,1-4.2,1.3-6.3c0.7-3.2,1.4-6.3,2.4-9.4c0.3-0.8,0.4-1.8,0.9-2.4c5.4-5.6,5.8-13.4,8.8-19.9c1.3-2.9,2.5-5.9,5.1-8
		c0.7,2.4,3.3,0.6,4.5,2.1c2.4,2.2,3.6,5.1,4.5,8.1c2,6.9,3.9,13.8,6.7,20.5c4,9.4,5.3,19.7,7.3,29.8c0,1.2,0.6,2.3,0.7,3.5
		c1.8,6.8,2,14.1,5.5,20.5c0.9,1.6,0.4,3.4-0.1,5.1c-0.8,2.4-1.5,4.8-1.9,7.2c-0.8,2.5-0.6,5.1,0,7.6c0.4,2.4,2.1,3.2,4.3,3.3
		c9.4,0.5,18.6-0.7,27.7-3.1c2.1-0.6,3.6-1.7,3.6-4.1c0-1.7-0.6-3.3-1-4.9c-0.6-3.3-3.2-5.8-3.5-9.1
		C213.7,275.1,213.9,274.7,214.6,274.9z"/>
	<path class="st0" d="M132.2,66.4c5-0.6,4.9-0.6,2.3-4.9c-6.7-11-7.2-22.5-1-33.8c6.1-11,15.7-16.6,28.4-17
		c17.1-0.6,33,12.5,33.8,32.3c0.3,7.5-1.9,14.6-6.7,20.6c-2,2.5-1.4,3.2,1.4,3.8c3.7,0.8,7.7,0.6,11,3c7.6,5.6,12.6,13,15.9,21.7
		c4.7,12.4,9.1,24.8,11.2,37.9c0.7,4.2,1.5,8.4,1.2,12.6c0.3,2.6,1,5.2-0.4,7.7c-2.5-1.8-1.1-4.8-2-7.1c-0.1-0.8-0.2-1.6-0.2-2.4
		c0-0.7,0-1.5,0-2.2c0-0.8,0-1.6-0.3-2.4c-0.2-0.6-0.4-1.2-0.6-1.8c-0.1-0.8,0.1-1.5,0.1-2.3c-0.1-0.8-0.3-1.5-0.5-2.3
		c-0.1-0.6-0.2-1.3-0.2-1.9c-0.1-0.8-0.4-1.6-0.6-2.5c-0.2-0.9-0.4-1.7-0.7-2.6c-1.9-7.4-3.7-14.8-6.9-21.7c-1.3-3.9-1.5-8.4-5-11.4
		c-0.1-2.1-0.4-4.2-1.9-5.9c-0.4-0.6-0.7-1.1-1.1-1.6c-1.3-1.7-2.4-3.5-4.1-4.9c-0.5-0.4-1-0.8-1.4-1.4c-0.6-1.8-2.1-2.5-3.7-3.2
		c-0.6-0.3-1.2-0.6-1.8-0.9c-3-1.5-6.3-1.6-9.4-2.1c-0.9-0.2-1.8-0.5-2.5-1c-1-1-1.5-2.2-1.4-3.6c0.3-1.4,1.3-2.4,2.1-3.5
		c9.2-12.9,7.6-29.9-4.1-40.5c-12.2-11-30.5-10.5-41.9,0.6c-10.2,9.9-12.1,26.1-4.4,38.2c0.9,1.5,2.2,2.7,2.5,4.5
		c0,1.1-0.3,2-1.1,2.8c-0.7,0.5-1.6,0.7-2.4,0.7C134.4,67.9,132.6,68.6,132.2,66.4z"/>
	<path class="st0" d="M214.6,274.9c-0.3,0.3-0.5,0.6-0.8,0.9c-2.9-0.1-3.1-2.3-3.2-4.4c-0.1-2.1,0.5-4.1,0.4-6.2
		c1.1-3.7-0.9-7.2-0.8-10.8c0.5-4.5,0.7-8.9-0.2-13.4c-0.4-3.7-0.1-7.4-0.2-11.1c-0.9-3.1-0.1-6.4-1.5-9.4c-0.2-0.5-0.3-1.1-0.3-1.7
		c0.5-2.5-0.4-4.8-0.9-7.1c0.5-9.9-4-18.5-7.2-27.5c-0.5-1.3-1.5-2.3-2.1-3.5c-0.3-2.7,0.5-5.6-1.1-8.2c-0.3-0.7-0.6-1.4-0.9-2.1
		c-1.1-3.1-1.9-6.2-1.7-9.5c-0.1-0.9,0-1.7,0-2.6c0.8-8.1,0.3-16.2,1.1-24.2c0.4-3.9,0.4-7.7-0.1-11.6c-0.2-1.4-0.4-2.7-0.4-4.1
		c0-1.1-0.2-2.4,1.3-2.7c1.6-0.3,2.2,0.9,2.6,2.1c1,2.9,2.3,5.8,2.2,9c-0.2,1.6-0.3,3.2-1.9,4.2c-1.2,1.8-1.3,4-1.4,6
		c-0.2,7.2,0.1,14.4-0.8,21.6c-0.5,4,1,7.8,1.9,11.7c2.5,10.5,6.8,20.3,10.1,30.5c1.8,5.4,0.7,11.3,2.1,16.9
		c2.5,9.9,1.3,20.1,2.1,30.1c0.4,5.3,0.9,10.7,1,16c0,2.1,0.3,4.2-0.6,6.3C212.5,271.9,213.6,273.4,214.6,274.9z"/>
	<path class="st0" d="M94,175.2c0,2.1,0.1,4.3-0.1,6.4c-0.3,2.9-1.6,3.5-4.1,1.9c-4.9-3.2-6.1-7-5.4-12.9c0.6-5.1,1.7-10,3.7-14.7
		c0.7-1.7-0.2-3.4-0.2-5.2c0.1-11.4,2.6-22.5,5.5-33.4c2.8-10.7,5.7-21.5,10.6-31.5c4.5-9.3,12-15.7,22.1-18.7
		c1.1-0.4,2.2-0.7,3.2,0.2c-0.4,1.8-2.1,1.7-3.4,2.3c-0.8-0.2-1.6-0.3-2,0.7c-2.1,0.5-3.8,1.9-5.4,3.2c-0.4,0.3-0.8,0.6-1.2,0.9
		c-2.1,1.5-4,3.3-5.8,5.1c-0.6,1.1-1.7,1.8-2.4,2.8c-0.3,0.5-0.7,1-1.1,1.4c-0.5,0.5-1,1.1-1.3,1.7c-0.3,0.5-0.5,1-0.8,1.5
		c-0.2,0.5-0.4,1-0.6,1.6c-0.1,0.4-0.2,0.8-0.4,1.2c-0.2,0.7-0.4,1.5-0.5,2.2c-0.1,0.3-0.2,0.6-0.3,0.9c-0.4,0.7-0.8,1.4-1,2.3
		c-2.4,7.1-5.3,14.2-6.4,21.7c-0.2,0.8-0.7,1.5-1.1,2.2c-0.3,0.7-0.5,1.5-0.6,2.2c-0.1,0.6-0.2,1.2-0.3,1.9
		c-0.2,0.8-0.2,1.5-0.3,2.3c-0.2,0.7-0.7,1.4-0.9,2.1c-0.1,0.6-0.3,1.2-0.4,1.8c-0.2,0.8-0.3,1.5-0.4,2.3c0,0.7-0.1,1.3-0.2,2
		c-0.2,1-0.1,2.1-0.4,3.1c-0.9,3.7-1,7.4-1.5,11.1c0,1.1,0,2.2,0,3.3c-0.1,1.1,0.2,2.1,0.3,3.2c0,0.4,0,0.7-0.1,1.1
		c-0.5,1.3-1.1,2.6-1.4,4c-0.4,1-0.5,2.1-0.9,3.1c-1.4,4.7-1.9,9.5-1,14.3c0.1,0.7,0.2,1.5,0.8,2c0.7,0.6,1.5,1.1,2.4,0.9
		c0.9-0.2,0.7-1.2,0.7-1.9c0-2.7,0.3-5.3,2-7.4c0.9-1,1.9-2.8,3.5-0.6c0.5,1.7,0.6,3.3-0.4,4.9C95.7,176,94.7,174.1,94,175.2z"/>
	<path class="st1" d="M198.9,130.9c0.3-1.3,0.5-2.5,0.8-3.8c1.8,0.1,1.4,1.7,1.8,2.8c0,1.3,1.3,1.6,2,2.4c0.4,1-0.7,1.5-0.8,2.3
		c0.1,0.6,0.6,0.9,0.9,1.4c0.3,0.8-0.5,1.3-0.5,2c0,0.6,0.1,1.1,0.3,1.7c0.2,0.6,0.4,1.1,0.4,1.7c0,0.7,0.1,1.5,0.6,2
		c1,1,2.7,0.5,3.6,1.6c0.3,2.1-2.7,1-2.8,2.8c0.9,3.5,1.5,7.2,3.5,10.3c0.5,1.2,0.4,2.6,1.1,3.7c0.4,0.8,0.9,1.6,1.6,2.2
		c0.5,0.4,1,0.8,1.2,1.5c-0.5,2.2,0.8,4.1,1.2,6.2c0.2,2.4-1,4.9,0,7.4c1.4-0.3,1.1-1.6,1.5-2.4c0.5-1.1,1-2.1,2.4-2
		c1.3,0,1.9,1,2.4,2.1c1.4,3.2,0.5,6.4-0.4,9.7c2.6,0.4,3.8-0.9,4.9-3c2.2-4.3,1.4-9.1,2.8-13.5c0.2-0.8,0.5-1.6,0.5-2.5
		c0.1-1.3-0.2-2.5-0.8-3.7c-0.2-0.5-0.2-1-0.1-1.4c0.7-1.1,0.7-2.4,0.7-3.7c0.1-1.3,0.2-2.6,0.1-3.8c0-1.6-0.3-3.4,1.1-4.6
		c1.4-2.4,0.3-5.1,0.7-7.6c1,1.2,0.7,2.6,0.7,4c0.1,11,0.4,21.9-1.5,32.8c-0.5,3.2-1.9,6-3.5,8.5c-1.3,2.2-4.8,2.4-7.3,2.3
		c-1.8-0.1-1.3-2.7-1.1-4.2c0.2-2,1.3-3.9,1.2-6.1c-1.3,0.2-1.2,1.4-1.7,2c-1.6,2-3.8,1.8-5-0.6c-0.6-1.3-0.8-2.7-0.6-4
		c0.9-4.7-0.8-8.8-2.7-12.9c-3.9-8.6-6.2-17.6-7.8-26.8C200,135.4,198.4,133.4,198.9,130.9z"/>
	<path class="st2" d="M95.5,175.1c1.2-1.6,0.4-3.5,0.6-5.3c2.7,0.7,1,3.3,2.3,4.9c1.1-0.6,1.1-1.9,1.5-2.9c0.6-1.3,0.3-2.8,0.6-4.2
		c0.9-2.6,2-5.1,3.2-7.5c0.8-1.2,2.1-1.9,3.2-2.7c1.2-0.9,2.1-2.1,2.8-3.4c2.2-3.7,2.9-7.8,4-11.8c0.1-0.5,0.2-1,0.3-1.5
		c0.2-0.6,0.4-1.2,0.6-1.8c0.2-0.7,0.5-1.4,0.5-2.2c-0.1-0.7-0.7-1.4-0.4-2.2c0.4-0.6,1.2-0.9,1.5-1.7c0.3-0.5,0.5-1.1,0.6-1.7
		c0.1-0.6,0.2-1.2,0.4-1.8c0.2-0.6,0.3-1.3,0.4-1.9c0.1-0.7,0.2-1.4,0.4-2c1.7-2.9,1.7-6.7,4.6-9c0.6,0,1,0.3,1.4,0.8
		c0.3,0.9-0.2,1.4-0.8,1.9c-4.1,10.8-6,22.4-9.9,33.3c-1.2,3.5-3.4,6.2-6.3,8.6c-2.6,2.1-3.6,5.6-4.1,8.9c-0.4,2.1-1,4.1-1.6,6.1
		c-0.5,1.5-1.4,2.8-3.1,2.9c-1.8,0.1-2.6-1.3-2.9-2.9C95.1,175.5,95.1,175.3,95.5,175.1z"/>
	<path class="st3" d="M129.1,67.8c-0.8-1-2-0.6-3.1-0.7c1.9-1.3,4.1-0.6,6.1-0.7c1.1,1.1,2.5,0.5,3.8,0.7
		C133.9,70,131.6,69.3,129.1,67.8z"/>
	<path class="st2" d="M124.7,125.7c-0.2-1.1,0.3-2.2-0.8-3.1c0-0.7,0-1.5,0-2.2c0.3-0.3,0.7-0.3,1.1-0.1c0.5,0.3,0.9,0.8,1.1,1.4
		C126.2,123.2,127,125,124.7,125.7z"/>
	<path class="st4" d="M124.6,120.3c-0.2,0-0.4,0-0.7,0.1c-0.2-0.5-0.5-0.9-0.7-1.4c0.2-0.6,0.4-1.1,0.6-1.7c0-0.6,0.4-0.9,0.8-0.5
		C125.8,117.9,125.7,119.2,124.6,120.3z"/>
	<path class="st5" d="M95.5,175.1c-0.1,0.3-0.1,0.5-0.2,0.8c-0.4-0.2-0.9-0.5-1.3-0.7c0.2-0.7,0.3-1.4,1.1-1.7
		C95.2,174,95.4,174.6,95.5,175.1z"/>
	<path class="st6" d="M200.5,130.9c-0.2-1.3,0.2-2.7-0.8-3.8c-0.2-3.6-1.6-8.4-3.7-11.1c1.5,14.3-0.4,28.4-0.9,42.7
		c-2.2,1.8-5,1.2-7.6,1.6c-6.3,1.1-11.9,3.5-17.2,6.9c5.9-3.9,12.4-6.1,19.3-7.2c1.8-0.3,3.7-0.5,5.4,0.8c-0.3,3.4,1.1,6.6,1.7,9.9
		c0.6,2.4,1.1,4.8,0.9,7.3c-1.1,2.9-0.5,5.6,0.9,8.3c5.5,10.7,7.4,22.3,9,34.1c1.1,7.9,1.7,15.8,1.5,23.8c0,1.6,0.1,3.3-0.8,4.7
		c-0.4,0.5-0.9,0.9-1.5,1.1c-8.9,2.9-17.9,3.6-27.1,1.9c-1-0.2-1.8-0.7-2.3-1.7c-2.1-9.6-3.2-19.5-6.9-28.5
		c-3.1-7.5-5.4-15.1-7.5-22.8c-0.7-2.7-2.1-5.1-3.8-7.2c-0.8-0.9-1.1-2-1-3.1c0.4-6.3,0.2-12.7,1.8-18.9c1-3.8,0.4-7.7,0.2-11.6
		c-0.1-1.2-0.4-2.5-0.2-3.7c0.2-1.4,0.7-2.7,0.1-4.1c-0.4-2-0.4-3.9-0.3-5.9c0.4-1.2,1.3-1.4,2.4-1.6c0.8,0,1.6,0.1,2.3,0.5
		c0.3,0.2,0.5,0.5,0.7,0.9c0.6,1.6-0.8,3.3,0.3,5c1.7-1,0.7-2.6,1.2-3.8c0.8-0.9,1.8-1.7,1.7-3.2c0-0.3,0.1-0.6,0.2-1
		c0.6-1.4,1.2-2.7,1.5-4.2c0.3-0.8,0.5-1.6,0.7-2.4c0.3-1,0.5-2,0.7-3c0.3-1,0.4-2,0.6-3c0.4-2.2,1.4-4.3,2.1-6.4
		c0.5-1.3,0.5-2.6,0.3-3.9c0-0.3,0.1-0.7,0.2-1c0.4-1.2,1.6-2.1,1.5-3.6c0-0.7,0.3-1.3,0.6-1.9c0.4-0.7,0.6-1.5,0.8-2.3
		c0.4-1.4,0.4-3,1.1-4.3c0.4-0.9,0.8-1.8,1-2.8c0.5-1.2,0.2-2.6,0.4-3.8c0.7-1.5,1.7-2.8,1.9-4.5c0.6-1.4-0.2-3.4,1.8-4.3
		c0.4-0.1,0.8-0.2,1.2-0.2c2.7,0.5,2.4,2.7,2.5,4.6c0,3.4,0.2,6.8-0.7,10.1c-0.1,1.5-0.1,3.1,0,4.6c1.1,3.2,4,3.4,6.6,4.2
		c0.6-1.6,0.1-2.9-0.2-4.1c-0.2-0.5-0.3-1.1-0.3-1.6c-1-2.4-0.4-5-1.2-7.4c-0.3-2-0.3-3.9,0-5.9c0.2-0.7,0.5-1.4,0.8-2.1
		c0.4-0.8,0.7-1.6,1.1-2.4c0.6-1,1.5-1.9,2.2-2.8c0.5-0.5,1.1-0.8,1.8-1c1.3-0.3,2.5-0.7,3.8-1.2c0.9-0.3,1.9-0.4,2.9-0.7
		c0.3-0.1,0.6-0.2,1-0.3c1.5-0.2,3-0.9,4.6-0.8c0.5,0.1,1,0.3,1.5,0.6c1.2,1.9,4.5,3.3,1.6,6.2c-3.1,3.3-3.3,6.1-0.9,10.3
		c0.7,1.2,1.5,1.5,2.8,1.1c1-0.3,2.1-1,3.2-0.3c2.4,0.6,2.1,2.9,2.7,4.5c2.1,5.9,4.2,11.9,5,18.2c-0.3,1.1-1.1,1.7-2,2.1
		c-6.6,3.1-13.3,5.4-20.6,6.1C201.8,131.6,201.1,131.3,200.5,130.9z"/>
	<path class="st6" d="M124.7,125.7c1.1-1.4,0.6-3.1,0.6-4.6c-0.4-0.5-0.3-1.1-0.2-1.6c0.6-1.9-0.2-3.8,0-5.7c0-0.8,0.1-1.6,0.5-2.3
		c0.4-0.7,1-1.2,1.7-1.5c3.2-0.8,6.4-1.6,8.2-4.7c0.2-1.7,0.1-3.3-0.5-4.9c-0.3-2-0.2-4-0.2-6.1c0-1.2,0-2.5,0.3-3.7
		c0.3-1.1,1-1.8,2.1-2.1c0.4-0.1,0.8,0,1.2,0.2c1.9,1.6,1.2,4.3,2.7,6.1c0.3,0.7,0.4,1.5,0.4,2.2c-0.1,1.5,0.5,3,0.7,4.4
		c0.3,2,0.7,4.1,1.3,6.1c0.3,1.5,0.7,2.9,1,4.4c0.3,2.2,0.8,4.4,1.3,6.5c0.2,1.2,0.4,2.4,0.7,3.6c0.2,0.9,0.5,1.8,1,2.6
		c0.1,0.3,0.2,0.6,0.2,0.9c-0.2,1.1-0.2,2.1,0.2,3.1c0.2,1.2,0.7,2.4,1.3,3.5c0.2,0.8,0.2,1.6,0.1,2.4c0.2,1.3,0.2,2.6,0.9,3.7
		c0.2,0.3,0.3,0.6,0.4,0.9c0,1.2-0.1,2.5,0.8,3.5c0.5,1.2-0.2,2.5,0.2,3.6c0.2,0.7,0.4,1.4,0.8,2c0.6,0.6,1.1,0.7,1.3-0.3
		c0-0.9,0-1.8,0.2-2.7c0.1-0.5,0.3-0.9,0.6-1.3c0.6-0.7,1.1-1.3,1.9-1.6c0.4-0.1,0.7,0,1.1,0.1c1,0.4,1.6,1.1,1.8,2.1
		c0.4,2.5-0.6,4.8-0.4,7.3c0,0.4,0,0.9,0.1,1.3c-0.8,10.9-1.4,21.8-2.2,32.8c-0.1,1.2-0.1,2.5-1.3,3.3c-4.5,7.3-5.6,16-9.7,23.2
		c-3.1,5.4-4.9,10.9-6.7,16.6c-0.4,1.9-1.8,2.7-3.6,2.5c-8.6-0.8-17.4-0.9-25.9-2.8c-1.8-0.4-3.4-0.9-3.7-3c0.3-7.5,2.5-14.7,3.9-22
		c1.8-9.3,4.4-18.4,6.1-27.7c0.5-1.4,1-2.7,1.4-4.1c0.8-3.7,1.6-7.4,2.2-11.1c0.3-2,1.5-2.3,3-2.4c3.6-1.6,6.9-0.1,10,1.2
		c4.3,1.7,8.5,3.6,11.2,6.1c-6.8-5.2-10.3-6.7-20.1-8.4c-0.9-0.2-2-0.1-2.6-1.2c0.1-5.1,1-10.1,2-15
		C123.9,136,123.9,130.8,124.7,125.7z"/>
	<path class="st6" d="M211.8,265.1c0.5,1.4,0.7,2.7,0.2,4.2c-0.9,2.5-0.6,4.8,1.9,6.4c1.4,2.9,3.5,5.5,3.8,8.8
		c0.7,2.3-1,2.9-2.5,3.4c-9.7,3.2-19.7,4.5-29.8,3.6c-3.9-0.4-4.4-1.3-3.8-5.5c3.3-7.6,0.8-14.7-1.4-22c-1.1-3.5-1.5-7.3-2.2-10.9
		c1.1-1.1,2.5-1,3.9-0.8c7.6,0.8,15.2,0.9,22.6-1.6c1.7-0.6,3.5-0.8,4.6,1.1C210.3,256.2,211.8,260.5,211.8,265.1z"/>
	<path class="st6" d="M133.6,253.1c-1.6,7.2-1.8,14.7-5.4,21.4c-0.8,1.4-0.7,2.9-0.3,4.4c0.8,3.2,0.7,6.4-0.3,9.5
		c-2.4,1.9-5.3,1.3-7.9,1c-7.7-0.8-15.2-2.2-22.4-5.2c-1.3-0.6-2.9-0.9-3.5-2.6c0.1-2.7,1.7-4.7,3.3-6.5c2.2-2.4,3.8-4.8,2.8-8.2
		c-0.2-0.7,0.4-1.6,0.6-2.5c-0.1-4.5,1.6-8.8,1.5-13.3c0-1,0.6-1.9,1.6-2.3c3.3-0.5,6.3,1.2,9.5,1.7c5.5,0.8,11,1.8,16.7,1.5
		C131.1,252,132.6,251.9,133.6,253.1z"/>
	<path class="st6" d="M137.4,235.2c-0.5,5.3-2,10.5-3.1,15.7c-0.5,1-1.3,1.5-2.4,1.4c-8.9-0.3-17.7-1-26.2-4c-1.1-0.4-2-1-2.6-2
		c-0.3-6.1-0.5-12.1,2.6-17.6c3.9-0.1,7.6,1.3,11.4,1.9c5.7,1,11.4,0.9,17.1,1.1C136.3,231.8,138.5,232,137.4,235.2z"/>
	<path class="st6" d="M219,289.1c0.9,3.4-0.7,4.9-3.9,5.7c-9.6,2.5-19.3,3.7-29.2,3.2c-2.8-0.1-4.9-0.9-4.4-4.4
		c0.5-2.5,2.6-1.8,4.1-1.9c5.9-0.2,11.9,0.3,17.8-0.7c3.8-0.6,7.5-1.6,11.2-2.6C216.2,288.1,217.9,287.2,219,289.1z"/>
	<path class="st7" d="M105.7,229c-1.1,5.7-1.8,11.5-1.9,17.4c0.5,1,0.8,2-0.2,2.9c-1.1,5-0.8,10.3-3,15.1c-1.6-2.5-0.2-5.1-0.1-7.6
		c-0.2-2.3-0.6-4.5,0.2-6.7l0,0.1c0.8-3.2,0-6.6,1.1-9.8c0.1-1.2,0-2.5,0.1-3.7c1.6-14.3,4.4-28.3,7.9-42.2c0.5-1.1,0.7-2.2,1-3.4
		c0.7-1.6,0.7-3.4,1.4-5c0.5-1.6,0.4-3.4,1.5-4.9c1.3-2.5,0.4-5.7,2.8-7.7c0.6,0.9,0.5,1.8,0.1,2.7c-1,9.3-4,18.1-5.7,27.3
		c-1.3,7.3-3.3,14.5-4.2,21.9C105.6,226.3,107.2,228,105.7,229z"/>
	<path class="st8" d="M155.2,189.4c0.8-12.3,1.6-24.5,2.4-36.8c1.3-0.7,2.5-1.3,3,0.8c0.3,4.9,1.5,9.9,0.6,14.5
		c-0.7,3.8-1.3,7.5-1.5,11.3c-0.2,4.1-0.5,8.2-0.7,12.3C157.8,190.7,155.3,192.2,155.2,189.4z"/>
	<path class="st6" d="M126.9,291.4c0.1,2.9-1.9,3.6-4.1,3.7c-9.7,0.2-18.8-2.2-27.9-5.4c-3-1.1-2.9-3.3-1.8-5.8
		c1.2-0.9,2.4-0.4,3.5,0.1c8.9,3.8,18.2,5.6,27.9,5.9C125.5,290,126.9,289.6,126.9,291.4z"/>
	<path class="st9" d="M219,289.1c-0.7-0.4-1.4-0.4-2.1-0.1c-10.2,3.8-20.8,4.2-31.5,3.9c-1.3,0-2.8-0.4-3.8,0.8
		c-0.9-2.6-1.1-5.1,0-7.6c-0.4,2.8,0.8,4.1,3.5,4.4c10.6,0.9,20.9-0.7,31-4c0.9-0.3,1.4-0.9,1.5-1.9
		C218.7,285.9,218.7,287.6,219,289.1z"/>
	<path class="st10" d="M105.7,229c0.3-1.3,0-2.7,0.9-3.8c0,1.4,0.3,2.3,2,2.5c5.5,0.6,11,1.6,16.6,2.2c3.1,0.3,6.2-0.1,9.3,0.7
		c1.6,0.4,3.2,0.2,4.3-1.4c-0.3,2-0.4,4.1-1.4,6c0.1-2.8-2-2.4-3.6-2.3c-8.7,0.4-17.3-0.7-25.7-3C107.3,229.6,106.5,229.3,105.7,229
		z"/>
	<path class="st9" d="M126.9,291.4c-3.9-0.4-7.9-0.6-11.8-1.1c-7.7-0.9-14.8-3.7-21.9-6.4c0-0.8-0.1-1.7,0.7-2.3
		c10.8,4.6,22,7.2,33.8,6.8C127.6,289.4,127.9,290.5,126.9,291.4z"/>
	<path class="st11" d="M110.5,194c-2.3,11.2-4.6,22.4-6.8,33.6c-0.6,3-1,6-1.5,9c-0.2,0.3-0.4,0.4-0.7,0c1.5-15,2.3-30.1,8.2-44.2
		C111.2,192.3,110.7,193.2,110.5,194z"/>
	<path class="st12" d="M208.5,252.4c-0.7-0.6-1-1.6-2.4-1c-8.8,3.4-17.9,3-27,1.8c-0.4,0-0.7,0-1.1,0c-0.2-1-0.5-2-0.7-3
		c4.9,1.3,10,1.9,15,1.4c5.3-0.5,10.5-1.2,15.6-2.9C209.3,249.7,209.9,250.9,208.5,252.4z"/>
	<path class="st13" d="M103.6,249.3c0.1-1,0.1-2,0.2-2.9c7.2,2.9,14.6,4.5,22.3,4.4c2.8,0,5.5,1.9,8.3,0.1c-0.2,0.8-0.5,1.5-0.7,2.3
		C123.4,253.6,113.4,252.1,103.6,249.3z"/>
	<path class="st14" d="M120.9,156.2c9.3,0.3,17.4,3.7,24.5,9.7c0.7,0.6,2.4,1.2,1.3,2.5c-1.2,1.4-1.9-0.4-2.6-0.9
		c-6.4-5.1-13.5-8.3-21.7-8.9C122,157.7,119,158.5,120.9,156.2z"/>
	<path class="st15" d="M102,240.3c-0.5,3.3,0.1,6.7-1.4,9.8c0.3-3.3-0.8-6.6,0.7-9.8C101.6,240,101.8,240,102,240.3z"/>
	<path class="st16" d="M113.6,181.1c-0.4,1.7-0.7,3.5-1.1,5.2c-0.6,0.1-1,0-0.7-0.8C111.9,183.8,111.9,182.1,113.6,181.1z"/>
	<path class="st17" d="M111.8,185.5c0.2,0.3,0.4,0.5,0.7,0.8c-0.5,1.5-0.3,3.3-1.3,4.7c-0.7-0.3-0.3-1.2-0.7-1.6
		C110.9,188.1,111.4,186.8,111.8,185.5z"/>
	<path class="st18" d="M100.7,250.1c-0.1,2.2-0.1,4.5-0.2,6.7C99.6,254.5,99.4,252.3,100.7,250.1z"/>
	<path class="st19" d="M110.5,189.4c0.2,0.5,0.5,1.1,0.7,1.6c0,1.1,0.1,2.1-0.8,3c-0.3-0.5-0.5-1.1-0.8-1.6
		C110,191.4,110.2,190.4,110.5,189.4z"/>
	<path class="st20" d="M116.5,176c0-0.9-0.1-1.8-0.1-2.7c0-0.6,0.2-1.1,0.8-1.3C117.2,173.4,117.4,174.8,116.5,176z"/>
	<path class="st21" d="M102,240.3c-0.2,0-0.5,0-0.7,0c0-1.2,0.1-2.5,0.1-3.7c0.2,0,0.4,0,0.7,0C102.1,237.8,102.1,239.1,102,240.3z"
		/>
	<path class="st6" d="M138.8,64.7c-10.5-13.3-10.7-28.1-0.5-41.1c10.1-12.8,29.9-15.1,43.1-5.1c14.8,11.3,17,32,4.9,46
		c-0.3,0.4-0.5,0.8-0.8,1.2c-0.9,4.4-4.6,6.2-7.9,7.8c-12.4,5.8-24.4,4.6-35.4-3.8C140.6,68.5,138.6,67.3,138.8,64.7z"/>
	<path class="st6" d="M229,150.4c0,1.8-0.1,3.6-0.1,5.3c-0.9,0.8-2,1-3.1,1c-4.9,0.1-9.7,0.8-14.3,2.2c-0.9,0.3-2,0.5-2.9-0.2
		c-3.4-3-3.2-7.4-4.4-11.3c2.3-1.5,5-0.8,7.5-1.4c4.2-0.9,8.5-1.8,12.5-3.2c1.3-0.4,2.6-1,3.9-0.1
		C229.3,145.2,228.6,147.8,229,150.4z"/>
	<path class="st22" d="M138.8,64.7c9.2,12.6,33.6,16.6,46.6,0.9c0.5,1,1,2.1,1.5,3.1c0.1,1.4-0.8,2.1-1.7,2.9
		c-8.6,7-18.3,9.8-29.4,7.8c-7.5-1.4-13.4-5.1-18-11.1c-0.2-0.4-0.2-0.8,0-1.2C138.1,66.3,138,65.3,138.8,64.7z"/>
	<path class="st23" d="M137.9,67.1c0.1,0.2,0.2,0.5,0.3,0.7c-0.3,0.6-0.8,1-1.4,1.3c-1,0.4-1.3,1.1-1,2.1c0.1,0.6,0.2,1.3,0.2,2
		c0,0.8,0,1.7,0.1,2.5c0.1,1.7,0.7,3.2,1.4,4.6c0.3,1.1,0,2-0.4,3c-0.2,0.3-0.4,0.5-0.7,0.7c-0.7,0.3-1.4,0.3-2.1,0
		c-0.6-0.3-1.1-0.9-1.4-1.5c-0.6-1-1.1-2.1-1.7-3.1c-0.6-1.2-1.5-2.1-2.4-3.1c-0.2-0.3-0.4-0.6-0.5-0.9c-0.6-1.6-1.7-2.9-2.7-4.3
		c-0.4-0.6-0.7-1.2-0.4-2c1-1.2,2.5-1.3,3.9-1.5c2.3-0.1,4.6,0.7,6.8-0.7C136.6,67.1,137.3,67.1,137.9,67.1z"/>
	<path class="st24" d="M189.1,69.4c3.5-0.1,6.9,0,9.8,2.1c-1.1,3.4-4.7,5-6.2,8.1c-1.7,1.6-2.1,4.2-4.5,5.3c-1.2,0.3-2.2,0-2.8-1.2
		c-0.2-0.5-0.4-1-0.4-1.6c0.1-1.4,0.9-2.6,1.3-3.9c0.4-1,0.5-2,0.8-2.9c0.4-1.3,0.9-2.6,1.1-4C188.3,70.5,188.6,69.9,189.1,69.4z"/>
	<path class="st25" d="M217.5,100.7c-6,2.4-6,2.4-8.1-4c0-0.1-0.1-0.2-0.1-0.4c-1.6-4.8-1.6-4.8,3.1-6.7c0.6,0,1.3-0.2,1.8,0.1
		C215.8,90.7,218.1,98.7,217.5,100.7z"/>
	<path class="st26" d="M197.4,86.6c-0.5,0.2-1,0.4-1.5,0.7c-1.3,0.4-2,1.5-3.2,2c-0.8,0.1-1.3-0.1-1.7-0.8c-0.5-1.5,0.4-2.6,1.1-3.8
		c0.2-0.3,0.4-0.5,0.7-0.7c0.8-0.6,1.6-1.1,2.2-1.8c1.6-1.4,3.4-2.6,5.3-3.7c1.7-0.8,3.3-2,5.3-1.7c2.1,1.2,3,3.3,4.3,5.1
		c-0.3,1.1-1.4,0.9-2.1,1.2c-1.2,0.5-2.7,0.3-3.8,1.2l0.1,0c-1.2,0.3-2.6,0-3.7,0.7C199.3,85.2,198.2,85.7,197.4,86.6z"/>
	<path class="st27" d="M200.4,72.3c1.8,0.7,4.2,0.8,3.8,3.7c-0.7,1.9-2.7,1.9-4.1,2.8c-1.8,1-3.7,2.1-5.2,3.6c-0.7,0.7-1.3,1.4-2,2
		l0.1-0.1c-1.2,1-1.6,2.8-3.3,3.3c-0.8-0.2-1.1-0.9-1.1-1.7c0.7-2.3,2.3-4.1,3.4-6.1c2-1.7,3.2-4,5.2-5.6
		C198.1,73.4,198.9,72.1,200.4,72.3z"/>
	<path class="st28" d="M200.5,130.9c8.7-1,17-3.4,24.7-7.5c0.8,0.6,0.7,1.4,0.7,2.2c-1.3,2.9-4.5,2.9-6.9,4
		c-3.7,1.7-7.8,2.7-11.8,3.4c-1.4,0.3-2.7,0.5-3.9-0.5C202.1,132.5,200.8,132.4,200.5,130.9z"/>
	<path class="st29" d="M207.8,145.3c-1.4-0.9-3.9,1.1-4.4-1.8c1-1.1,2.3-1.5,3.7-1.6c6.3-0.2,12.2-1.9,18.2-3.7
		c1-0.3,1.9-0.6,2.8,0.1c0,0.8,0,1.5,0,2.3c-4,3.3-9.1,3.8-13.8,4.9C212.2,146,209.9,146.9,207.8,145.3z"/>
	<path class="st30" d="M203.3,136.3c-1-0.1-1.8-0.6-2-1.7c2.6-1.7,5.6-1.5,8.5-2.2c4.2-1,8.3-2.3,12.3-3.9c1.4-0.6,2.8-1.8,4.5-0.7
		c0,0.8,0.1,1.5,0.1,2.3c-4.6,4.2-10.5,5-16.3,6.2C208.1,136.8,205.6,138.1,203.3,136.3z"/>
	<path class="st31" d="M202.7,139.9c-0.4-0.7-0.6-1.4,0-2.1c2.4-1.8,5.2-1,7.9-1.6c4.3-0.9,8.4-2.1,12.5-3.6
		c1.4-0.5,2.7-1.3,4.3-0.4c0.2,0.8-0.1,1.5-0.6,2.2c-0.9,1.9-2.9,2.2-4.6,2.9c-5.1,2-10.6,2.5-16,3.4
		C204.9,141,203.7,140.8,202.7,139.9z"/>
	<path class="st32" d="M228.1,138.4c-7.9,3.1-16.3,4.4-24.7,5.1c-0.4-0.7-0.7-1.3,0-2c2.4-1.4,5.2-1.2,7.8-1.6
		c4.4-0.7,8.7-1.8,12.9-3.2c1.1-0.4,2.2-1.3,3.5-0.4C228.2,136.8,228.1,137.6,228.1,138.4z"/>
	<path class="st33" d="M226.6,127.8c-8.1,3.5-16.5,6-25.3,6.8c-0.3-1.6,1.4-1.3,2-2c8-0.9,15.4-3.5,22.6-7
		C226.1,126.3,226.3,127,226.6,127.8z"/>
	<path class="st34" d="M207.8,145.3c7.1-0.3,13.6-2.7,20.3-4.7c0,0.7,0,1.5,0,2.2c-7.8,2.6-15.6,4.9-24,4.6
		c-0.4-0.9-0.6-1.6,0.8-1.7C206,145.7,207,146,207.8,145.3z"/>
	<path class="st35" d="M227.3,132.3c-8,2.9-16.1,5.3-24.6,5.5c-1.1-1,0.5-1,0.6-1.5c8.2-0.6,15.9-2.9,23.4-6.2
		C226.9,130.8,227.1,131.6,227.3,132.3z"/>
	<path class="st36" d="M227.5,136.2c-7.7,3.1-15.8,5-24.1,5.3c-0.6-0.4-0.7-1-0.7-1.6c8.3-0.5,16.3-2.3,24-5.4
		C227.4,134.9,227.5,135.5,227.5,136.2z"/>
	<path class="st37" d="M200.4,72.3c-2.7,2.6-5.5,5.2-8.2,7.8c-0.4-0.3-0.5-0.7-0.1-1.1c1.8-2.9,4.4-5.1,6.9-7.5
		C199.6,71.6,200.1,71.6,200.4,72.3z"/>
	<path class="st38" d="M199.7,78.4c1.5-0.8,3-1.6,4.6-2.4c0.6,0.1,1.2,0.1,1.4,0.8c-1.7,0.8-3.4,1.6-5.1,2.4
		C199.7,79.6,199.6,79.1,199.7,78.4z"/>
	<path class="st39" d="M189.1,69.4c0,0.7-0.1,1.4-0.1,2.2c-1.2,0.6-2.3,0.2-3.4-0.3c-0.1-0.1-0.2-0.3-0.3-0.4
		c0.6-0.7,1.1-1.4,1.7-2.1C187.7,69,188.4,69.2,189.1,69.4z"/>
	<path class="st40" d="M207.7,82.7c0.8-0.3,1.5-0.5,2.3-0.8c0.5,0.3,0.8,0.8,0.8,1.5c-0.5,0-1,0.1-1.5,0.1
		C208.9,83,208,83.5,207.7,82.7z"/>
	<path class="st7" d="M208.5,252.4c-0.2-1.3-0.4-2.5-0.6-3.8c0.5-16.4-1.1-32.5-5.2-48.4c-1.3-5.1-3.3-9.9-5.6-14.6
		c-1.2-2.5-1.8-4.9-0.4-7.5c0.9-1.9-0.4-4,0.7-5.9c2.2,2.5,1.4,5.3,0.7,8.1c4.5,10.2,9,20.5,9.5,31.9c0.6,2.1,1,4.2,0.9,6.4
		c0,0.5,0.1,1,0.1,1.4c1.3,2.6,0.7,5.5,1.3,8.2c0.2,1.9-0.1,3.9,0.4,5.8c-0.2,4.7,0.6,9.3,0.4,14c-0.3,2.2,0.8,4.3,0.2,6.4
		c0.2,3.5,2.6,6.9,0.7,10.6C210.4,261,209.3,256.7,208.5,252.4z"/>
	<path class="st41" d="M195.1,160.8c-9.2,0.2-17.7,2.5-25.2,8.1c-0.7,0.5-1.6,1.8-2.4,0.4c-0.7-1.2,0.7-1.7,1.4-2.2
		c7.8-5.8,16.6-8.3,26.2-8.4C195.1,159.3,195.1,160,195.1,160.8z"/>
	<path class="st42" d="M207.3,212.6c-1.3-9-3.4-17.7-7.4-25.9c-1-2-2.4-3.9-1.7-6.3c3.2,2,3.5,5.6,4.6,8.6c2.7,7.4,6.3,14.6,5,22.9
		C208.3,212.6,207.9,212.6,207.3,212.6z"/>
	<path class="st33" d="M210.3,248.5c-0.1-4.9-0.1-9.8-0.2-14.7c-0.5-1.4-0.2-2.9-0.2-4.3c0.2-0.5,0.5-0.6,1-0.3
		c0.1,4,0.1,8,0.2,11.9C211.1,243.6,212.2,246.2,210.3,248.5z"/>
	<path class="st43" d="M210.3,248.5c1.2-2.4,0.3-5,0.7-7.5c1.1,4.5,1,9,0.1,13.5C210.9,252.5,209.9,250.6,210.3,248.5z"/>
	<path class="st44" d="M210.8,229.1l-0.3,0l-0.3,0c-0.3-0.2-0.5-0.4-0.6-0.7c-0.3-2.8-0.5-5.5-0.8-8.3c1.8,0.3,1.4,1.8,1.4,2.9
		C210.2,225.1,210.2,227.1,210.8,229.1z"/>
	<path class="st45" d="M207.3,212.6c0.2-0.2,0.4-0.5,0.5-0.7c0.9,2.2,2.1,4.3,0.8,6.8C207.5,216.8,208.2,214.5,207.3,212.6z"/>
	<path class="st46" d="M197.5,172.3c-0.3,2,0.6,4.1-0.7,5.9c0-2.5,0-5,0-7.5C197,171.2,197.2,171.7,197.5,172.3z"/>
	<path class="st6" d="M123.1,116.5c-2.1,2.8-2.2,6.5-4.4,9.2c-0.8,0.7-1.8,0.8-2.8,0.6c-6.6-1.4-12.8-3.9-18.6-7.4
		c-0.7-0.4-1.1-1-1.1-1.8c-1-1.1-0.5-2.3-0.1-3.5c2.1-6.5,4.1-13,6.2-19.5c2.4-0.8,3.7,2.1,5.9,1.6c0.7-0.3,1.2-0.8,1.6-1.4
		c0.1-0.3,0.3-0.5,0.5-0.8c0.4-0.6,0.9-1.2,1.3-1.9c0.5-0.7,1-1.5,1.3-2.4c0.2-0.6,0.6-1.1,1-1.6c0.6-0.7,1.1-1.4,1.5-2.3
		c0.8-1.1-0.1-1.6-0.8-2.2c-0.4-0.4-0.6-0.9-0.6-1.4c0.2-0.6,0.6-0.9,1.1-1.2c0.9-0.3,1.9-0.3,2.8-0.1c2.1,0.6,4.3,1,6.2,2
		c1,0.5,1.8,1.2,2.7,1.7c1.1,0.7,2,1.7,2.5,2.9c0.3,0.7,0.6,1.4,0.7,2.2c0.3,1.8,0.3,3.5,0,5.3c-0.7,2.8-1.6,5.5-2,8.4
		c0,1.1,0,2.3-0.3,3.4c-0.4,1.2-1.1,2.4-1.4,3.6C124.9,112.1,125.2,114.9,123.1,116.5z"/>
	<path class="st6" d="M114.8,142.1c-1.3,4.4-2,8.9-4.5,12.9c-1,0.5-2,0.2-2.8-0.4c-4.6-2.9-9.7-4.3-15-5.2c-1.1-0.2-2.2-0.5-3-1.3
		c0.7-4-0.2-8.4,2.1-12.2c0.9-0.7,1.9-0.4,2.8,0c6.1,2.5,12.3,4.6,18.9,5.3C113.9,141.3,114.4,141.7,114.8,142.1z"/>
	<path class="st12" d="M100.7,172.1c-0.1,0.6-0.1,1.3-0.3,1.8c-0.5,1.2-0.9,3.1-2.4,2.8c-1.7-0.3-0.9-2.2-1.1-3.5
		c-0.1-1.2,0.4-2.5-0.7-3.4c-3.1,0.5-3,3.3-3.7,5.4c-0.3,0.8,0,1.7-0.1,2.6c-0.2,1.5,0.9,3.3-0.9,4.4c-0.7,0.4-4.8-3.6-5.1-4.7
		c-1.5-4.3,0.3-8.6,0.1-12.8c-0.1-1.1,0.4-1.9,1.4-2.4c3.7,2.1,7.2,4.2,11.4,5.2C101.9,168.1,101.1,170.3,100.7,172.1z"/>
	<path class="st47" d="M104.4,160.1c-0.5,2.7-1.7,5.1-3.1,7.5c-4.5-0.1-8.2-2-11.9-4.4c-1.5-1-1.5-2.4-0.9-3.9
		c0-1.4,0.5-2.6,1.4-3.6c5,0.1,9.5,2.4,14.1,3.9C104.2,159.8,104.3,159.9,104.4,160.1z"/>
	<path class="st48" d="M111.1,79.3c1.3-2.4,3.3-4.2,5.8-5.4c0.6,0,1.3,0,1.9,0.2c0.9,0.4,1.7,0.9,2.4,1.4c1,0.7,2.1,1.4,3.1,2.1
		c0.8,0.5,1.5,1.1,2.2,1.8c1.2,1.3,2.5,2.5,3.7,3.8c0.6,0.7,1.3,1.5,1.9,2.3c0.2,0.3,0.2,0.6,0.2,1c-0.4,1.1-1.2,1.6-2.4,1.3
		c-1.3-0.8-1.9-2.3-3.3-3.1c-0.8-0.6-1.6-1.2-2.5-1.7c-1.7-0.8-3.4-1.5-5.4-1.7c-2.1-1-4.4-0.4-6.6-0.8
		C111.7,80.2,111.4,79.8,111.1,79.3z"/>
	<path class="st7" d="M89.5,148.1c7.6,0.3,14.5,2.8,20.8,6.9c-0.9,1-1.2,2.6-2.8,2.9c-0.8,0.3-1.5,0.1-2.1-0.2
		c-4.1-2.4-8.6-3.7-13.2-4.6c-1-0.2-1.9-0.5-2.6-1.2C89.5,150.6,89.5,149.4,89.5,148.1z"/>
	<path class="st49" d="M129.2,75.8L129.2,75.8c0.6,1.4,1.8,2.4,2.5,3.9c0.5,1.1,1.1,2.2,1.6,3.3c0.2,0.5,0.3,1,0.3,1.6
		c-0.2,0.7-0.4,1.5-1.5,1.3l0,0c-0.9-0.8-1.2-1.9-2-2.7c-1.2-1.2-2.3-2.3-3.5-3.5c-0.7-0.6-1.6-1.2-2.3-1.8
		c-0.9-0.7-1.8-1.4-2.8-1.9c-0.8-0.5-1.5-1.1-2.4-1.6c-0.5-0.3-1.2-0.6-1.2-1.3c1.7-1.5,3.2-3.5,5.9-3c0.9,0.1,1.5,0.8,2.1,1.4
		C127.1,72.7,128.1,74.3,129.2,75.8z"/>
	<path class="st50" d="M116.3,136.9c-0.2,0.7-0.5,1.5-0.7,2.2c-0.7,0.6-1.5,0.7-2.4,0.6c-6.7-0.8-13-2.9-19-6
		c-1-0.5-1.8-1.3-2.4-2.2c0-0.8,0-1.6,0.8-2.2c1.1-0.7,2.2-0.2,3.1,0.3c5.5,2.9,11.3,4.8,17.4,5.9
		C114.2,135.6,115.4,136,116.3,136.9z"/>
	<path class="st51" d="M118.6,127.8c0,0.7-0.2,1.3-0.8,1.7c-0.8,0.7-1.8,0.9-2.8,0.7c-6.8-1.5-13.3-3.7-19.4-7.1
		c-0.8-0.4-1.2-1.2-1.6-2c0.2-0.8,0.5-1.5,0.7-2.3c1.2-0.5,2.2,0.1,3.2,0.6c5.9,3.2,12,5.7,18.7,7
		C117.4,126.6,118,127.2,118.6,127.8z"/>
	<path class="st11" d="M89.5,151.8c6.5,0.5,12.6,2.1,18,6.1c-0.5,1.4-1.9,1.6-3.1,2.2c0,0,0,0,0,0c-4.4-2.6-9.6-3.2-14.3-5.2
		C89.7,153.9,89.4,152.9,89.5,151.8z"/>
	<path class="st52" d="M117.1,133.1c0.1,1.6-1.1,1.5-2.1,1.7c-0.8,0.8-1.9,0.7-2.8,0.5c-6.5-1.2-12.8-3.4-18.5-6.7
		c-0.6-0.3-0.9-0.9-1.2-1.4c0.2-0.7,0.6-1.3,1.3-1.6c1-0.5,1.9-0.1,2.8,0.4c5.6,2.7,11.5,4.6,17.6,5.9
		C115.3,131.9,116.4,132.2,117.1,133.1z"/>
	<path class="st35" d="M117.1,133.1c-8.3-1-16-3.7-23.4-7.7c-0.4-0.8-0.9-1.6,0.1-2.2c1-0.4,1.9,0,2.8,0.5c6,3,12.3,5.2,18.9,6.5
		c0.9,0.2,1.5,0.7,2.1,1.4C117.6,132.1,117.4,132.6,117.1,133.1z"/>
	<path class="st52" d="M118.6,127.8c-8.5-1.5-16.5-4.7-23.9-9.1c0-1,0.5-1.5,1.4-1.7c7,4.3,14.4,7.3,22.6,8.6
		C118.7,126.4,118.6,127.1,118.6,127.8z"/>
	<path class="st31" d="M114.8,142.1c-8.3,0.2-15.8-3.2-23.3-6.2c-0.4-0.8-0.9-1.5,0.1-2.2c0.8-0.5,1.7-0.4,2.5,0
		c5.9,2.7,11.9,4.9,18.4,5.8c0.8,0.1,1.7,0.4,2.4,1C114.9,141.1,114.9,141.6,114.8,142.1z"/>
	<path class="st28" d="M117.8,131.5c-8.4-1.5-16.4-4.1-23.9-8.3c0-0.7,0-1.5,0-2.2c7.5,4,15.3,7.4,23.9,8.4
		C117.8,130.2,117.8,130.9,117.8,131.5z"/>
	<path class="st35" d="M114.9,140.5c-8.3-0.5-15.7-3.7-23.3-6.8c0-0.8,0-1.5,0-2.3c7.5,3.9,15.4,6.7,23.9,7.7
		C115.4,139.6,115.2,140.1,114.9,140.5z"/>
	<path class="st53" d="M92.5,127.1c7,4,14.5,6.6,22.5,7.7c0.6,0.6,1.6,0.9,1.3,2.1c-8.5-1-16.3-3.8-23.9-7.7
		C92.5,128.5,92.5,127.8,92.5,127.1z"/>
	<path class="st54" d="M88.6,159.3c-0.2,2,0.7,3.2,2.5,3.9c3.4,1.4,6.8,2.9,10.2,4.3c-0.1,1.5,0.6,3.2-0.7,4.6
		c0.5-2.8-0.9-3.9-3.5-4.4c-3.7-0.7-7.1-2-9.3-5.4C88,161.3,87.7,160.1,88.6,159.3z"/>
	<path class="st55" d="M114.1,82.2c0.3,0.2,0.5,0.5,0.8,0.7c0.8,0.8,0.4,1.5,0,2.3c-0.9,0.9-0.2,2.1-0.6,3.1c-0.3,0.4-0.6,0.8-1,1.2
		c-2.7-0.3-4.1-2.4-6-3.9c-0.3-0.7-0.3-1.3,0-2c0.3-0.5,0.6-0.9,0.9-1.4c1.7,0.8,2.9-1.2,4.6-0.8C113.3,81.5,113.8,81.7,114.1,82.2z
		"/>
	<path class="st56" d="M90.2,154.9c5.2,0.5,10.3,1.4,14.3,5.2c-5.1-0.7-9.8-2.5-14.5-4.4C90,155.4,90.1,155.2,90.2,154.9z"/>
	<path class="st57" d="M108.1,85.2c1.1,2.2,3.8,2.5,5.3,4.3c0.1,1.1-0.5,1.9-1.3,2.6c-0.3-0.1-0.6-0.2-0.9-0.4c-1.7-2-4.6-2.7-6-5.1
		c0.3-0.5,0.5-1,0.8-1.5C106.7,84.9,107.4,84.9,108.1,85.2z"/>
	<path class="st58" d="M112.1,92c-0.3,0.9-0.7,1.7-1.6,2.1c-2.6-0.8-4.9-2-6.2-4.5c0-0.6,0.1-1.1,0.1-1.7c3.2-0.1,5.1,2.4,7.4,3.9
		L112.1,92z"/>
	<path class="st59" d="M109,96.4c-1.2,1.6-2.3,0.4-3.4-0.2c-1.1-0.7-2.3-1.4-3.4-2c0.3-0.7,0.6-1.4,1.4-1.6
		C106.1,92.8,108.4,93.4,109,96.4z"/>
	<path class="st60" d="M111.9,91.9c-2.9-0.5-4.8-3-7.4-3.9c0.2-0.5,0.4-0.9,0.7-1.4C107.5,88.1,110.9,88.5,111.9,91.9z"/>
	<path class="st61" d="M104.4,89.6c2,1.6,4.5,2.5,6.2,4.5c-0.1,0.1-0.2,0.3-0.2,0.5c-2.9,0.7-4.4-1.8-6.6-2.8
		C103.6,91,103.4,90.1,104.4,89.6z"/>
	<path class="st62" d="M112.6,82.1c-0.5,0-1.3,0-1.4,0.2c-1.2,3.7-2.1,1.1-3-0.1c0.5-1.5,1.8-2,2.9-2.9c0.3,0.2,0.5,0.4,0.8,0.6
		c0.2,0.2,0.4,0.4,0.6,0.6C112.9,81.1,113.2,81.6,112.6,82.1z"/>
	<path class="st63" d="M103.6,91.8c2.7-0.2,4,2.8,6.6,2.8c0,0.9-0.5,1.4-1.3,1.8c-1.4-1.9-3.7-2.4-5.4-3.9
		C103.6,92.3,103.6,92.1,103.6,91.8z"/>
	<path class="st64" d="M125.4,71.6c-0.5-0.5-1.1-1.1-1.6-1.6c0-1.1,0.7-1.1,1.5-0.7c0.3,0.5,0.6,1,0.9,1.6
		C126.1,71.3,125.8,71.5,125.4,71.6z"/>
	<path class="st65" d="M108.1,85.2c-0.7,0.3-1.5,0.3-2.1-0.2c0.5-0.5,0.9-1,1.4-1.5C107.6,84.1,107.8,84.7,108.1,85.2z"/>
	<path class="st8" d="M117.9,73c0.5,0.3,1,0.7,1.5,1c0.1,0.6-0.1,1-0.8,0.6c-0.5-0.3-1.1-0.5-1.6-0.8
		C117.3,73.6,117.6,73.3,117.9,73z"/>
	<path class="st12" d="M228.2,169.9c-1.1,5-0.4,10.4-3.2,15.1c-0.9,1.5-0.9,3.4-3.5,2.4c-0.7-0.2-1.8,0.9-2.8,1.4
		c-0.8-2,0.2-3.6,0.7-5.2c0.8-2.4,0.5-4.6-0.3-6.9c-0.3-0.7-0.6-1.5-1.5-1.4c-0.9,0.1-1.2,0.8-1.3,1.6c-0.3,1.8-0.2,4.7-2.3,4.4
		c-2.4-0.4-1.5-3.5-1.5-5.5c0-1.5,0.4-2.9,0.7-4.4c-0.3-0.4-0.2-0.8,0.2-1.2c1.8-1.1,3.9-0.6,5.8-0.7c2.1-0.1,4.2-0.1,6.3-0.7
		C226.4,168.6,227.9,167.9,228.2,169.9z"/>
	<path class="st7" d="M208.6,158.7c6.5-2.6,13.3-3.4,20.3-3.1c-0.1,1.3,0.4,2.7-0.6,3.8c-1.1,1.1-2.5,0.9-3.8,1
		c-3.9,0.2-7.6,0.8-11.3,1.8c-1.2,0.3-2.4,0.9-3.6,0.2C208.4,161.4,207.6,160.3,208.6,158.7z"/>
	<path class="st66" d="M213.1,170.6c0,0.3,0,0.5,0,0.8c-0.3-2-3.6-3.5-0.8-5.9c4.9-1.8,9.8-3,15-1.8c2.3,0.6,1.3,2.4,1.4,3.9
		c-3.3,2.1-7,2.1-10.7,2.3C216.5,169.9,214.7,169.5,213.1,170.6z"/>
	<path class="st27" d="M209.5,162.5c6-2.6,12.3-3.4,18.8-3c0.7,1.3,1.2,2.5-0.8,3.1c-5.5,0.8-10.9,1.9-16.4,2.2
		C210,164.4,209.5,163.6,209.5,162.5z"/>
	<path class="st67" d="M211,164.8c5.3-1.8,10.7-2.9,16.4-2.2c0,0.4,0,0.8,0,1.1c-5,0.6-10,1.2-15,1.8
		C211.9,165.3,211.4,165,211,164.8z"/>
	<path class="st68" d="M213.1,170.6c0.5-1.1,1.5-1.5,2.7-1.5c4.4,0.1,8.7-0.9,13-1.5c0.1,0.8,0.1,1.7-0.6,2.3
		c-3.6-0.5-7,1.4-10.7,0.8C216.1,170.4,214.6,170.6,213.1,170.6z"/>
	<path class="st0" d="M123.1,116.5c0.2-2.4,1.5-4.4,2.3-6.6c1.3,0,1.2,0.7,0.8,1.5c0,0.7,0,1.5-0.1,2.2c-0.9,1.9,0.2,4.1-0.7,6
		c0,0.5-0.1,0.9-0.1,1.4c-0.2-0.3-0.5-0.5-0.7-0.8c-0.3-1,0.8-2.3-0.8-3C123.6,117,123.3,116.8,123.1,116.5z"/>
	<path class="st22" d="M200,203.2c-10-2.5-20.1-5-30.1-7.5c-1.3-0.3-2.1-1-1.8-2.3c0.4-1.7,1.6-0.6,2.4-0.4
		c9.6,2.3,19.1,4.7,28.7,7.1c1.4,0.3,2.7,0.9,2.5,2.7C201.6,203.9,200.6,203.3,200,203.2z"/>
	<path class="st69" d="M181,153.2c0,3.3-2.3,5.6-5.6,5.7c-3.3,0-5.7-2.4-5.7-5.6c0-3.1,2.5-5.7,5.7-5.8
		C178.4,147.4,181,150,181,153.2z"/>
	<path class="st70" d="M183.9,90.3c-0.2,0-0.3,0.1-0.5,0.1c-1,0.2-2,0.6-3,0.3c-0.5-0.1-1-0.4-1.6-0.6c-3.9-1.7-4.3-2.9-2.1-6.3
		c1.8-0.6,3.6,0.2,5.4,0.1c0.8,0,1.6,0,2.5,0.2c0.4,0.1,0.8,0.3,1.2,0.5C187.7,87.9,187.5,88.7,183.9,90.3z"/>
	<path class="st71" d="M166.7,145.2c0.6,0.9,1,1.9,0.8,3.1c-0.3,1.5-1.2,2.5-2.7,2.3c-1.8-0.2-1.2-1.6-1.2-2.8c0-1.3,0.7-2.3,1-3.4
		c0.7-0.6,1.4-0.7,2.1-0.2C167,144.5,167,144.9,166.7,145.2z"/>
	<path class="st52" d="M157.7,151.8c-0.3-2.5,0.7-4.9,0.8-7.3c0.4-0.6,0.9-0.6,1.5-0.3c1.2,1.9,0.6,4,0.8,6
		C161.1,153.2,159.2,152.2,157.7,151.8z"/>
	<path class="st72" d="M185.5,104.6c0.2-3.4,0.5-6.9,0.7-10.3c0.8-1.2-0.3-2.9,0.9-4.1c1.3,0.3,1.4,1.4,1.6,2.5
		c0.3,4.3-0.3,8.6-1.2,12.9C185.9,107.2,186,105.4,185.5,104.6z"/>
	<path class="st73" d="M174.9,121.9c0,2.4-1.4,4.4-2.2,6.6c-0.2,0.3-0.5,0.5-0.8,0.5c-0.6,0-1-0.3-1.3-0.7c-0.3-0.4-0.5-0.9-0.5-1.4
		c0.3-1.5,1-2.9,1.1-4.4c0.1-0.3,0.3-0.7,0.5-1C172.9,120.4,174,120.2,174.9,121.9z"/>
	<path class="st74" d="M193.8,109.1c1,1.5,1.3,3.8,0.5,4.8c-1.2,1.4-3.1-0.2-4.7-0.8c-1.7-0.7-3.5-1.3-4.2-3.3
		c0.6-0.5,0.2-1.8,1.5-1.6c0.9,0.7,1.1,2,2.3,2.5c0.4,0.2,0.8,0.5,1.3,0.7c0.6,0.2,1.2,0.5,1.8,0.5
		C193.2,111.1,192.6,109.6,193.8,109.1z"/>
	<path class="st49" d="M186.9,90.4c-0.3,1.3,0.1,2.7-0.7,3.9c-0.4-1.5,0.9-4-2.3-4c1.9-1.3,3-2.9,1.5-5.3c-0.6-1-1.2-2,0.7-2.2
		c0.1,1.4,1.1,1.5,2.2,1.5c0.5,0.5-0.2,1.3,0.3,1.8c-0.2,0.9-0.7,1.7-0.8,2.6C187.7,89.4,187.4,89.9,186.9,90.4z"/>
	<path class="st75" d="M187,88.2c-0.2-1.1,0.8-1.5,1.4-2.1c0.2-0.4,0.5-0.4,0.8-0.1c0,0.6,0.1,1.2,0.7,1.5c0.6,0,1.1,0.3,1.5,0.7
		c0.3,0.6,0.8,0.7,1.4,0.7c0.5,0.1,0.8,0.4,0.9,0.9c0,0.8,0,1.6-0.7,2.2c-0.5-0.1-1-0.3-1.5-0.4c-0.4-0.1-0.8-0.3-1.1-0.6
		c-0.5-0.3-1-0.6-1.4-0.9c-0.4-0.2-0.7-0.5-1.1-0.8C187.6,88.8,187.3,88.5,187,88.2z"/>
	<path class="st76" d="M182.6,94.2c0.1,1.9-0.7,3.4-2.2,4.6c-0.3-0.1-0.6-0.2-0.8-0.5c-0.9-1.4-0.4-3-0.5-4.5
		c0.2-0.7,0.6-1.3,1.3-1.6C181.9,92,182.3,93,182.6,94.2z"/>
	<path class="st77" d="M180.4,98.8c0.8,1.3,0.9,2.5-0.2,3.6c-0.7,0.6-1.5,0.7-2.3,0.4c-1.4-1.1-1.7-2.3-0.6-3.8
		c0.9-0.7,1.8-1.1,2.8-0.4L180.4,98.8z"/>
	<path class="st78" d="M192.3,99.9c1.2,2.5,0.3,5.3,1.2,7.8c-0.6,0.6,0.5,2.7-1.7,2c-0.9-2-1-4.2-1.4-6.3c0-0.6,0.1-1.2,0.3-1.8
		C191.1,100.9,191.5,100.2,192.3,99.9z"/>
	<path class="st79" d="M171.9,131.5c0.1,1.1,0.4,2.3-0.7,3.2c-0.7,0.6-1.3,1.3-2.4,0.8c-1.1-1.4-0.6-2.8,0.1-4.2
		c0.2-0.3,0.5-0.6,0.8-0.8c0.7-0.3,1.4-0.4,2.1,0c0.2,0.2,0.3,0.4,0.3,0.6C172,131.3,172,131.5,171.9,131.5z"/>
	<path class="st80" d="M170.6,137.1c0.1,1.7-0.6,3.1-1.7,4.3c-0.6,0.6-1.2,0.7-1.9,0.4c-0.3-0.2-0.5-0.4-0.6-0.8
		c0-1.2,0.8-2.1,0.9-3.3c0.4-0.8,1.2-1.3,2.1-1.4C169.8,136.4,170.3,136.5,170.6,137.1z"/>
	<path class="st81" d="M174.9,121.9c-1.1-0.8-2.1-0.5-3.1,0.2c-1.9-1.1-0.6-2,0.2-3c0.9-0.5,1.7-1.5,3-0.9
		C176.1,119.4,175.4,120.6,174.9,121.9z"/>
	<path class="st82" d="M179.2,105.3c-1.3,1.3,0.2,3.3-1.2,4.6c-0.3,0.3-0.6,0.3-0.9,0.2c-0.6-0.5-0.7-1.1-0.9-1.8
		c-0.1-0.8-0.6-1.5-0.8-2.3c0.1-1.2,0.9-1.8,2-2c0.3,0,0.7,0,1,0.1C178.9,104.3,179.1,104.8,179.2,105.3z"/>
	<path class="st83" d="M174.9,118.1c-0.8,0.5-1.6,1-2.5,1.5c-1.5-3-1.2-3.9,1.7-4.8c1.1,0.6,1.2,1.6,0.9,2.7
		C175.1,117.7,175,117.9,174.9,118.1z"/>
	<path class="st84" d="M182.6,94.2c-0.9-0.3-1.1-1.6-2.2-1.6c-1.1-1.1-0.3-1.7,0.6-2.3c0.9-0.7,1.7-0.3,2.5,0.2
		C182.2,91.5,184,93.2,182.6,94.2z"/>
	<path class="st85" d="M177.3,112.4c-0.2,0.4-0.4,0.7-0.6,1.1c-0.4,1-1.2,1.5-2.3,1.3c-1.2-0.2-1.5-0.9-1-2c0.9-0.7,1.2-2.1,2.4-2.6
		c0.4,0,0.7,0.1,1,0.3C177.2,111,177.2,111.7,177.3,112.4z"/>
	<path class="st34" d="M192.3,99.9c-0.3,0.6-0.6,1.2-0.9,1.8c-0.8-0.3-1.2-1-1.2-1.8c0.3-1.9,0-3.9,0.3-5.8c0.1-0.6,0.4-1.2,0.9-1.5
		c0.8,0,1.2,0.3,0.9,1.1C192.3,95.7,192.3,97.8,192.3,99.9z"/>
	<path class="st86" d="M173.7,114.5c1-0.3,1.9-0.7,2.9-1c1.6,2.1-1.3,2.6-1.5,4c-0.3-0.8-0.7-1.7-1-2.5
		C173.9,114.9,173.7,114.8,173.7,114.5z"/>
	<path class="st87" d="M179.2,105.3c-0.2-0.2-0.4-0.5-0.6-0.7c-0.4-0.4-0.9-0.4-1.3-0.5c-0.8-0.7-0.8-1.4,0.3-1.8
		c0.9,0,1.7,0.1,2.6,0.1C180.3,103.5,180.1,104.5,179.2,105.3z"/>
	<path class="st28" d="M207.7,82.7c0.5,0.3,1.1,0.5,1.6,0.8c-1.7,0.3-3.5,0.6-5.2,0.9C204.7,82.4,206.4,83.1,207.7,82.7z"/>
	<path class="st88" d="M186.7,108.2c-0.4,0.5-0.9,1.1-1.3,1.6c0-1.7,0.1-3.4,0.1-5.2c0.4,0.5,0.8,1,1.2,1.5
		C187.5,106.8,187.5,107.5,186.7,108.2z"/>
	<path class="st89" d="M166.7,145.2c-0.1-0.3-0.2-0.5-0.3-0.8c-0.2-0.3-0.2-0.7-0.2-1.1c0.5-1.2,1.4-1.6,2.7-1.3
		C169.3,144,168.6,145,166.7,145.2z"/>
	<path class="st8" d="M192.4,109.9c0.4-0.7,0.7-1.5,1.1-2.2c0.1,0.5,0.2,0.9,0.3,1.4c-0.7,1.2,1.1,2.9-0.9,3.8
		C192.2,111.9,191,111.1,192.4,109.9z"/>
	<path class="st90" d="M197.4,86.6c0-2.1,1.8-1.8,3.1-2.1c0.3,0.2,0.8,0.3,0.9,0.8C200.2,86.1,198.8,86.5,197.4,86.6z"/>
	<path class="st91" d="M193.7,89.7c-0.3-0.3-0.6-0.6-0.9-0.9c0.8-1.1,1.4-2.4,3.2-1.5C195.2,88.1,194.4,88.9,193.7,89.7z"/>
	<path class="st92" d="M160,144.2c-0.5,0.1-1,0.2-1.5,0.3c-0.6-0.5-1.1-1-1.7-1.5c1.2-1.4,2.7-1.2,4.2-0.9c0.6,0.3,1.2,0.6,1.1,1.4
		C161.5,143.7,160.6,143.5,160,144.2z"/>
	<path class="st93" d="M166.6,143.8c0,0.2-0.1,0.4-0.1,0.6c-0.6,0-1.2,0-1.9-0.1c0-0.3-0.1-0.5-0.1-0.8c-0.1-0.5-0.2-1-0.1-1.4
		c0.1-0.8,0.4-1.6,1.4-1.9c0.3,0,0.6,0.1,0.9,0.3c0,0.3,0,0.5,0,0.8C167.2,142.2,166,143,166.6,143.8z"/>
	<path class="st94" d="M157.7,151.8c1.3,0,2.8,0.3,3.1-1.7c0.6,1.1,0.9,2.2-0.1,3.2c-0.8-1.1-2-0.7-3-0.8
		C157.7,152.4,157.7,152.1,157.7,151.8z"/>
	<path class="st95" d="M170.6,137.1c-0.5,0-1.1,0-1.6,0c-0.3-0.2-0.5-0.5-0.5-0.9c0-0.4,0.2-0.7,0.5-0.9c0.7-0.2,1.5-0.4,2.2-0.7
		C171.3,135.5,171.2,136.3,170.6,137.1z"/>
	<path class="st96" d="M164.9,143c-0.2,0.2-0.3,0.4-0.5,0.6c-0.7,0-1.5-0.1-2.2-0.1c-0.3-0.2-0.6-0.5-0.9-0.7
		c-0.2-0.4-0.2-0.7,0.1-1C163.1,141.1,164.2,141.6,164.9,143z"/>
	<path class="st97" d="M166.6,143.8c-0.9-0.8-0.5-1.6,0-2.4c0.8,0,1.5,0,2.3,0c0,0.2,0,0.5,0,0.7C168.1,142.6,167,142.8,166.6,143.8
		z"/>
	<path class="st98" d="M201.3,85.3c-0.3-0.3-0.6-0.5-0.9-0.8c1.2-0.5,2.5-1.1,3.7-0.1C203.4,85.1,202.4,85.1,201.3,85.3z"/>
	<path class="st99" d="M192.3,93.6c-0.3-0.3-0.5-0.7-0.8-1c-0.5-0.5-0.5-0.9,0.1-1.4c1-0.9,1.4-0.5,1.4,0.6
		C192.8,92.5,192.5,93,192.3,93.6z"/>
	<path class="st71" d="M177.3,112.4c-0.2-0.5-0.4-1.1-0.7-1.6c-0.1-0.6,0.1-0.8,0.6-0.8c0.3,0,0.5-0.1,0.8-0.1
		C177.9,110.8,178,111.7,177.3,112.4z"/>
	<path class="st100" d="M171.9,131.5c0.1-0.2,0.1-0.4,0-0.6c-1.1-0.8-1.3-1.5,0-2.3c0.3,0,0.6-0.1,0.9-0.1
		C172.7,129.5,173,130.7,171.9,131.5z"/>
	<path class="st6" d="M164.9,143c-1.1-0.5-2.2-1.1-3.5-0.9c-1.6,1-3.7-0.5-5.3,0.8c-0.1,1-0.8,1.4-1.7,1.4c-1.6-0.3-1.4-1.9-1.9-2.9
		c-0.2-0.7-0.3-1.4-0.4-2.1c-0.1-0.7-0.3-1.3-0.4-2c-0.3-1-0.4-2-0.8-3c-0.3-2.3-1-4.4-1.9-6.5c0-1.7,0-3.5-0.5-5.1
		c-0.2-1.2-0.4-2.3-0.7-3.5c-0.1-1.4-0.9-2.4-1.7-3.4c-0.1-0.3-0.2-0.6-0.2-1c0.2-1.2,0.2-2.3,0-3.5c-0.5-1.5-0.5-3.1-1-4.6
		c-0.3-1-0.4-2.1-0.8-3.1c-0.3-1.2-0.3-2.5-0.8-3.7c-0.2-0.7-0.3-1.4-0.4-2.1c-0.3-1.6-0.7-3.2-1.2-4.8c-0.2-1.4-0.6-2.7-0.3-4.2
		c0.2-0.4,0.5-0.7,0.9-0.9c3.9-1,7.9-0.4,11.9-0.4c2.5,0.1,5,0,7.6,0c1-0.1,1.9-0.2,2.9-0.2c1.9,0.4,3.5-0.9,5.3-1.1
		c2-0.1,4,0.3,5.4,1.9c1.3,1.5,3.1,0.2,4.4,1.3c0.3,0.2,0.6,0.4,0.9,0.7c-0.2,0.8-1.4,1.3-0.6,2.3c-0.2,0.6-1,0.9-0.7,1.7
		c-0.4,1.7-0.5,3.6-1.8,5c-1.2,0.9-0.8,1.9-0.3,2.9c-0.7,0.7-0.6,1.3,0.3,1.8c0,0.2,0,0.3,0,0.5c-1.1,0-1.9,0.5-2.2,1.6
		c0.9,1.4,0.3,2.6-0.4,3.8c-1.1,0.7-0.1,2.4-1.5,2.9c-0.5,0.6-0.7,1.1,0,1.7c0.2,0.1,0.3,0.3,0.4,0.5c-2.3,0.9-1.9,2.8-1.6,4.6
		c-1.2,0.5-1.8,1.2-0.7,2.4c0,0.3,0,0.7,0.1,1c-0.9,1.2-1.2,2.6-1.5,4c0.3,0.2,0.5,0.3,0.8,0.5c-0.6,1-0.3,2.5-1.7,3.1l0,0.2l0.2,0
		c-1.3,1.3-1.5,2.9-1.6,4.6c-0.2,1-0.9,1.9-1,2.9c-0.2,0.8-0.4,1.7-1.1,2.3C165.1,141.2,165.2,142.2,164.9,143z"/>
	<path class="st7" d="M115.5,201.4c-1.1,0.1-2,0.5-2.1-0.7c-0.1-1.5,0.7-2.2,2.2-2.4c7-1.2,13.9-2.5,20.9-3.8c2-0.4,3.9-0.7,5.9-1
		c1-0.1,2.6-1.4,2.9,0.6c0.3,1.7-1.3,2.2-2.7,2.4c-4.6,0.8-9.3,1.7-13.9,2.5C124.2,199.9,119.7,200.7,115.5,201.4z"/>
	<path class="st101" d="M154.5,88.7c-4.1,0.1-8.3,0.2-12.4,0.2c-0.7,0.4-1.4,0.9-2.3,0.8c-0.6-0.1-1.2-0.4-1.7-0.8
		c-0.3,0-0.5,0-0.8,0c-3-1.4-3.1-2.5-0.8-5.3c0.2,0.1,0.3,0.1,0.5,0.2c0.8-0.6,1.7-1.1,2.6-1.4c0.4,0,0.7,0,1.1,0.1
		c0.5,0.1,1.1,0.3,1.6,0.5c4,0.7,8-0.4,12,0.7c0.4,0.2,0.7,0.5,0.9,0.9c0.4,1,0.5,2,0.1,3.1C155.1,88.1,154.9,88.4,154.5,88.7z"/>
	<path class="st102" d="M141.2,126.4c-2.1,3.1-5,2.8-7.8,1.7c-3.2-1.3-4.2-4.1-3.4-8.4c0.8-0.4,1.3,0,1.8,0.5c0.7,0.9,1.1,2.1,2.5,2
		c0.3,0,0.7,0,1,0.1c0.3,0.1,0.6,0.2,0.9,0.3c0.3,0.1,0.6,0.3,0.9,0.4C138.6,124,140.5,124.5,141.2,126.4z"/>
	<path class="st103" d="M147.9,153c0,3.1-2.5,5.7-5.7,5.7c-3.2,0-5.7-2.5-5.7-5.6c0-3.1,2.5-5.7,5.7-5.7
		C145.4,147.3,147.9,149.8,147.9,153z"/>
	<path class="st104" d="M130,118.6c5.8-5,9.8-4.6,12.7,1c0.3,0.7-0.1,1-0.6,1.3c-0.5,0.2-1,0.1-1.5-0.1c-0.9-0.4-1.1-1.6-2.2-1.8
		c-1.7-0.3-2.5,1.4-3.9,1.7c-0.3,0.1-0.7,0.1-1,0C132.2,120.2,130.9,119.6,130,118.6z"/>
	<path class="st105" d="M149.9,127.8c1.8,1.9,1.9,4.2,1.9,6.6c-0.1,0.7-0.2,1.4-0.9,1.9c-1.7,0.7-1.8-1.3-2.9-1.7
		c0.2-0.8,0.5-1.6,0.7-2.4c-0.6-1.6-2.5-3.3,0.1-4.8C149.2,127.3,149.6,127.5,149.9,127.8z"/>
	<path class="st106" d="M148.5,118.8c0.2,1.3,1.3,2.4,0.8,3.9c-0.8,1.4,0.7,2.9-0.4,4.3c-0.2,0.3-0.5,0.5-1,0.5
		c-0.8-0.4-1.2-0.9-0.9-1.8c0-0.4,0-0.8,0-1.2c-0.8-0.4-0.8-1.3-1.5-1.8c-0.7-1.2-1-2.4-0.8-3.7c0.3-0.6,0.7-1.1,1.5-1.1
		C147.2,117.8,147.9,118.2,148.5,118.8z"/>
	<path class="st107" d="M136.6,106c-2.3,2.9-5.2,4.5-8.9,4.6c-0.3-0.3-0.5-0.6-0.7-1c-0.4-1.6,0.5-3.1,0.3-4.6
		c0.1-0.4,0.3-0.6,0.7-0.6c1.9,0.4,0.4,3.1,2.4,3.3c0.6-0.2,1.1-0.4,1.6-0.7c1-0.5,2-1,3.1-1.4C135.7,105.6,136.1,105.7,136.6,106z"
		/>
	<path class="st108" d="M141.2,126.4c-1.5-0.9-3.1-1.9-4.6-2.8c0-0.2,0-0.3,0-0.5c0.2-0.5,0.5-0.8,0.9-1.1c0.7-0.4,1.5-0.6,2.3-0.4
		c0.8,0.6,1.8,0.4,2.7,0.8c0.6,0.5,0.5,1.2,0.2,1.8C142.7,125.3,142.2,126,141.2,126.4z"/>
	<path class="st100" d="M146.4,118.1c-0.5,0.3-1,0.5-1.5,0.8c-0.7-2.2-1.6-4.4-1.3-6.8c0.3-0.2,0.6-0.4,0.9-0.4
		c0.3,0.1,0.7,0.2,0.9,0.5c0.6,0.8,0.7,1.6,0.2,2.4c0.3,0.4,0.5,0.8,0.8,1.2C147,116.6,147.1,117.3,146.4,118.1z"/>
	<path class="st84" d="M140.5,97.2c0-0.8-0.1-1.6-0.1-2.4c-0.3-0.8,0.1-1.3,0.8-1.7c0.8-0.1,1.2,0.5,1.7,1c-0.3,1.4,0.7,2.6,0.9,3.9
		c-0.2,0.8-0.3,1.7-1.1,2.3C140.5,100.3,141.1,98.3,140.5,97.2z"/>
	<path class="st39" d="M141.1,93.3c-0.2,0.5-0.5,1-0.7,1.5c-2.4-1.3-1.3-4-2.3-5.9c0.5,0,1,0,1.5,0c0.9,0.8,1.3,2,1.9,3
		C141.6,92.4,141.6,92.9,141.1,93.3z"/>
	<path class="st109" d="M142.8,107.6c-1.2-1.8-1.5-3.9-1.5-6c0.4-0.4,0.9-0.4,1.4-0.1c0.3,0.2,0.5,0.5,0.6,0.8
		c0.5,1.4,0.6,2.9,1.2,4.2c0,0.2,0,0.3,0.1,0.5c0,0.3-0.2,0.6-0.4,0.9C143.6,108,143.1,108,142.8,107.6z"/>
	<path class="st110" d="M142.8,107.6c0.3,0,0.7,0.1,1,0.1c2.6,1.9,2.6,2.6,0.2,4.4l-0.2-0.1l-0.2,0.1
		C143,110.6,142.5,109.2,142.8,107.6z"/>
	<path class="st111" d="M136.6,83.6c-0.6,1.9-1.5,3.8,0.8,5.3c-0.5,0.5-1,1-1.5,1.6c-0.4,0.1-0.7,0.1-1-0.2
		c-0.6-0.8-0.6-1.7-0.7-2.6c0-1-0.1-2.1-0.2-3.1c0-0.4,0.2-0.7,0.4-0.9C135.2,83.6,135.9,83.6,136.6,83.6z"/>
	<path class="st112" d="M150.7,143c-2.1-0.9-1.3-2.3-0.8-3.8c0.9-0.7,1.6-0.5,2.2,0.3c0.3,0.8,0.3,1.7,0.1,2.6
		C151.9,142.7,151.5,143.2,150.7,143z"/>
	<path class="st113" d="M154.6,145.8c0,0.7,0.1,1.5,0.1,2.2c-0.8,1.2-1.7,1.7-2.9,0.5c-0.4-1.2-0.8-2.4,0.3-3.5
		c0.3-0.2,0.6-0.2,0.9-0.2C153.7,144.9,154.1,145.4,154.6,145.8z"/>
	<path class="st114" d="M153.1,145.1c-0.3,0.1-0.6,0.1-0.9,0.2c-0.7,0.2-0.8,1.2-1.4,1.4c-1.4-1.2,0-2.4,0-3.7
		c0.3-0.3,0.6-0.7,0.9-1c0.5-0.3,0.9-0.4,1.4-0.1C153.3,142.9,153.9,144,153.1,145.1z"/>
	<path class="st115" d="M151.8,140c-0.4-0.7-1.1-0.9-1.8-0.8c-0.2,0-0.4-0.1-0.6-0.3c-0.1-1.3-0.5-2.7,1.7-2.5c0.8,0,1,0.7,1.5,1.1
		c0.6,0.4,0.7,0.9,0.5,1.6C152.7,139.6,152.5,140.2,151.8,140z"/>
	<path class="st69" d="M135.8,94.2c0.1,2.2,0.1,4.3,0.2,6.5c0.1,1.2,1.2,2.7-0.9,3.3c-1.7-2-1-4.3-1-6.6
		C134.3,96.2,133.8,94.5,135.8,94.2z"/>
	<path class="st116" d="M135.8,94.2c-0.9,0.9-0.4,2.1-0.7,3.1c-2.2-1-1.5-2.8-1.4-4.5c0.4-1,0.6-2.1,1.7-2.7
		c0.2,0.1,0.4,0.2,0.5,0.3C135.8,91.7,135.8,92.9,135.8,94.2z"/>
	<path class="st117" d="M150.9,136.8c-1.8-0.2-1.1,1.4-1.6,2.1c-0.5-1.4-0.9-2.9-1.4-4.3c1.4-0.6,1.5,1.9,2.9,1.3
		c0.2,0.2,0.3,0.4,0.2,0.6C151,136.7,150.9,136.8,150.9,136.8z"/>
	<path class="st118" d="M135.3,103.8c0.9-0.9,0.5-2.1,0.7-3.2c0.8,1.7,0.4,3.6,0.6,5.3c-0.5,0-0.9,0-1.4,0.1
		C134.5,105.3,134.5,104.6,135.3,103.8z"/>
	<path class="st119" d="M151.6,148.4c1.1,0.1,2.1,0.3,3.1-0.4c0.4,1.1,0.3,2-0.9,2.3c-1.1,0.2-2,0-2.2-1.3l-0.2-0.3L151.6,148.4z"/>
	<path class="st120" d="M148,127c0.2,0.1,0.5,0.2,0.7,0.4c0,0.1,0,0.3,0,0.4c-1.4,1.5,0,2.9,0,4.4c-2-0.5-1.3-2.2-1.6-3.5
		C146.7,127.8,146.6,127,148,127z"/>
	<path class="st121" d="M142.8,124.3c-0.1-0.7-0.2-1.3-0.9-1.7c-1.6-0.7-0.5-1.5,0-2.2c0.3-0.3,0.6-0.6,0.9-0.9
		C143.7,121.1,143.8,122.7,142.8,124.3z"/>
	<path class="st122" d="M142.6,101.6c-0.5,0-0.9,0-1.4,0c-0.5-1.4-1.2-2.8-0.7-4.4c0.7,1,0.8,2.5,2.2,3.1c0.2,0.3,0.3,0.6,0.3,0.9
		C142.8,101.3,142.7,101.5,142.6,101.6z"/>
	<path class="st2" d="M127.6,110c0,0.2,0,0.4,0,0.6c-0.5,0.3-1,0.5-1.5,0.8c0-0.6-0.2-1.2-0.8-1.5c0-1.2,0.6-2.1,1.3-3
		C128,107.6,126.7,109.1,127.6,110z"/>
	<path class="st123" d="M153.1,145.1c0.3-0.9-1.3-1.9,0-2.8c-0.3-0.4-0.3-0.8,0.2-1.1c1,0.8,0.3,2.3,1.1,3.2c0,0.5,0.1,0.9,0.1,1.4
		C153.9,145.9,153.4,145.6,153.1,145.1z"/>
	<path class="st2" d="M125.4,119.7c0.3-2-0.7-4.2,0.7-6C126,115.7,126.7,117.8,125.4,119.7z"/>
	<path class="st50" d="M156.1,143c1.5-1.9,3.5-0.8,5.3-0.8c0,0.2,0,0.4,0,0.7c-1.5,0.1-3,0.1-4.5,0.2c0,0-0.4-0.1-0.4-0.1L156.1,143
		z"/>
	<path class="st117" d="M151.6,148.4c0.1,0.2,0.1,0.4,0,0.6c-0.3-0.8-0.5-1.6-0.8-2.3c0.2-0.8,0-2,1.4-1.4
		C152,146.3,151.8,147.4,151.6,148.4z"/>
	<path class="st124" d="M130,118.6c1.4,0.2,2.8,0.4,3.6,1.8c-0.7,0.7-1.5,0.4-2.2,0.1c-0.4-0.3-0.9-0.6-1.3-0.8
		C130,119.3,130,119,130,118.6z"/>
	<path class="st95" d="M145.7,122.6c1.5-0.3,1.3,0.9,1.5,1.8C145,125.2,145.9,123.4,145.7,122.6z"/>
	<path class="st125" d="M148,127c-0.7,0.4-0.7,1-0.9,1.7c-0.5-1-1.5-2.1,0-3.1C147.4,126.1,147.7,126.6,148,127z"/>
	<path class="st126" d="M213.5,280.7c-10.1-2.9-19.5-2.4-28.4,3.8C187.9,276.8,206.5,274.4,213.5,280.7z"/>
	<path class="st13" d="M124.2,284.1c-7.7-7.6-16.7-8.4-26.6-5.7C102.9,273.2,117.4,272.6,124.2,284.1z"/>
	<path class="st127" d="M188.3,39.5c3.7,17.2-7.3,32.5-24.7,33.3c-19.1,0.9-31.1-17.6-26.9-31.9c5.3-21.2,28.6-24.5,43.9-13.9
		C184.8,30,186.6,34.8,188.3,39.5z"/>
	<path class="st128" d="M188.3,39.5c-0.9-1.5-1.9-2.9-2.7-4.5c-5.2-9.9-14.2-13-24.4-12.8c-11,0.2-18.8,5.8-23.1,16
		c-0.4,0.9-0.9,1.7-1.4,2.6c0.6-10.9,8.8-19.6,20.1-21.8c8.8-1.8,16.6,0.4,23.5,5.5C185.1,28.1,187.6,33.5,188.3,39.5z"/>
	<path class="st129" d="M141.1,83.6c-0.2-0.2-0.5-0.4-0.7-0.7c-1.1-0.9-1-2.3-1.5-3.4c-0.7-2.5-0.6-5.1-1.6-7.6
		c-0.3-1.1-0.9-2.2-0.7-3.5c0.5-0.2,1.1-0.5,1.6-0.7c5.8,5.9,12.4,10.4,20.9,11.1c8.5,0.7,16.3-1.5,23.3-6.3
		c0.9-0.6,1.6-1.6,2.8-1.7c0,0,0,0.1,0,0.1c1.4,1.3,0.5,2.9,0.6,4.3c0,0.3-0.1,0.7-0.1,1c-0.5,1.9-1.4,3.7-2,5.6
		c-0.5,1-0.8,2.1-1.5,3c-1.8,0.2-3.5-0.1-5.2-0.6c-2.3,2.1-5,1.9-7.8,1.6c-1.3-0.2-2.6-0.6-4-0.8c-2-0.8-4.1-0.4-6.2-0.5
		C153.2,83.3,147.1,84.5,141.1,83.6z"/>
	<path class="st113" d="M138.1,71.6c1.5,2.3,1.2,4.9,1.6,7.4c0.5,1.3-0.4,1.7-1.4,2c-0.4,0-0.7-0.1-1-0.4c-2.4-0.8-1.3-3.1-2-4.6
		c0.7-1,0.3-1.9-0.1-2.8c0-0.8-0.1-1.5-0.1-2.3C136.6,68.7,137.2,71,138.1,71.6z"/>
	<path class="st130" d="M138.1,71.6c-1.1,0.4-1.6-2.3-3-0.7c-1.3-1.7-1-2.1,1.5-2.4C137.4,69.4,138.3,70.2,138.1,71.6z"/>
	<path class="st116" d="M125.4,71.6c0.3-0.3,0.5-0.5,0.8-0.8c1.3,1.4,3,2.7,3,4.9C127.2,75,126.4,73.2,125.4,71.6z"/>
	<path class="st131" d="M137.3,80.6c0.3-0.1,0.6-0.1,0.9-0.2c0.8,0.7,2,1.1,1.5,2.5c-0.6,1.1-1.4,1.7-2.6,0.9
		C136.6,82.7,136.7,81.7,137.3,80.6z"/>
	<path class="st132" d="M131.3,80c-1.1-1.3-2.2-2.5-2.2-4.3c1.6,0.6,2.3,2,2.9,3.5C131.9,79.5,131.8,79.9,131.3,80z"/>
	<path class="st133" d="M131.3,80c0.2-0.3,0.5-0.5,0.7-0.8c0.5,1,1,2,1.5,3c-0.1,0.4-0.3,0.6-0.6,0.8
		C132.4,81.9,131.8,80.9,131.3,80z"/>
	<path class="st134" d="M135.2,73.2c0.4,0.9,2.7,1.8,0.1,2.8C135.3,75.1,135.3,74.1,135.2,73.2z"/>
	<path class="st8" d="M132.9,82.9c0.2-0.3,0.4-0.5,0.6-0.8c0.3,0.5,0.6,1,1,1.5c0,0.2,0,0.5,0,0.7c-0.5,0.3-1,0.5-1.3-0.2
		C133,83.7,132.9,83.3,132.9,82.9z"/>
	<path class="st135" d="M185.3,75.4c-1.2-1.5,0.6-2.9,0.1-4.4c1.2,0.1,2.5-0.1,3.7,0.5c-0.2,1.4-0.4,2.7-1.3,3.9
		C186.9,76,186.1,76,185.3,75.4z"/>
	<path class="st136" d="M183.1,82c0.1-2.2,1.4-4.1,2.2-6.1c1.1,0.4,1.9,1,1.6,2.3c0.3,1.5-0.4,2.7-1.3,3.8c-0.3,0.7-0.7,1.1-1.5,1.1
		C183.5,82.9,183.2,82.6,183.1,82z"/>
	<path class="st137" d="M189.2,85.9c-0.3,0-0.6,0.1-0.8,0.1c-1.2-0.5,0.1-1.1,0-1.7c1.5-1.6,1.8-4.1,3.8-5.4c0,0.4,0.1,0.7,0.1,1.1
		C191.2,82,190.2,84,189.2,85.9z"/>
	<path class="st138" d="M186.8,78.2c-0.5-0.8-1-1.5-1.6-2.3c0-0.2,0-0.4,0-0.5c0.8,0,1.7,0,2.5,0C187.6,76.4,188,77.6,186.8,78.2z"
		/>
	<path class="st139" d="M184,82.7c0.5-0.2,1-0.5,1.6-0.7c0.2,0.3,0.4,0.6,0.6,0.9c-0.8,0.6-0.7,1.4-0.7,2.2c-0.3,0-0.5,0-0.8,0
		C184,84.4,183.3,83.8,184,82.7z"/>
	<path class="st140" d="M199.7,78.4c0.3,0.3,0.6,0.5,0.9,0.8c-1.8,1.3-3.5,2.8-5.7,3.6c-0.3,0-0.5-0.2-0.4-0.5
		C195.6,80.2,197.7,79.4,199.7,78.4z"/>
	<path class="st141" d="M191.4,88.1c-0.6,0.1-1.2-0.1-1.5-0.7c0.9-1.1,1.1-2.9,3-3C192.4,85.6,191.9,86.8,191.4,88.1z"/>
	<path class="st142" d="M194.4,82.3c0,0.3,0.2,0.4,0.4,0.5c-0.2,1.1-1.1,1.4-2,1.6C193,83.4,193.3,82.5,194.4,82.3z"/>
	<path class="st143" d="M209.5,228.4c0.2,0.2,0.4,0.5,0.6,0.7c0,1.6-0.1,3.1-0.1,4.7C209.3,232.1,209.5,230.2,209.5,228.4z"/>
	<path class="st144" d="M133.1,84.2c0.4,0.1,0.9,0.1,1.3,0.2c1.1,0.9,0.7,2.1,0.6,3.2c-0.5,0.6,0,1.5-0.5,2.2
		c-0.9,0.3-1.2-0.6-1.8-0.8c-0.4-0.1-0.7,0-1.1,0.1c-0.4,0.1-0.8,0.2-1.2,0.3c-0.4,0-0.8-0.1-1.1-0.4c-0.8-0.2-0.9-0.8-0.9-1.5
		c0.5-0.5,1-0.4,1.5,0c1.1,0.1,1.7-0.7,2.3-1.5C132.8,85.5,132.9,84.8,133.1,84.2z"/>
	<path class="st132" d="M128.3,104.5c-0.2,0.1-0.4,0.2-0.5,0.3c-0.7-0.3-0.3-1.1-0.7-1.6c0.2-2.9,0.7-5.7,2.2-8.3
		c0.4-0.2,0.8-0.2,1.1,0.2C130.7,98.5,130,101.6,128.3,104.5z"/>
	<path class="st96" d="M129.8,94.8l-0.3,0c0,0-0.3,0-0.3,0c0-2,0.1-4,0.1-6c0.4,0,0.9,0,1.3,0c0.8,0.6,0.9,1.4,1,2.3
		C131.6,92.7,131.7,94.3,129.8,94.8z"/>
	<path class="st145" d="M119.4,80.7c2,0.3,3.9,0.8,5.5,2.1c-0.1,0.5-0.6,0.6-0.9,0.8c-2-0.7-4.1-1.4-6.1-2.2
		C118.1,80.8,118.9,81.1,119.4,80.7z"/>
	<path class="st146" d="M119.4,80.7c-0.5,0.2-1,0.5-1.6,0.7c-0.9-0.1-1.9-0.1-2.8-0.2c-1-0.2-2.1,0.2-3-0.5c0-0.3,0-0.6-0.1-0.8
		C114.5,79.5,116.9,80,119.4,80.7z"/>
	<path class="st147" d="M114.1,85.1c0.3-0.7,0.5-1.4,0.8-2.2c2.7,1,2.7,1.2,0.9,3c-0.4,0.5-0.8,1-1.4,0.7
		C113.7,86.3,113.7,85.6,114.1,85.1z"/>
	<path class="st62" d="M114.1,85.1c0.1,1.2,0.7,1.3,1.7,0.8c-0.2,1-0.5,1.9-1.4,2.4C113.4,87.3,111.8,86.3,114.1,85.1z"/>
	<path class="st148" d="M127,103.1c0.2,0.5,0.5,1.1,0.7,1.6c0,1.7-0.1,3.5-0.1,5.2c-1.2-0.8-0.6-2.1-1-3.1
		C126.8,105.6,126.9,104.4,127,103.1z"/>
	<path class="st149" d="M129.9,87.3c-0.5,0-1,0-1.5,0c-0.7-0.8-1.5-1.6-2.2-2.4c-0.1-0.6,0.1-1,0.8-0.7
		C128.2,85,129.3,86,129.9,87.3z"/>
	<path class="st150" d="M127,84.3c-0.3,0.2-0.5,0.5-0.8,0.7c-0.8-0.5-1.5-0.9-2.3-1.4c0.3-0.3,0.6-0.5,0.9-0.8
		C125.7,83,126.5,83.5,127,84.3z"/>
	<path class="st151" d="M112,80.7c1,0,2.1-0.4,3,0.5c-0.3,0.3-0.6,0.7-0.9,1c-0.5,0-1,0-1.5-0.1C112.4,81.7,112.2,81.2,112,80.7z"/>
	<path class="st145" d="M126.8,79.2c1.8,0.7,2.9,2.1,3.9,3.7c-0.1,0.5-0.3,0.8-0.8,0.9c-1.2-1.3-2.5-2.6-3.7-3.9
		C125.9,79.2,126.1,78.9,126.8,79.2z"/>
	<path class="st152" d="M121.6,75.4c1.2,0.5,2.3,1.1,3.2,2.1c-0.1,0.5-0.6,0.6-0.9,0.8c-1-0.7-2.1-1.4-3.1-2.1
		C120.9,75.7,121.3,75.6,121.6,75.4z"/>
	<path class="st153" d="M129.8,83.7c0.3-0.3,0.5-0.6,0.8-0.9c0.9,0.8,1.4,1.8,1.5,3C130.5,86.2,130.5,84.6,129.8,83.7z"/>
	<path class="st149" d="M121.6,75.4c-0.3,0.3-0.5,0.5-0.8,0.8c-0.8-0.5-1.5-1-2.3-1.5c0.3-0.2,0.5-0.4,0.8-0.6
		C120.1,74.5,120.9,74.9,121.6,75.4z"/>
	<path class="st38" d="M123.9,78.3c0.3-0.3,0.6-0.5,0.9-0.8c0.8,0.4,1.6,0.8,2,1.6c-0.2,0.2-0.4,0.4-0.6,0.7
		C125.4,79.3,124.7,78.8,123.9,78.3z"/>
	<path class="st154" d="M177.9,151.1c1.3,4.2,0.2,5.7-3.7,5.2c-1.8-1.3-1.8-3-1.3-4.9c0.2-0.4,0.5-0.6,0.9-0.8
		C175.1,150.8,176.6,150.5,177.9,151.1z"/>
	<path class="st155" d="M173.3,151c-0.1,1.8,0.3,3.5,0.8,5.3c-0.3,0.2-0.5,0.5-0.8,0.7c-0.7-1.7-2.7-3.1-1.1-5.2
		C172.4,151.3,172.7,150.9,173.3,151z"/>
	<path class="st156" d="M172.5,151.8c-1.2,2,1,3.4,0.9,5.2c-1.7-1.4-3-2.9-1.6-5.2C172,151.4,172.3,151.5,172.5,151.8z"/>
	<path class="st157" d="M172.5,151.8c-0.2,0-0.5,0-0.7,0c0.5-1.6,1-3,3.1-1.6c-0.3,0.7-1.1,0.4-1.5,0.9c0,0,0-0.1,0-0.1
		C173.1,151.3,172.8,151.6,172.5,151.8z"/>
	<path class="st158" d="M173.3,151.1c0.3-0.7,0.9-0.7,1.5-0.9c1,0.3,2.2-0.3,3,0.8C176.4,151.1,174.9,151.1,173.3,151.1z"/>
	<path class="st159" d="M169.5,85.2c2.6,0.5,5.1-0.6,7.7-0.8c-2.6,3.7,0.5,4.3,2.9,5.2c-3.8,1-6.6-2.7-10.4-2.3
		C169,86.7,168.9,86,169.5,85.2z"/>
	<path class="st160" d="M184,82.7c0.2,0.8,0.5,1.6,0.7,2.4c-0.8,0-1.6-0.1-2.4-0.1c-1-1.3,0-2.1,0.7-2.9
		C183.4,82.3,183.7,82.5,184,82.7z"/>
	<path class="st161" d="M186.7,108.2c0-0.7,0-1.4,0-2.1c0.3-4.4,0.7-8.9,1-13.3c0.8-1.2-0.5-2.7,0.6-3.9c0.3,0.3,0.6,0.6,0.9,0.9
		c0.5,0.7,0.8,1.5,0.9,2.4c0.1,1.3,0,2.6,0.1,3.9c-0.3,4,0.1,8.1,0,12.1c-0.1,1.2-0.1,2.4-1.2,3.1
		C187,111.2,186.9,109.6,186.7,108.2z"/>
	<path class="st162" d="M188.4,88.9c-0.2,1.3,0.2,2.7-0.6,3.9c-0.2-0.8,0.1-1.8-0.8-2.4c0-0.7,0-1.5,0-2.2
		C187.6,88.1,188.1,88.2,188.4,88.9z"/>
	<path class="st163" d="M170.3,127c-0.4-1.7-1-3.4,1.5-4C172,124.6,171.5,125.9,170.3,127z"/>
	<path class="st164" d="M169.4,130.6c0.3-1.2-0.2-2.8,1.7-3.1c0.3,0.4,0.5,0.7,0.8,1.1c-0.5,0.8-0.6,1.5,0,2.3
		C171.1,130.8,170.3,130.7,169.4,130.6z"/>
	<path class="st165" d="M192.4,109.9c-0.6,1.1,0.9,1.9,0.5,3c-1.2,0.2-2.2-0.4-3.2-0.8c-0.2-0.7-0.2-1.4-0.1-2.2
		c0.3-0.9,0.2-1.9,0.3-2.8c0.4-1.3-1-3.4,1.5-3.9C191.7,105.4,192,107.6,192.4,109.9z"/>
	<path class="st166" d="M189.9,109.9c-0.1,0.7-0.1,1.4-0.2,2.1c-0.2-0.2-0.4-0.5-0.7-0.7c0.1-1,0.2-1.9,0.3-2.9
		C190.6,108.4,190.3,109.1,189.9,109.9z"/>
	<path class="st90" d="M189.3,91.9c0-0.7,0-1.4,0-2.1c0.6-0.1,1.1,0.1,1.4,0.6c0.6,1.1,0.2,2.3,0.3,3.4c0,0.4-0.1,0.8-0.2,1.1
		C188.5,94.8,190.1,92.7,189.3,91.9z"/>
	<path class="st51" d="M190.7,94.1c0-1.2,0-2.4,0-3.7c0.3,0.3,0.6,0.6,0.9,0.9c0,0.5,0,0.9-0.1,1.4c-0.1,0.5-0.2,0.9-0.3,1.4
		C191.1,94.4,190.9,94.5,190.7,94.1z"/>
	<path class="st167" d="M177.9,99.4c0.2-1.8,0.3-3.7,1.8-5c0.9,1.3,0,2.9,0.5,4.2C179.3,98.8,178.6,99.1,177.9,99.4z"/>
	<path class="st168" d="M189.3,91.9c0.4,1,0.8,2,1.2,3c0.9,1.7,0.6,3.4,0.2,5.1c0.2,0.6,0.5,1.1,0.7,1.7c0,0.5,0,1,0,1.5
		c-1.4,1.3-0.3,3-0.9,4.4c-1.6-0.2-0.9-1.5-1-2.3c-0.2-3.2,0.3-6.4-0.3-9.6C189.3,94.4,189.3,93.1,189.3,91.9z"/>
	<path class="st169" d="M167.3,135.3c0.8-1.5-0.2-3.9,2.3-4.5c-0.3,1.5-1.2,2.9-0.7,4.5c-0.1,0.2-0.1,0.4-0.2,0.7
		C167.9,136.7,167.4,136.6,167.3,135.3z"/>
	<path class="st163" d="M167.3,135.3c0.3,0.6,0.9,0.7,1.5,0.7c0.1,0.4,0.1,0.8,0.2,1.1c-0.5,0.4-1.1,0.8-1.6,1.3
		c-0.3,0.2-0.6,0.2-0.8,0C166.4,137.2,166.6,136.2,167.3,135.3z"/>
	<path class="st170" d="M166.6,138.3c0.3,0,0.6,0,0.8,0c0.2,0.9-0.1,1.6-0.8,2.2c0,0-0.3,0-0.3,0l-0.3,0
		C165.8,139.8,166,139,166.6,138.3z"/>
	<path class="st100" d="M175,109.9c-0.5-1.4,0.4-2.5,0.7-3.8c1-0.1,1.4,0.5,1.5,1.5c-0.7,0.7-0.6,1.8-1.3,2.4
		C175.5,110.1,175.2,110.1,175,109.9z"/>
	<path class="st171" d="M175.3,109.9c0.5-0.8,0.8-1.8,1.8-2.3c0,0.8,0.1,1.6,0.1,2.4c-0.2,0.3-0.4,0.6-0.6,0.8c-0.5,0-1-0.1-1.5-0.1
		C175.1,110.4,175.2,110.1,175.3,109.9z"/>
	<path class="st172" d="M177.9,104.5c0-0.2,0-0.3,0-0.5c0.5-0.1,0.7,0.1,0.8,0.6C178.4,104.6,178.1,104.5,177.9,104.5z"/>
	<path class="st173" d="M175.3,109.9c-0.1,0.3-0.2,0.5-0.3,0.8c0.3,1.2,0.3,2.2-1.3,2.1c0.5-1,0.1-2.3,1.2-3
		C175,109.9,175.3,109.9,175.3,109.9z"/>
	<path class="st174" d="M190.7,99.9c-0.1-1.7-0.1-3.4-0.2-5.1c0.1-0.3,0.1-0.5,0.2-0.8c0.2,0,0.4,0,0.5,0
		C191.1,96,192.1,98.1,190.7,99.9z"/>
	<path class="st175" d="M160.9,109.3c-3.4,0.1-5.7-2.1-5.7-5.5c0-3.2,2.4-5.8,5.5-5.9c3-0.1,5.8,2.6,5.9,5.6
		C166.7,106.5,164.1,109.2,160.9,109.3z"/>
	<path class="st176" d="M154.7,88c0-1,0-1.9,0.1-2.9c3.6-1.4,7.2-0.9,10.9-0.3c1.2,1.2,1.5,2.4-0.3,3.4c-0.8,0.2-1.7,0.4-2.5,0.7
		C160.2,87.8,157.3,89.2,154.7,88z"/>
	<path class="st177" d="M165.4,88.2c1.1-0.9,0.6-2,0.6-3.1c-0.2-0.1-0.3-0.2-0.5-0.4c0.2-0.1,0.4-0.1,0.5-0.2
		c1.3-0.5,2.3,0.5,3.4,0.7c0.1,0.7,0.1,1.5,0.2,2.2C168.3,87.9,167.1,89.6,165.4,88.2z"/>
	<path class="st178" d="M144,112c1.9-1.5,0.1-2.9-0.2-4.4c0.1,0,0.3,0,0.4-0.1c0.5-0.4,0.9-0.9,1.6-0.9c1,1.4,0.8,3.2,1.2,4.7
		c-0.4,1-1,1.4-2,0.8C144.7,112.2,144.3,112.1,144,112z"/>
	<path class="st179" d="M145,112.2c0.7-0.3,1.3-0.5,2-0.8c-0.3,1.1,1.9,3.4-1.4,3.2C145.4,113.8,145.2,113,145,112.2z"/>
	<path class="st180" d="M154.7,88c2.7,0.5,5.5-0.8,8.1,0.8c-2.8-0.1-5.5-0.1-8.3-0.2C154.5,88.4,154.6,88.2,154.7,88z"/>
	<path class="st181" d="M148.6,127.8c0-0.1,0-0.3,0-0.4c0.5-1.5-0.7-3.3,0.7-4.8c0.5,1.7,1,3.4,0.5,5.2
		C149.4,127.8,149,127.8,148.6,127.8z"/>
	<path class="st182" d="M146.4,118.1c0-0.8,0-1.5,0-2.3c2.1,0,1.9,1.6,2.1,3C147.7,118.8,146.9,118.9,146.4,118.1z"/>
	<path class="st183" d="M141.1,93.3c0-0.5,0-0.9,0-1.4c-0.8-1.1-0.3-1.9,0.8-2.4c1,1.1,0.9,2.3,0.8,3.7c0.2,0.3,0.2,0.5,0,0.8
		C142.2,93.8,141.7,93.5,141.1,93.3z"/>
	<path class="st184" d="M141.9,89.5c-0.3,0.8-0.5,1.6-0.8,2.4c-2-0.3-1.2-1.9-1.5-3c0.8,0,1.7,0,2.5,0
		C142.1,89.1,142.1,89.3,141.9,89.5z"/>
	<path class="st178" d="M142.8,102.6c-0.1-0.3-0.1-0.7-0.2-1c0,0-0.1-0.1-0.1-0.1c0.7-0.4,0.7-1.5,1.7-1.6c0.8,1.1,0.9,2.3,0.7,3.6
		c0.1,0.3,0.2,0.6,0.2,1C143.2,105.3,143.7,103.1,142.8,102.6z"/>
	<path class="st185" d="M142.7,94c0-0.3,0-0.5,0-0.8c1.1,1.4,0.9,3.1,1.3,4.7c-0.2,0-0.3,0-0.5,0C142.8,96.7,141.7,95.6,142.7,94z"
		/>
	<path class="st186" d="M143.5,97.9c0.2,0,0.3,0,0.5,0c0.1,0.7,0.2,1.4,0.3,2.1c-0.3,0.8-0.8,1.4-1.7,1.6c0-0.4,0.1-0.8,0.1-1.2
		C142.5,99.3,143,98.6,143.5,97.9z"/>
	<path class="st187" d="M144.8,104.7c0-0.4,0.1-0.8,0.1-1.1c0.9,0.9,0.8,2,0.8,3.1c-0.3,0.7-0.9,0.9-1.6,0.9c0-0.3,0-0.5,0-0.8
		C143.4,105.8,143.9,105.2,144.8,104.7z"/>
	<path class="st188" d="M153.3,141.2c-0.1,0.4-0.1,0.7-0.2,1.1c-0.5-0.1-1-0.2-1.5-0.3c0-0.7,0-1.3,0.1-1.9c0.4-0.3,0.9-0.6,1.3-0.8
		C153.1,139.8,153.2,140.5,153.3,141.2z"/>
	<path class="st189" d="M150.9,136.8c0-0.3,0-0.6,0-0.9c0.3-0.5,0.6-1,0.9-1.4c0.9,0.9,0.6,2.1,0.8,3.1
		C152,137.3,151.4,137.1,150.9,136.8z"/>
	<path class="st190" d="M141.1,83.6c6.2,0,12.5,0,18.7,0c-1.5,2-3.4,1-5.2,0.7C150.1,83.8,145.5,85.2,141.1,83.6z"/>
	<path class="st191" d="M154.6,84.4c1.7-0.3,3.6,0.6,5.2-0.7c2.1,0,4.3-0.5,6.2,0.8c0,0.2,0,0.4-0.1,0.6c-3.7,0-7.5,0.1-11.2,0.1
		C154.7,84.9,154.7,84.6,154.6,84.4z"/>
	<path class="st97" d="M139.7,82.9c-0.5-0.8-1-1.7-1.5-2.5c0.5-0.5,1-0.9,1.5-1.4c1,1.2,0.9,2.6,0.8,4
		C140.2,83,139.9,82.9,139.7,82.9z"/>
	<path class="st192" d="M131.3,120.5c0.7,0,1.5-0.1,2.2-0.1c0.3,0,0.6-0.1,0.9-0.1c0.7,0.2,1.1,0.7,1.1,1.5c0,0.3-0.2,0.6-0.4,0.9
		C132.7,124,131.2,123.7,131.3,120.5z"/>
	<path class="st193" d="M135.1,122.6c0-0.3,0-0.5,0-0.8c0.2-0.3,0.4-0.4,0.7-0.5c0.2,0,0.3,0,0.5,0c0.3,0.1,0.5,0.3,0.7,0.6
		c0.1,0.5,0,0.9-0.3,1.3c0,0-0.1,0.3-0.1,0.3c-0.2-0.1-0.5-0.2-0.7-0.2C135.7,123.1,135.4,122.9,135.1,122.6
		C135.2,122.7,135.1,122.6,135.1,122.6z"/>
	<path class="st194" d="M135.2,122.7c0.2,0.2,0.5,0.5,0.7,0.7C135.7,123.1,135.4,122.9,135.2,122.7z"/>
	<path class="st195" d="M139.6,150.3c1.8-2.1,3.5-2.2,5.3,0c0.2,0.2,0.3,0.4,0.3,0.6c0,0.2-0.1,0.3-0.1,0.3
		c-1.8,0.6-3.7,0.7-5.6,0.5C139.2,151.2,139.2,150.7,139.6,150.3z"/>
	<path class="st196" d="M144.9,151.1c0-0.3,0-0.5,0-0.8c2.3,1.5,1.7,3.4,0.7,5.3c-0.6,0.3-0.9-0.1-1.2-0.6
		C144.3,153.6,144,152.3,144.9,151.1z"/>
	<path class="st197" d="M139.6,150.3c0,0.4,0,0.9,0,1.3c0.2,1.1,0.7,2.2,0.5,3.4c-0.1,0.3-0.3,0.6-0.5,0.8
		C137.6,154,137.3,152.1,139.6,150.3z"/>
	<path class="st198" d="M144.9,154.8c0.2,0.3,0.5,0.5,0.7,0.8c-0.7,1-1.7,1.5-2.9,1.5c-0.3-0.3-0.3-0.6-0.2-0.9
		C143,155.3,143.6,154.5,144.9,154.8z"/>
	<path class="st199" d="M142.7,156.4c0,0.2,0,0.4,0,0.6c-1.3,0.2-2.3,0-3-1.2c0-0.3,0-0.7,0.1-1C141.1,154.5,142,155.3,142.7,156.4z
		"/>
	<path class="st200" d="M136,121.8c-0.3,0-0.6,0-0.9,0.1c-0.2-0.5-0.5-1.1-0.7-1.6c1.5-0.7,1.8-3.9,4.5-2.2c1.3,1.8,0,2.7-1.1,3.7
		c-0.3,0.2-0.7,0.2-1,0.1l-0.1-0.2C136.4,121.6,136.2,121.6,136,121.8z"/>
	<path class="st201" d="M137.4,121.8c0.1-1.4,1.9-2,1.5-3.6c1.5,0,1.5,1.2,1.5,2.2c0,0.7-0.1,1.5-1.1,1.5c-0.5,0.3-1.1,0.5-1.6,0.8
		C137.1,122.5,137,122.2,137.4,121.8z"/>
	<path class="st202" d="M139.3,121.9c0.2-0.6,0.4-1.3,1.1-1.5c0.5,0,1,0,1.4,0c0,0.7,0,1.5,0,2.2
		C140.6,123.8,139.7,123.6,139.3,121.9z"/>
	<path class="st51" d="M129.8,94.8c0.9-1.1,0.8-2.4,1-3.7c2.4,0.7,1.3,2.8,1.7,4.3c0,1,0,2.1,0,3.1c0,0.8-0.1,1.7-0.3,2.5
		c-1,2.3,0.4,5.1-1.5,7.3c-1.1,1-2.2,2.2-2.3-0.6c0-1.1-0.1-2.1-0.1-3.2C128.8,101.3,129.3,98,129.8,94.8z"/>
	<path class="st203" d="M135.3,103.8c0,0.7,0,1.5-0.1,2.2c-0.8,1-1.8,1.5-3.1,1.6c-0.9-0.8-0.6-1.9-0.7-3c-0.1-1.7,0.2-3.3,0.4-4.9
		c0.4-1.2,0.3-2.4,0.5-3.6c0.9-1.9-0.7-4.7,2.1-6c0.6,0.7,0.5,1.5,0.2,2.4c-0.1,1.6-0.3,3.2,0.5,4.7
		C135.1,99.5,135.2,101.7,135.3,103.8z"/>
	<path class="st204" d="M132,104.5c0,1,0.1,2.1,0.1,3.1c-0.3,0.5-0.8,0.8-1.4,0.7c0.1-2.6-0.5-5.2,0.6-7.7
		C132.4,101.8,131.3,103.3,132,104.5z"/>
	<path class="st205" d="M137.4,121.8c0.1,0.3,0.2,0.6,0.2,0.9c-0.3,0.2-0.7,0.5-1,0.7c0-0.5,0-0.9,0.1-1.4
		C137,121.9,137.2,121.8,137.4,121.8z"/>
	<path class="st1" d="M144.8,104.7c-0.2,0.7-0.5,1.4-0.7,2.1c-1.7-1-0.7-2.8-1.3-4.2C144.4,102.4,143.7,104.4,144.8,104.7z"/>
	<path class="st206" d="M134.5,92.6c-0.1-0.7-0.2-1.4-0.3-2.1c-0.2-0.3-0.2-0.6,0-0.9c0.3-0.7,0-1.6,0.8-2c0.1,0.9,0.2,1.7,0.3,2.6
		C135.1,90.9,135.3,91.9,134.5,92.6z"/>
	<path class="st207" d="M133.1,96.3c-0.3,1.1-0.5,2.2-0.8,3.3c-0.5-0.1-0.6-0.6-0.8-1c0-0.9,0-1.8,0-2.8c1.2-2.6-0.9-5.2,0.1-7.7
		c0.4,0,0.9,0,1.3,0C133.7,90.9,133.2,93.6,133.1,96.3z"/>
	<path class="st208" d="M133.1,96.3c-0.1-2.7-0.1-5.5-0.2-8.2c1.4-0.4,0.5,1.4,1.4,1.4c0,0.3,0,0.6,0,0.9
		C132.9,92.2,134.5,94.6,133.1,96.3z"/>
	<path class="st209" d="M131.6,88.1c0.1,2.6,1.1,5.2-0.1,7.7c-0.4-1.5,0.5-3.3-0.7-4.7c-0.1-0.7-0.1-1.5-0.2-2.2
		C130.9,88.6,131.3,88.4,131.6,88.1z"/>
	<path class="st90" d="M189.3,95.6c1.3,2.5,0.3,5.1,0.6,7.6c0.2,1.4-0.5,3,0.6,4.3c0.1,0.8,0.2,1.7-0.6,2.3c-0.2-0.5-0.4-1-0.6-1.5
		C189.3,104.2,189.3,99.9,189.3,95.6z"/>
	<path class="st154" d="M163.7,103c-0.3,1-0.5,2.1-0.8,3.1c-0.8,1.5-2.2,1.1-3.5,1c-0.8-0.5-1.5-1.1-2-1.9c-0.1-1.6,0.3-3,1.6-4
		c1-0.5,2-1.3,3.2-0.3l0,0C163,101.3,164.1,101.7,163.7,103z"/>
	<path class="st210" d="M159.1,101.5c-0.5,1.3-1.5,2.4-1.4,3.8c-0.2,0.3-0.5,0.3-0.7,0c0-1.6-0.6-3.5,1.4-4.5
		C159.2,100.5,159.3,100.9,159.1,101.5z"/>
	<path class="st211" d="M159.1,101.5c-0.2-0.2-0.5-0.5-0.7-0.7c1.3-1,2.5-2.7,3.8,0C161.1,101.1,160.1,101.3,159.1,101.5z"/>
	<path class="st212" d="M163.7,103c-0.5-0.7-1-1.5-1.6-2.2c1-0.5,1.8-0.3,2.3,0.8C164.7,102.4,164.9,103.1,163.7,103z"/>
	<path class="st213" d="M159.2,106.8c1.3,0.1,2.6,0,3.7-0.7c-0.5,2.4-2.4,1.2-3.7,1.4c-0.2-0.2-0.3-0.3-0.3-0.5
		C159,106.9,159.1,106.8,159.2,106.8z"/>
	<path class="st214" d="M159.2,106.8c0,0.2,0,0.5,0,0.7c-1.1-0.4-1.8-1.2-2.2-2.2c0.2,0,0.5,0,0.7,0
		C158.2,105.8,158.7,106.3,159.2,106.8z"/>
	<path class="st215" d="M136,121.8c0.1-0.2,0.2-0.4,0.2-0.6c0.1,0.2,0.2,0.3,0.3,0.5C136.4,121.8,136.2,121.8,136,121.8z"/>
	<path class="st216" d="M142.7,156.4c-1.3,0-2-1.2-3-1.6c-0.7-1-1.2-2.1-0.1-3.2c1.6-2.1,3.5-0.9,5.3-0.6c0.3,1.2,0.5,2.5-0.1,3.7
		C144.1,155.3,143.4,155.9,142.7,156.4z"/>
	<path class="st137" d="M131.5,98.6c0.3,0.3,0.5,0.6,0.8,1c-0.1,1.6-0.2,3.3-0.3,4.9c-1.1-1.1-0.3-2.6-0.7-3.9
		C131.3,100,131.4,99.3,131.5,98.6z"/>
</g>
</svg>
